<?xml version="1.0" encoding="UTF-8"?>
<svg width="180px" height="33px" viewBox="0 0 180 33" version="1.1" xmlns="http://www.w3.org/2000/svg" xmlns:xlink="http://www.w3.org/1999/xlink">
    <!-- Generator: Sketch 51.2 (57519) - http://www.bohemiancoding.com/sketch -->
    <title>Logo</title>
    <desc>Created with Sketch.</desc>
    <defs></defs>
    <g id="Final" stroke="none" stroke-width="1" fill="none" fill-rule="evenodd">
        <g id="News-detail" transform="translate(-48.000000, -48.000000)" fill="#9BA9BB">
            <g id="Header" transform="translate(48.000000, 41.000000)">
                <g id="Logo" transform="translate(0.000000, 7.000000)">
                    <g id="Symbol" transform="translate(0.000000, 0.178588)">
                        <path d="M20.2992128,0.4389 C18.2234681,0.4389 16.5345319,2.15037059 16.5345319,4.25460588 L16.5345319,8.19648824 C16.0200638,7.92731176 15.4379362,7.77266471 14.8200638,7.77266471 C13.7400638,7.77266471 12.7672979,8.23919412 12.0798511,8.98007647 C11.3930426,8.23919412 10.4202766,7.77266471 9.3402766,7.77266471 C8.72240426,7.77266471 8.1402766,7.92731176 7.62517021,8.19648824 L7.62517021,4.25460588 C7.62517021,2.15037059 5.93687234,0.4389 3.86176596,0.4389 C1.78602128,0.4389 0.0970851064,2.15037059 0.0970851064,4.25460588 L0.0983617021,19.9205471 C0.0983617021,26.6182529 5.47346809,32.0671353 12.0804894,32.0671353 C18.6875106,32.0671353 24.0632553,26.6182529 24.0632553,19.9205471 L24.0632553,4.25460588 C24.0632553,2.15037059 22.3743191,0.4389 20.2992128,0.4389 Z M13.1036809,17.2566059 C13.1043191,17.2184294 13.106234,17.1809 13.106234,17.1427235 L13.106234,16.1048412 L13.1049574,16.1048412 L13.1049574,11.5883706 C13.1049574,11.5844882 13.1043191,11.5812529 13.1043191,11.5773706 C13.1100638,10.6236059 13.8772979,9.84972353 14.8200638,9.84972353 C15.7583617,9.84972353 16.521766,10.6164882 16.5345319,11.5644294 L16.5345319,14.3655471 L16.5358085,14.3655471 L16.5358085,18.5306647 C16.5358085,19.4902529 15.7660213,20.2706059 14.8200638,20.2706059 C13.8734681,20.2706059 13.1036809,19.4902529 13.1036809,18.5306647 L13.1036809,17.2566059 Z M7.62453191,11.5883706 C7.62453191,11.5883706 7.62453191,11.5877235 7.62453191,11.5877235 L7.62517021,11.5877235 L7.62517021,11.5767235 C7.63155319,10.6229588 8.39814894,9.84972353 9.3402766,9.84972353 C10.2830426,9.84972353 11.0496383,10.6236059 11.0560213,11.5773706 C11.0560213,11.5812529 11.055383,11.5844882 11.055383,11.5883706 L11.055383,16.1048412 L7.62453191,16.1048412 L7.62453191,11.5883706 Z M2.14538298,4.25460588 C2.14538298,3.29566471 2.91517021,2.51531176 3.86176596,2.51531176 C4.80708511,2.51531176 5.57687234,3.29566471 5.57687234,4.25460588 L5.57687234,11.5767235 C5.57687234,11.5806059 5.57623404,11.5844882 5.57623404,11.5883706 L5.57623404,16.1048412 L2.14602128,16.1048412 L2.14538298,4.25460588 Z M22.0149574,19.9205471 C22.0149574,25.4729588 17.5583617,29.9907235 12.0804894,29.9907235 C6.60261702,29.9907235 2.14665957,25.4729588 2.14665957,19.9205471 L2.14602128,18.1812529 L10.9392128,18.1812529 C10.4783617,20.1625471 8.72623404,21.6436647 6.63644681,21.6611353 C6.62368085,21.6611353 6.61155319,21.6598412 6.59878723,21.6598412 L6.59878723,21.6630765 L6.59878723,23.7356059 L6.59878723,23.7394882 C6.61474468,23.7394882 6.63006383,23.7381941 6.64538298,23.7381941 C7.81602128,23.7504882 8.91580851,24.2150765 9.74687234,25.0543118 C10.1304894,25.4406059 10.4381489,25.8896647 10.6609149,26.3879 L12.5260213,25.5299 C12.2004894,24.8019588 11.7511277,24.1464882 11.1919787,23.5822529 C10.8568723,23.2444882 10.4892128,22.9513706 10.1004894,22.6990176 C10.809,22.2383118 11.4236809,21.6430176 11.9094255,20.9480765 C12.6007021,21.8015471 13.6481489,22.3470176 14.8200638,22.3470176 C16.8951702,22.3470176 18.5841064,20.6349 18.5841064,18.5306647 L18.5841064,11.5883706 C18.5841064,11.5806059 18.5828298,11.5728412 18.5828298,11.5644294 L18.5828298,4.25460588 C18.5828298,3.29566471 19.3532553,2.51531176 20.2992128,2.51531176 C21.2451702,2.51531176 22.0149574,3.29566471 22.0149574,4.25460588 L22.0149574,19.9205471 Z" id="Fill-295"></path>
                    </g>
                    <g id="Text" transform="translate(35.106383, 6.470588)">
                        <path d="M78.018383,15.2819765 C78.018383,14.2156235 78.8015745,13.4216824 79.8758298,13.4216824 C80.9277447,13.4216824 81.7109362,14.2156235 81.7109362,15.2819765 C81.7109362,16.3709765 80.9277447,17.1196235 79.8758298,17.1196235 C78.8015745,17.1196235 78.018383,16.3709765 78.018383,15.2819765" id="Fill-297"></path>
                        <path d="M8.64255319,0.632758824 C13.4093617,0.632758824 16.7412766,4.18964118 16.7412766,8.90928824 C16.7412766,11.6385824 15.6376596,13.9654059 13.7840426,15.4419941 L14.0929787,15.7991706 C15.0861702,16.9852294 15.7921277,17.3657 16.8076596,17.3657 C17.0278723,17.3657 17.1829787,17.3430529 17.1829787,17.3430529 L17.1829787,19.8258176 C17.1829787,19.8258176 16.8957447,19.8484647 16.7853191,19.8484647 C14.7331915,19.8484647 13.3646809,19.1101706 12.4161702,17.9467588 L11.4229787,16.7387 C10.5625532,17.0298765 9.63574468,17.1864647 8.64255319,17.1864647 C3.87638298,17.1864647 0.543829787,13.6295824 0.543829787,8.90928824 C0.543829787,4.18964118 3.87638298,0.632758824 8.64255319,0.632758824 M8.64255319,14.5917588 C11.7102128,14.5917588 13.9168085,12.3322294 13.9168085,8.90928824 C13.9168085,5.48699412 11.7102128,3.22746471 8.64255319,3.22746471 C5.57553191,3.22746471 3.36829787,5.48699412 3.36829787,8.90928824 C3.36829787,12.3322294 5.57553191,14.5917588 8.64255319,14.5917588" id="Fill-299"></path>
                        <path d="M26.606617,5.24078824 L29.2325745,5.24078824 L29.2325745,16.8509647 L26.8051277,16.8509647 L26.8051277,15.3523765 C26.3200213,16.2692588 25.1723617,17.1194941 23.3187447,17.1194941 C20.5383191,17.1194941 19.1040638,15.2624353 19.1040638,12.5557882 L19.1040638,5.24078824 L21.7300213,5.24078824 L21.7300213,12.1979647 C21.7300213,13.7864941 22.3695957,14.8379647 23.9589574,14.8379647 C25.5917234,14.8379647 26.606617,13.8311412 26.606617,11.9294353 L26.606617,5.24078824 Z" id="Fill-301"></path>
                        <polygon id="Fill-304" points="32.3010638 16.8513529 34.9270213 16.8513529 34.9270213 0.0737647059 32.3010638 0.0737647059"></polygon>
                        <path d="M43.1363617,16.7838 C43.1363617,16.7838 42.650617,16.9177412 41.7684894,16.9177412 C39.4291277,16.9177412 38.414234,15.6876824 38.414234,13.4954471 L38.414234,7.36585882 L36.6710426,7.36585882 L36.6710426,5.24091765 L38.414234,5.24091765 L38.414234,2.22109412 L41.0401915,2.22109412 L41.0401915,5.24091765 L43.1804043,5.24091765 L43.1804043,7.36585882 L41.0401915,7.36585882 L41.0401915,13.2269176 C41.0401915,14.1444471 41.4148723,14.5915647 42.3199787,14.5915647 C42.7610426,14.5915647 43.1363617,14.4796235 43.1363617,14.4796235 L43.1363617,16.7838 Z" id="Fill-305"></path>
                        <path d="M52.5591702,5.24078824 L55.1851277,5.24078824 L55.1851277,16.8509647 L52.7576809,16.8509647 L52.7576809,15.3523765 C52.2725745,16.2692588 51.1249149,17.1194941 49.2712979,17.1194941 C46.4908723,17.1194941 45.056617,15.2624353 45.056617,12.5557882 L45.056617,5.24078824 L47.6825745,5.24078824 L47.6825745,12.1979647 C47.6825745,13.7864941 48.3221489,14.8379647 49.9115106,14.8379647 C51.5442766,14.8379647 52.5591702,13.8311412 52.5591702,11.9294353 L52.5591702,5.24078824 Z" id="Fill-307"></path>
                        <path d="M64.4324681,7.63445294 C64.4324681,7.63445294 64.1235319,7.58980588 63.8369362,7.58980588 C61.9833191,7.58980588 60.8797021,8.57398235 60.8797021,10.8108647 L60.8797021,16.8511588 L58.2537447,16.8511588 L58.2537447,5.24098235 L60.6811915,5.24098235 L60.6811915,6.85151176 C61.1005532,6.11321765 62.0714043,5.12904118 64.0571489,5.12904118 C64.1675745,5.12904118 64.4324681,5.15168824 64.4324681,5.15168824 L64.4324681,7.63445294 Z" id="Fill-309"></path>
                        <path d="M67.5668298,11.8176882 C67.7653404,13.6521 68.9347021,14.8375118 70.766617,14.8375118 C71.9800213,14.8375118 73.0172553,14.2111588 73.436617,13.1823353 L76.0849149,13.1823353 C75.4006596,15.4865118 73.370234,17.1190412 70.700234,17.1190412 C67.2355532,17.1190412 64.9849149,14.5023353 64.9849149,11.0347471 C64.9849149,7.65645294 67.280234,4.97245294 70.6778936,4.97245294 C74.0768298,4.97245294 76.3051277,7.58980588 76.3051277,10.9901 C76.3051277,11.4152176 76.2834255,11.8176882 76.2834255,11.8176882 L67.5668298,11.8176882 Z M67.6108723,9.84933529 L73.7015106,9.84933529 C73.4806596,8.23880588 72.3776809,7.14268824 70.6778936,7.14268824 C68.979383,7.14268824 67.875766,8.26080588 67.6108723,9.84933529 Z" id="Fill-311"></path>
                        <path d="M93.5552553,16.8508353 L90.3771702,10.5873059 L86.7803617,10.5873059 L86.7803617,16.8508353 L84.1103617,16.8508353 L84.1103617,0.968129412 L90.9956809,0.968129412 C94.4603617,0.968129412 96.1595106,3.00377647 96.1595106,5.77771765 C96.1595106,7.88065882 95.1663191,9.58048235 93.0918511,10.2514824 L96.6886596,16.8508353 L93.5552553,16.8508353 Z M91.017383,3.47354118 L86.7803617,3.47354118 L86.7803617,8.08189412 L91.017383,8.08189412 C92.6724894,8.08189412 93.4671702,7.14236471 93.4671702,5.77771765 C93.4671702,4.41307059 92.6724894,3.47354118 91.017383,3.47354118 Z" id="Fill-313"></path>
                        <path d="M97.5665106,11.0570059 C97.5665106,7.7913 99.8618298,4.97271176 103.502681,4.97271176 C107.165872,4.97271176 109.460553,7.7913 109.460553,11.0570059 C109.460553,14.3227118 107.165872,17.1193 103.502681,17.1193 C99.8618298,17.1193 97.5665106,14.3227118 97.5665106,11.0570059 M103.502681,14.7704765 C105.422681,14.7704765 106.834596,13.2938882 106.834596,11.0570059 C106.834596,8.79747647 105.422681,7.32088824 103.502681,7.32088824 C101.605021,7.32088824 100.192468,8.79747647 100.192468,11.0570059 C100.192468,13.2938882 101.605021,14.7704765 103.502681,14.7704765" id="Fill-315"></path>
                        <path d="M116.574511,4.97258235 C119.972809,4.97258235 121.694298,7.36605294 122.003234,9.44634706 L119.310894,9.44634706 C119.001957,8.19364118 117.964723,7.32140588 116.55217,7.32140588 C114.676851,7.32140588 113.485149,8.86464118 113.485149,11.0568765 C113.485149,13.2264647 114.676851,14.7703471 116.55217,14.7703471 C117.964723,14.7703471 119.001957,13.8981118 119.310894,12.6454059 L122.003234,12.6454059 C121.694298,14.7257 119.972809,17.1191706 116.574511,17.1191706 C113.197915,17.1191706 110.859191,14.4125235 110.859191,11.0568765 C110.859191,7.67922941 113.197915,4.97258235 116.574511,4.97258235" id="Fill-317"></path>
                        <polygon id="Fill-320" points="134.596468 5.24078824 130.160936 10.1396706 134.927745 16.8509647 131.79434 16.8509647 128.417745 11.8847882 126.40966 14.0770235 126.40966 16.8509647 123.783702 16.8509647 123.783702 0.0733764706 126.40966 0.0733764706 126.40966 10.9006118 131.286255 5.24078824"></polygon>
                        <path d="M135.19334,13.1375588 L137.731213,13.1375588 C137.797596,14.1443824 138.591638,14.9273235 140.202702,14.9273235 C141.571213,14.9273235 142.321213,14.4129118 142.321213,13.6073235 C142.321213,11.1465588 135.74483,13.3387941 135.74483,8.6185 C135.74483,6.67279412 137.466319,4.97232353 140.290787,4.97232353 C143.579298,4.97232353 144.682277,7.25385294 144.792702,8.81973529 L142.27717,8.81973529 C142.188447,7.99214706 141.571213,7.14255882 140.225043,7.14255882 C138.922915,7.14255882 138.261,7.67961765 138.261,8.52920588 C138.261,10.7887353 144.836745,8.79773529 144.836745,13.4953824 C144.836745,15.4637353 143.248021,17.1195588 140.048234,17.1195588 C136.693979,17.1195588 135.326106,15.2625 135.19334,13.1375588" id="Fill-321"></path>
                    </g>
                </g>
            </g>
        </g>
    </g>
</svg>