<svg xmlns="http://www.w3.org/2000/svg" viewBox="0 0 101.09 101.1"><title>Asset 1</title><g id="Layer_2" data-name="Layer 2"><g id="Layer_1-2" data-name="Layer 1"><path d="M50.57,101.1a3.16,3.16,0,0,1-2.25-.93L.93,52.78a3.19,3.19,0,0,1,0-4.5L12.07,37.14a3.19,3.19,0,0,1,4.51,4.51L7.66,50.57l19.2,19.19,7.33-7.33-9.6-9.61a3.19,3.19,0,0,1,0-4.51L36.42,36.46a3.2,3.2,0,0,1,2.25-.93,3.14,3.14,0,0,1,2.26.94L52.78,48.32a3.19,3.19,0,0,1-2.26,5.44,3.16,3.16,0,0,1-2.25-.93l-9.59-9.59-7.34,7.34,9.6,9.6a3.19,3.19,0,0,1,0,4.5l-9.6,9.59L50.52,93.45l7.34-7.34-9.59-9.59a3.16,3.16,0,0,1-.93-2.25A3.2,3.2,0,0,1,48.27,72a3.2,3.2,0,0,1,4.51,0l9.59,9.59,31-31-9.8-9.8a3.12,3.12,0,0,1-.73-2,3.2,3.2,0,0,1,.93-2.26,3.2,3.2,0,0,1,4.51,0l11.85,11.85a3.19,3.19,0,0,1,0,4.5L52.82,100.17A3.16,3.16,0,0,1,50.57,101.1Z"/><path d="M62.39,65.6a3.19,3.19,0,0,1-2.25-5.44l9.58-9.59L60.14,41a3.19,3.19,0,0,1,0-4.5l9.58-9.58L50.53,7.7l-7.35,7.35,9.59,9.59a3.18,3.18,0,0,1-4.5,4.5l-9.59-9.59L28.43,29.8a3.17,3.17,0,0,1-2.26.94A3.21,3.21,0,0,1,23,27.55a3.17,3.17,0,0,1,.94-2.26L48.28.93a3.18,3.18,0,0,1,4.3-.18l.19.19,23.7,23.71a3.19,3.19,0,0,1,0,4.5l-9.59,9.59,9.59,9.6a3.19,3.19,0,0,1,0,4.5L64.65,64.67A3.2,3.2,0,0,1,62.39,65.6Z"/></g></g></svg>