<svg id="Layer_1" data-name="Layer 1" xmlns="http://www.w3.org/2000/svg" viewBox="0 0 769.43 482.51"><defs><style>.cls-1{fill:#00c4ce;}.cls-2{fill:#5f5f5f;}.cls-3{fill:#676767;}.cls-4{fill:#7e7e7e;}.cls-5{fill:#7b7b7b;}.cls-6{fill:#7a7a7a;}.cls-7{fill:#767676;}.cls-8{fill:#757676;}.cls-9{fill:#616161;}.cls-10{fill:#6c6c6c;}.cls-11{fill:#6f6f6f;}.cls-12{fill:#717171;}.cls-13{fill:#5a5a5a;}.cls-14{fill:#595959;}.cls-15{fill:#505050;}.cls-16{fill:#4e4e4e;}.cls-17{fill:#454945;}.cls-18{fill:#40433f;}.cls-19{fill:#555656;}.cls-20{fill:#464646;}.cls-21{fill:#4c8679;}.cls-22{fill:#45867a;}.cls-23{fill:#fffa45;}.cls-24{fill:#80807b;}.cls-25{fill:#707979;}.cls-26{fill:#454949;}.cls-27{fill:#656d6d;}.cls-28{fill:#5b6162;}.cls-29{fill:#4d5859;}.cls-30{fill:#6f7474;}.cls-31{fill:#7b7e7f;}.cls-32{fill:#494e4e;}.cls-33{fill:#404444;}.cls-34{fill:#656b6c;}.cls-35{fill:#677070;}.cls-36{fill:#5c6363;}.cls-37{fill:#53595a;}.cls-38{fill:#5e6464;}.cls-39{fill:#535a5b;}.cls-40{fill:#6e7b7c;}.cls-41{fill:#3e4545;}.cls-42{fill:#7f7f7a;}.cls-43{fill:#484845;}.cls-44{fill:#757571;}.cls-45{fill:#4c4c49;}.cls-46{fill:#4e4e4c;}.cls-47{fill:#74736f;}.cls-48{fill:#6b6a65;}.cls-49{fill:#6c6c65;}.cls-50{fill:#777670;}.cls-51{fill:#5a5a55;}.cls-52{fill:#686862;}.cls-53{fill:#7a7974;}.cls-54{fill:#5a5a54;}.cls-55{fill:#5c5c56;}.cls-56{fill:#454541;}.cls-57{fill:#64645e;}.cls-58{fill:#605f59;}.cls-59{fill:#6f6f67;}.cls-60{fill:#5a5a56;}.cls-61{fill:#6d6d66;}.cls-62{fill:#494944;}.cls-63{fill:#4d4d3f;}.cls-64{fill:#3c3c39;}.cls-65{fill:#605f5f;}.cls-66{fill:#7f7f7c;}.cls-67{fill:#757572;}.cls-68{fill:#474845;}.cls-69{fill:#525250;}.cls-70{fill:#555551;}.cls-71{fill:#696a65;}.cls-72{fill:#777770;}.cls-73{fill:#64635e;}.cls-74{fill:#52524f;}.cls-75{fill:#5d5d58;}.cls-76{fill:#6f6f68;}.cls-77{fill:#797973;}.cls-78{fill:#6f6f69;}.cls-79{fill:#62615d;}.cls-80{fill:#6b6b65;}.cls-81{fill:#43433d;}.cls-82{fill:#5d5d56;}.cls-83{fill:#65655e;}.cls-84{fill:#51514c;}.cls-85{fill:#4b4b45;}.cls-86{fill:#ababab;}.cls-87{fill:#ccc;}.cls-88{fill:#484848;}</style></defs><title>oursolution</title><path class="cls-1" d="M16.44,295.43a18.41,18.41,0,0,1,.68-4.83,19,19,0,0,1,5.43-8.3,36.29,36.29,0,0,1,7-5q7.2-4.18,14.42-8.34l65.12-37.59,58.33-33.66q14.53-8.38,29.06-16.77c2.76-1.59,1.93-1.5,4.61-.11a3.5,3.5,0,0,0,.46.14,3.32,3.32,0,0,1,3,.5c10.55,6,20.95,12.18,31.51,18.14a7.13,7.13,0,0,1,2.87,2.21,1.8,1.8,0,0,1,.18.75,11.39,11.39,0,0,0-.17,1.15,19.27,19.27,0,0,1-2.36,5.35c-2.62,4.8-3,10.13-3.73,15.36-1.42,10.52.7,20.38,4.84,30.19,3.85,9.12,10.05,16.38,16.28,23.66,3.8,4.45,8.89,7.65,13.4,11.41,5.7,4.76,11.59,9.3,17.14,14.22,3.22,2.86,5.39,6.75,8.29,10,6.11,6.76,9.88,14.94,12.36,23.41s3.73,17.59,1.51,26.6c-1.25,5.08-.86,9.87,2.43,14.18a2.35,2.35,0,0,1,.56,2.06,1.59,1.59,0,0,1-.71,1,1.94,1.94,0,0,1-.77.25,24.62,24.62,0,0,1-8-2.21c-2-.46-3.64-1.72-5.44-2.62-1.44-.33-2.07-1.69-3.15-2.48a7,7,0,0,1-.88-.51,2.17,2.17,0,0,1-.48-.88c-.41-1-1.67-1.14-2.18-2.07a36.67,36.67,0,0,0-2.22-4.86,5.17,5.17,0,0,1-.12-2.18c.13-.63.32-1.36-.35-1.78s-1.26.1-1.81.42c-7.47,4.35-15,8.65-22.45,13-14.63,8.42-29.23,16.89-43.87,25.28-4.81,2.76-9.57,5.59-14.4,8.33-1.26.72-2.48,1.61-4,1.52-2.31,0-3.93-1.54-5.72-2.58Q167.28,392.78,141.5,378q-28.18-16.26-56.38-32.5C68,335.55,50.76,325.7,33.65,315.7a59.94,59.94,0,0,1-5.4-3.35c-1.63-.4-2.58-1.9-4.08-2.52a4.67,4.67,0,0,0-2.51-2,15.75,15.75,0,0,0-2.06-2.55,3.18,3.18,0,0,0-1.5-1.61,2.14,2.14,0,0,1-.48-.47,1.8,1.8,0,0,1-.31-.58c0-.22-.1-.43-.16-.64a3.53,3.53,0,0,1-.12-1,16.61,16.61,0,0,0-.48-2.89A19.66,19.66,0,0,0,16.44,295.43Z" transform="translate(-16.29 -72.76)"/><path class="cls-1" d="M600.39,181l2.21-1a1,1,0,0,1,.94,0l1.72.94,93.44,53.9,72.63,41.89c1.49.86,2.94,1.77,4.39,2.69a26,26,0,0,1,5.67,5,17.47,17.47,0,0,1,3.54,6.39,20.39,20.39,0,0,1,.64,4.59,20.92,20.92,0,0,0-.1,2.74,15,15,0,0,0-.48,3,5.26,5.26,0,0,1-.07.67c-.06.21-.14.43-.22.64l-.3.61a3.13,3.13,0,0,1-.36.58,5.59,5.59,0,0,0-2.34,2.78A22,22,0,0,0,779,308.9c-1.74,1.13-3.1,2.83-5.17,3.44-6.49,4.25-13.33,7.89-20,11.79q-21.25,12.36-42.6,24.59-21.84,12.6-43.68,25.18c-13.24,7.6-26.42,15.28-39.65,22.88C620.4,401,613,405.3,605.58,409.64a6.88,6.88,0,0,1-2.8.78,3.66,3.66,0,0,1-2.25-.82c-25.25-14.49-50.43-29.12-75.67-43.65-1.28-.73-3.27-1.19-2.76-3.47,1.84-1.71,4.25-.92,6.36-1.42.84-.2,1.76,0,2.58-.44a39.71,39.71,0,0,0,4.79-1.26l.58-.37c.51-.22,1.07-.3,1.59-.5,1.55-.48,3-1.13,4.55-1.68a14.79,14.79,0,0,1,3-1.79c.87-.19,1.21-1.09,1.93-1.47l.54-.26.51-.34c.44-.42.59-1.11,1.24-1.33a2.11,2.11,0,0,0,1-1.11,8.58,8.58,0,0,0,1.61-2c1.59-4,2-8-.23-11.88-1.06-1-1.61-2.42-2.54-3.54-1.2-1-2.47-1.86-3.7-2.79-1.51-.76-2.95-1.66-4.45-2.46-2.75-1-5.32-2.48-8.33-2.66a52,52,0,0,0-23.45-.73c-1.72.32-3.47,1-5.21,0-1.12-1.83-.07-3.31.9-4.69,2.9-4.15,6.38-7.85,9.44-11.88,4.46-5.88,10.69-9.78,16.18-14.5s11.33-9.09,16.73-13.94c3.7-3.32,6.31-7.68,9.58-11.43,5.26-6,8.45-13.37,10.66-20.78,2.38-7.95,3.42-16.3,1.83-24.88a61.19,61.19,0,0,0-5.45-17.13,3.39,3.39,0,0,1-.52-2.57,2.86,2.86,0,0,1,1.63-2.77c10.49-6.13,21.06-12.11,31.56-18.22C598,181.11,599.06,180.24,600.39,181Z" transform="translate(-16.29 -72.76)"/><path class="cls-1" d="M201.77,178.11a6.14,6.14,0,0,1,2-1.37Q214,170.83,224.15,165L281,132.13,339.2,98.58l31-17.89a55.27,55.27,0,0,1,8.6-4.13,59.91,59.91,0,0,1,8-2.3,76.19,76.19,0,0,1,13.13-1.48,63.71,63.71,0,0,1,9.05.51,59.52,59.52,0,0,1,9.61,1.86A52,52,0,0,1,431,80.34L460.9,97.62l62.84,36.24,74.08,42.74a7,7,0,0,1,2.22,1.5c-.19,1.59-1.41,2.3-2.62,3-10.55,6-21,12.18-31.58,18.18-1.2.68-2.36,1.13-3.67.35-3.41-4.68-7.29-9-10.74-13.65-2.82-3.8-6.68-6.44-10.1-9.58-9.12-8.38-19.82-14.47-30.79-19.82A206.58,206.58,0,0,0,477.39,144c-15.36-4.45-31.09-6.73-46.82-9.17-3.21-.51-6.51-.29-9.77-.49-6.42-.39-12.88-1-19.29-.9-7.32.15-14.66.79-22,1.06-11.73.44-23.15,2.91-34.67,4.63-6.39.95-12.46,3.35-18.75,4.76-11.64,2.61-22.37,7.72-33.28,12.27-6.38,2.65-12.05,6.85-18.13,10.2-5.56,3.06-9.95,7.65-14.94,11.45-7.66,5.84-12.89,13.77-18.55,21.32a6.51,6.51,0,0,1-.81.93c-1.18.91-2.25.41-3.38-.2-6-3.27-11.84-6.8-17.76-10.2-4.86-2.8-9.73-5.58-14.58-8.4A6.08,6.08,0,0,1,201.77,178.11Z" transform="translate(-16.29 -72.76)"/><path class="cls-2" d="M28.54,311.56c.72.37,1.47.7,2.17,1.11q46.26,26.68,92.5,53.39l74.25,42.87,1.27.74a2.35,2.35,0,0,1,1.09,2.3c.14,11.22.17,22.44,0,33.66,0,1.23-.25,2.52-2.05,2.19-1.08-.57-2.19-1.11-3.25-1.73q-15.39-8.86-30.77-17.77l-23.35-13.48-24-13.84L96.23,389.34Q85.61,383.22,75,377.1l-16.77-9.69L40.39,357.12c-3.61-2.08-7.23-4.15-10.83-6.25a9.23,9.23,0,0,1-2.42-1.64c-.57-11.57-.19-23.15-.2-34.72C26.93,313.29,27,312,28.54,311.56Z" transform="translate(-16.29 -72.76)"/><path class="cls-3" d="M600.84,447.24a1.74,1.74,0,0,0-.46,1.36,2.48,2.48,0,0,1-1.63,2.46c-1.09.56-2.13,1.22-3.19,1.83l-21.42,12.36c-6,3.47-12,6.91-18,10.38-6.65,3.83-13.28,7.69-19.93,11.52l-18,10.39-14,8.07-18.47,10.64-16.32,9.44-15.07,8.68-14.21,8.21L432,547.22c-.43.24-.88.43-1.32.64-1.37.53-1.75-.38-2-1.41a14.38,14.38,0,0,1-.18-2.93q0-14.58,0-29.15a16.27,16.27,0,0,1,.38-3.88c0-1.43.86-2.14,2-2.81,10.27-6.05,20.63-11.95,31-17.9q37.25-21.46,74.49-42.95,30.24-17.41,60.49-34.85c1.12-.64,1.89-2.21,3.58-1.66,1.17.75,1.08,2,1.09,3.08.1,10.43.08,20.87,0,31.3A3.56,3.56,0,0,1,600.84,447.24Z" transform="translate(-16.29 -72.76)"/><path class="cls-3" d="M602.84,409.65c.73-.36,1.48-.69,2.19-1.09l72.83-42,93.66-54c.63-.36,1.3-.66,2-1,1.66.49,1.58,1.9,1.62,3.19.11,4.39,0,8.79,0,13.19,0,5.62,0,11.24,0,16.85a15.36,15.36,0,0,1-.58,4.58,10,10,0,0,1-2.62,1.8L747.1,365.45q-10,5.74-19.94,11.53-9,5.2-18.06,10.39Q701,392,693,396.69l-18.47,10.64-14,8.08L645.64,424l-14,8.08L614,442.23,605.74,447c-.71.41-1.43.8-2.16,1.15a1.24,1.24,0,0,1-1.37-.22,19.92,19.92,0,0,1-.09-4.88c0-9.8,0-19.59,0-29.39C602.13,412.3,601.9,410.86,602.84,409.65Z" transform="translate(-16.29 -72.76)"/><path class="cls-2" d="M371.27,548c-.58-.29-1.19-.54-1.75-.87q-17.92-10.35-35.84-20.7-20.15-11.62-40.31-23.23l-32.86-19L229.12,466l-23.55-13.57-1.69-1c-2.3-1.35-2.38-1.15-2.28-4a3.48,3.48,0,0,1-1-2.41c-.05-10.95-.35-21.9.16-32.84.82-1.94,2.26-1.22,3.48-.65,2.66,1.26,5.16,2.82,7.7,4.3q29.08,16.92,58.29,33.68,28.21,16.27,56.43,32.51,22,12.63,43.89,25.35c1.18.69,2.17,1.48,2.13,3a14.24,14.24,0,0,1,.31,1.94q.18,16.53,0,33.07C372.91,546.53,372.93,547.85,371.27,548Z" transform="translate(-16.29 -72.76)"/><path class="cls-4" d="M412.08,554.28a7.73,7.73,0,0,1-1.38.4,64.84,64.84,0,0,1-11.63.56c-.9,0-1.79,0-2.68,0a10.51,10.51,0,0,1-1.69-.1,33.53,33.53,0,0,0-3.86-.44,7.05,7.05,0,0,1-1.38-.42c1.7-2.2,1.82-4.73,1.81-7.38q-.09-13.73,0-27.45c0-2.17.54-3.89,3-4.29a83.57,83.57,0,0,0,13-.11c4.22,0,5.46,1.15,5.48,5.3.07,10,0,20.08,0,30.13A8.83,8.83,0,0,1,412.08,554.28Z" transform="translate(-16.29 -72.76)"/><path class="cls-3" d="M201.71,411.43c0,1.22-.05,2.45-.05,3.67V444c0,1.14,0,2.28-.06,3.43a3.63,3.63,0,0,0-2.06.64,1.49,1.49,0,0,1-1.79-.28,1.48,1.48,0,0,0,.92-1.33c0-.81.05-1.62.05-2.43q0-17.21,0-34.39c3.4-1.94,6.81-3.87,10.21-5.83q37.65-21.7,75.29-43.44c.63-.36,1.29-.69,1.94-1a.5.5,0,0,1,.7.43c0,1,0,1.95,0,2.93s0,1.79.05,2.69c-.4,2.05,1.22,4,.31,6.09-1.57,1.38-2.42.26-3.32-.92s-.8-3.35-2.54-3.6c-1.55-.23-2.78,1.22-4.11,2-12,6.87-24,13.83-36,20.75S217.05,403.67,205,410.63C203.9,411.25,202.75,411,201.71,411.43Z" transform="translate(-16.29 -72.76)"/><path class="cls-2" d="M602.84,409.65a5.23,5.23,0,0,1,.45,2.14c0,.65,0,1.3,0,1.95v29.35c0,.73,0,1.46,0,2.2a3.58,3.58,0,0,1-1.07,2.64l-1.37-.69a4.74,4.74,0,0,1-.48-2.13c0-.65,0-1.3,0-1.95V414.31c0-.81,0-1.62-.05-2.44a1.46,1.46,0,0,0-.92-1.32c-1.38,1.08-2.52.1-3.59-.52-6.39-3.75-12.83-7.43-19.26-11.13-15.67-9-31.31-18.13-47-27.09-2.33-1.34-4.61-2.77-7-4.07-1-.55-2-1.24-1.89-2.63-.08-1.14-.26-2.36,1.55-2.13,1,.6,1.93,1.21,2.92,1.78l58,33.48L600.12,408C601,408.54,601.94,409.1,602.84,409.65Z" transform="translate(-16.29 -72.76)"/><path class="cls-2" d="M201.77,178.11c2.32,1.35,4.63,2.72,6.95,4.06l28.52,16.46a6.38,6.38,0,0,0,2.42,1.12,3.62,3.62,0,0,1,3,.63l40,23.12c1.76,1,3.57,2,5.27,3.1.86.56,1.68,1.2,1.22,2.36-.4,1-1.31,1.12-2.27.94-2.31-.41-4.74.36-7-.7a12.63,12.63,0,0,0-1.53-2,2.79,2.79,0,0,0-1.12-1.24c-12.5-6.51-24.45-14-36.72-20.91-1-.57-2-1.12-2.15-2.44-1-.61-1.91-1.25-2.89-1.82l-31.72-18.31c-.78-.45-1.51-1-2.27-1.44C201.6,180,201.68,179.07,201.77,178.11Z" transform="translate(-16.29 -72.76)"/><path class="cls-5" d="M394.56,516.4c-1.87.08-2.11.83-2.12,2.29,0,.73,0,1.46,0,2.2q0,14.76,0,29.52c0,.81,0,1.63-.06,2.44a1.3,1.3,0,0,1-1.2,1.31c-.56.06-1.13.06-1.7.09a10.63,10.63,0,0,1-4.45-.92,15.11,15.11,0,0,1-.63-3.84q0-15.4,0-30.79c0-2.09.32-3.92,2.66-4.63,2,0,3.92.62,5.89.87A1.61,1.61,0,0,1,394.56,516.4Z" transform="translate(-16.29 -72.76)"/><path class="cls-3" d="M562.85,199.3a4.44,4.44,0,0,0,2-.83l8.91-5.13,24-13.83c.77-.45,1.53-.94,2.29-1.41a8,8,0,0,1,.29,1.17c.06.56,0,1.14.06,1.7-.68.44-1.35.91-2,1.32l-32,18.44a5.84,5.84,0,0,0-2.16,1.56c-.43,1.37-1.61,2-2.73,2.65-12.92,7.41-25.8,14.91-38.74,22.29-1.29.73-2.66,2.21-4.41.75a4.13,4.13,0,0,1-.24-3.14c1.83-2.32,4.58-3.33,7-4.76,11.39-6.67,22.88-13.19,34.29-19.84A4.83,4.83,0,0,1,562.85,199.3Z" transform="translate(-16.29 -72.76)"/><path class="cls-6" d="M412.08,554.28a2.92,2.92,0,0,1-.51-1.61c0-.74,0-1.47,0-2.21V520.6c0-.82,0-1.63-.07-2.45a1.59,1.59,0,0,0-1.54-1.6c-1-.07-1.95-.09-2.93-.13a1.2,1.2,0,0,1,.95-1.27c3-.37,5.83-1.65,8.91-1,1.79.78,1.71,2.41,1.72,4,.08,8.47,0,16.94,0,25.41,0,3.1.1,6.19-.11,9.29a10,10,0,0,1-1.53.62A22.52,22.52,0,0,1,412.08,554.28Z" transform="translate(-16.29 -72.76)"/><path class="cls-7" d="M387.53,515.26c-1.73.44-2,.64-2,2.52,0,.65,0,1.3,0,2v29.8c0,.73,0,1.46,0,2.2a2.89,2.89,0,0,1-.53,1.6l-.43-.07c-.41-.46-1.09,0-1.52-.47a9.91,9.91,0,0,1-4.45-1.44c.74-6.75.24-13.51.36-20.26.08-4.81,0-9.61,0-14.42,0-1.3,0-2.66,1.41-3.41,1.57-1,3.08-.08,4.62.13a6.11,6.11,0,0,1,1.18.41C386.89,514.09,387.49,514.42,387.53,515.26Z" transform="translate(-16.29 -72.76)"/><path class="cls-8" d="M418.51,552.83a1.61,1.61,0,0,1-1-1.52c0-.82,0-1.63,0-2.44v-30c0-.81,0-1.62-.05-2.43a1.58,1.58,0,0,0-1.07-1.49,4.87,4.87,0,0,1,6.13-2.06,3.08,3.08,0,0,1,1,2.65c0,11.92.28,23.84-.13,35.76A11.24,11.24,0,0,1,418.51,552.83Z" transform="translate(-16.29 -72.76)"/><path class="cls-9" d="M774.57,349.36a2.73,2.73,0,0,1-.58-1.57q0-1.1,0-2.19v-30c0-.65,0-1.3,0-1.95a4.86,4.86,0,0,0-.47-2.12,8.55,8.55,0,0,1,.74-.61l4.15-2.85c1.28.66,1.14,1.92,1.14,3,0,11.57.32,23.14-.19,34.71A15.49,15.49,0,0,1,774.57,349.36Z" transform="translate(-16.29 -72.76)"/><path class="cls-10" d="M371.27,548a2.9,2.9,0,0,0,.54-1.6c0-.73,0-1.47,0-2.2v-31c0-1.14,0-2.28,0-3.42a4.7,4.7,0,0,1,5.82,2.91,98,98,0,0,0-.22,11.24c-.06,7.66.07,15.32-.09,23,0,1.36.43,3.43-2.21,3.06A14.81,14.81,0,0,1,371.27,548Z" transform="translate(-16.29 -72.76)"/><path class="cls-11" d="M423.33,551.3a1.45,1.45,0,0,1-.93-1.31c0-.81-.06-1.62-.06-2.44V517.09c0-.73,0-1.46,0-2.19a3.21,3.21,0,0,0-.47-1.62c1-2,2.07-2.53,4.44-1.95a3.25,3.25,0,0,1,1.59,3.08c0,11.65.26,23.29-.12,34.94A10.78,10.78,0,0,1,423.33,551.3Z" transform="translate(-16.29 -72.76)"/><path class="cls-12" d="M375.15,549.89a1.61,1.61,0,0,0,1.05-1.51c0-.82,0-1.63,0-2.45q0-14.8,0-29.61c0-.74,0-1.47,0-2.21a2.14,2.14,0,0,1,1-1.87c.8-1.16,1.75-.48,2.67-.22a1.88,1.88,0,0,1,.93.61,2,2,0,0,1,.32,1,2.29,2.29,0,0,0-1,1.89c0,.73,0,1.47,0,2.2V547c0,.81,0,1.63,0,2.45a1.85,1.85,0,0,1-1.53,1.94A7.34,7.34,0,0,1,375.15,549.89Z" transform="translate(-16.29 -72.76)"/><path class="cls-13" d="M28.54,311.56a4.87,4.87,0,0,0-.47,2.13c0,.73,0,1.46,0,2.2v29.79c0,.81,0,1.62-.08,2.44a1.34,1.34,0,0,1-.84,1.11,8.37,8.37,0,0,1-3.15-2.3,12.76,12.76,0,0,1-.35-3.14c0-10.59,0-21.18,0-31.77,0-1.1-.31-2.34,1-3A21,21,0,0,1,28.54,311.56Z" transform="translate(-16.29 -72.76)"/><path class="cls-10" d="M427.76,549.35a1.5,1.5,0,0,1-.95-1.31c0-.81-.05-1.62-.05-2.43q0-14.62,0-29.24c0-.65,0-1.3,0-2a3.41,3.41,0,0,0-1-2.66c0-.25,0-.49,0-.73a1.63,1.63,0,0,1,.59-.92c1.06-.53,2.06-1.69,3.3-.31v34.28c0,.81,0,1.63.05,2.45a1.46,1.46,0,0,0,.92,1.33A6.85,6.85,0,0,1,427.76,549.35Z" transform="translate(-16.29 -72.76)"/><path class="cls-14" d="M779.32,345.81a1.47,1.47,0,0,1-.9-1.34c0-.81,0-1.63,0-2.44V308.09l2.47-2.35c1.17.61,1.1,1.75,1.11,2.78.11,10.45.08,20.89,0,31.34,0,1.24-.52,2.39-.54,3.62A5.63,5.63,0,0,1,779.32,345.81Z" transform="translate(-16.29 -72.76)"/><path class="cls-15" d="M781.45,343.48a2.7,2.7,0,0,1-.59-1.58c0-.4,0-.81,0-1.22q0-17.48,0-34.94l2.4-3.14c1.38.71,1.19,2.07,1.17,3.23-.17,11.13.7,22.28-.63,33.39a5.93,5.93,0,0,0,0,.73A8.22,8.22,0,0,1,781.45,343.48Z" transform="translate(-16.29 -72.76)"/><path class="cls-16" d="M20.21,304.66a10.71,10.71,0,0,1,2,2.23,5.1,5.1,0,0,1,1.44,4c-.05,10.54,0,21.07,0,31.61,0,1.15.35,2.57-1.46,2.82a9.41,9.41,0,0,1-2.49-2.91c-.44-4.22-.16-8.45-.19-12.67,0-7.4,0-14.79,0-22.19C19.48,306.55,19.19,305.43,20.21,304.66Z" transform="translate(-16.29 -72.76)"/><path class="cls-17" d="M783.78,340a3,3,0,0,1-.49-1.61c0-.74,0-1.47,0-2.2q0-15.06,0-30.11c0-1.15,0-2.29,0-3.43l.23-.49a.84.84,0,0,1,.28-.41l0,0a1,1,0,0,0,.42-.69,8.75,8.75,0,0,1,1-2.85c.21-.2.36-.18.46.11l0,6.11c0,8.88,0,17.77,0,26.65a40.06,40.06,0,0,1-.52,5.59,3.64,3.64,0,0,1-.37.9c-.34.31-.27.77-.45,1.15a.43.43,0,0,1-.08.33c-.29.27-.19.71-.46,1Z" transform="translate(-16.29 -72.76)"/><path class="cls-18" d="M16.84,298.15a9.36,9.36,0,0,1,1,2.85,1.32,1.32,0,0,0,.4.68l0,0c.32.23.2.71.53.93v0a9.18,9.18,0,0,1,.76,4.19c-.1,10.09,0,20.18-.07,30.27,0,1,.57,2.52-1.22,2.88h0c-.26-.29-.16-.75-.46-1a.23.23,0,0,1-.07-.27c-.15-.4-.11-.87-.45-1.19a3.13,3.13,0,0,1-.4-.88,39.76,39.76,0,0,1-.49-4.62q0-16.65,0-33.31c0-.16,0-.32,0-.49S16.67,297.9,16.84,298.15Z" transform="translate(-16.29 -72.76)"/><path class="cls-19" d="M22.17,345.33a2.67,2.67,0,0,0,.46-1.37q0-1,0-1.95,0-15.63,0-31.26a11.2,11.2,0,0,0-.44-3.86,8,8,0,0,1,2.42,2.1q0,15.74,0,31.49c0,1.46,0,2.93,0,4.39a3.17,3.17,0,0,1-.63,2.06A4.34,4.34,0,0,1,22.17,345.33Z" transform="translate(-16.29 -72.76)"/><path class="cls-20" d="M18.23,340a3,3,0,0,0,.49-1.62c0-.73,0-1.46,0-2.2V306.06c0-1.14,0-2.28,0-3.43l1.45,2v33.95c0,.74,0,1.47,0,2.2a2.82,2.82,0,0,1-.51,1.61A6.31,6.31,0,0,1,18.23,340Z" transform="translate(-16.29 -72.76)"/><path class="cls-21" d="M785.62,298.23a1.2,1.2,0,0,1-.46-.11,6.54,6.54,0,0,1,.41-2.77A8.2,8.2,0,0,1,785.62,298.23Z" transform="translate(-16.29 -72.76)"/><path class="cls-22" d="M16.84,298.15l-.22.05h-.23a8.05,8.05,0,0,1,.05-2.77A6,6,0,0,1,16.84,298.15Z" transform="translate(-16.29 -72.76)"/><path class="cls-5" d="M383.06,552.79a2.19,2.19,0,0,1,1.52.47A2.37,2.37,0,0,1,383.06,552.79Z" transform="translate(-16.29 -72.76)"/><path class="cls-20" d="M17.25,337.49a1.85,1.85,0,0,1,.45,1.19A1.64,1.64,0,0,1,17.25,337.49Z" transform="translate(-16.29 -72.76)"/><path class="cls-15" d="M784.32,338.63a1.8,1.8,0,0,1,.45-1.15A1.61,1.61,0,0,1,784.32,338.63Z" transform="translate(-16.29 -72.76)"/><path class="cls-20" d="M17.77,339l.46,1A1.16,1.16,0,0,1,17.77,339Z" transform="translate(-16.29 -72.76)"/><path class="cls-15" d="M783.78,340l.46-1A1.14,1.14,0,0,1,783.78,340Z" transform="translate(-16.29 -72.76)"/><path class="cls-23" d="M238.39,202.57c.86.45,1.75.87,2.59,1.36l38.64,22.29c0,1.56-1.3,1.47-2.29,1.58a72.54,72.54,0,0,0-9.38,1.56c-2.59.94-5.31,1.51-7.78,2.78l-.56.41a7.63,7.63,0,0,1-1.18.67,45.24,45.24,0,0,0-4.35,2.58l-.46.47-.41.51c-.94.89-1.76,1.9-2.61,2.88-1.25.52-1.4,1.63-1.48,2.78-2.27,3.27-2.26,5.23.06,8.54.62,1.25.26,3,1.9,3.71a6.14,6.14,0,0,1,.62.73l.48.4.54.31c.52.48.95,1.07,1.51,1.51a5.65,5.65,0,0,0,.73.56,6,6,0,0,0,.58.25,17.75,17.75,0,0,0,4.17,2.48,10.87,10.87,0,0,1,1.16.63c.22.08.43.15.65.21a52.19,52.19,0,0,0,8.87,2.88,56.63,56.63,0,0,0,22.83-.09,6.69,6.69,0,0,0,.75-.16,5.67,5.67,0,0,1,2.14-.57,53.8,53.8,0,0,0,7.59-2.57,33.48,33.48,0,0,0,5.27-3.38l.6-.25.56-.32c.8-.9,1.48-1.9,2.32-2.76,1.85-1,1.85-3,2.5-4.6,1.21-3,2.09-3.44,4.91-1.83,14.6,8.35,29.14,16.81,43.73,25.19,10.27,5.9,20.47,11.9,30.77,17.75,1.44.82,3.21,1.34,3.91,3.13a3.74,3.74,0,0,1-2.13,3c-15.28,8.73-30.5,17.57-45.75,26.35-10.94,6.3-21.9,12.58-32.79,19-1.2.7-2.46,1.27-3.59,1.91,1.85-.56,3.79-.13,5.73-.09a50.36,50.36,0,0,1,12,1.74,3.8,3.8,0,0,1,.75.13,10.93,10.93,0,0,1,1.37.44,13,13,0,0,1,3.33,1.52q.28.15.57.27a4.9,4.9,0,0,0,.92.21,4.37,4.37,0,0,1,.62.17,5.46,5.46,0,0,1,.85.48c1.07.93,2.29,1.66,3.42,2.49l.62.3a1.69,1.69,0,0,1,.57.42c1.22,1.48,2.28,3.09,3.58,4.5,1.83,5.16,2.09,10.16-1.52,14.76-2,1.15-3.09,3.23-4.94,4.52-2.29.6-4,2.42-6.31,3-2.9.86-5.66,2.19-8.76,2.3a57.71,57.71,0,0,1-14.08.55,6.59,6.59,0,0,1-2.8-.71,1.51,1.51,0,0,1-.7-1.08,30.22,30.22,0,0,1-2.89-4.53c-.28-.59-.53-1.2-.8-1.79a9.85,9.85,0,0,1-.73-6c.52-3.14.85-6.31,1.26-9.47.12-.89.24-1.78.37-2.67a13.37,13.37,0,0,0,0-4.14c-.64-4-1.22-7.91-1.82-11.87-.06-.4-.13-.81-.18-1.21a12.59,12.59,0,0,0-1.17-3.72q-3-6.42-6-12.89a14.24,14.24,0,0,0-1.95-3.09q-4.95-6.08-9.85-12.2a20.85,20.85,0,0,0-3.1-3.13q-13.35-11-26.68-22a26.61,26.61,0,0,1-4-4c-3.21-4-6.46-8-9.7-12a13,13,0,0,1-1.81-2.9q-3.12-6.78-6.3-13.55a11.55,11.55,0,0,1-1-3.26c-.69-4.77-1.44-9.53-2.18-14.29a6.07,6.07,0,0,1,0-2c.78-5.08,1.56-10.17,2.31-15.26a8.72,8.72,0,0,1,.8-2.3q2.24-4.77,4.45-9.55l0-.06Z" transform="translate(-16.29 -72.76)"/><path class="cls-24" d="M309.55,380.62a56.65,56.65,0,0,0,12.34.49c1-.06,1.94-.19,2.9-.29l2.41-.23a2,2,0,0,1,.17,2.76c-2.33,1.38-5,1-7.52,1.4s-5-.64-7.49-.13c-1.8-.55-4,.05-5.39-1.72-.42-1.22-1-2.54,1.24-2.31a.44.44,0,0,1,.35.06C308.9,381,309.22,380.64,309.55,380.62Z" transform="translate(-16.29 -72.76)"/><path class="cls-25" d="M308.21,380.59l-.42.18a.9.9,0,0,0-.45,1.14,3.71,3.71,0,0,0,.24.63c-.19.39-.51.78-.9.75-2.8-.21-5.7-.22-7.73-2.68a2.28,2.28,0,0,1,1.29-2.35,2,2,0,0,1,.49.07,47.39,47.39,0,0,0,6.82,1.95A3.59,3.59,0,0,1,308.21,380.59Z" transform="translate(-16.29 -72.76)"/><path class="cls-26" d="M286.46,372l.06-4.41a4.49,4.49,0,0,1,.37-2.14,31.08,31.08,0,0,0,2.09,4.86c.74,1.41,2.27,2.75.38,4.39a2.15,2.15,0,0,1-.83.2,2.1,2.1,0,0,1-1.19-.4C286.67,373.78,286,373.07,286.46,372Z" transform="translate(-16.29 -72.76)"/><path class="cls-27" d="M300.24,378.26l0,.44a1.49,1.49,0,0,1-1.11,1.5,1.56,1.56,0,0,1-.54.48,2.07,2.07,0,0,1-1.47.05c-1.45-.73-3.34-.93-3.72-3,.17-.93.43-1.81,1.52-2.1Z" transform="translate(-16.29 -72.76)"/><path class="cls-28" d="M294.89,375.63c0,.24-.05.47-.08.71a1.53,1.53,0,0,1-1.08,1.41c-2,1-2.91,0-3.44-1.8.14-1.09.12-2.27,1.58-2.55A13.49,13.49,0,0,1,294.89,375.63Z" transform="translate(-16.29 -72.76)"/><path class="cls-29" d="M291.87,373.4c-.16.42-.33.84-.47,1.27a2.69,2.69,0,0,1-.69,1.16c-1.48.49-2.41.26-2.13-1.59a1.32,1.32,0,0,0,.81-1.35c-.09-.88-.27-1.74-.41-2.6a9.6,9.6,0,0,1,1.94,2.13.29.29,0,0,1,.29.3Z" transform="translate(-16.29 -72.76)"/><path class="cls-25" d="M309.55,380.62a.66.66,0,0,1-1,0l.7-.29A.28.28,0,0,1,309.55,380.62Z" transform="translate(-16.29 -72.76)"/><path class="cls-20" d="M18.77,302.65l-.53-.93A1.22,1.22,0,0,1,18.77,302.65Z" transform="translate(-16.29 -72.76)"/><path class="cls-20" d="M18.22,301.68l-.4-.68A.86.86,0,0,1,18.22,301.68Z" transform="translate(-16.29 -72.76)"/><path class="cls-28" d="M291.21,372.72a2.06,2.06,0,0,1-.29-.3A.34.34,0,0,1,291.21,372.72Z" transform="translate(-16.29 -72.76)"/><path class="cls-2" d="M238.36,202.59l0,.06Z" transform="translate(-16.29 -72.76)"/><path class="cls-23" d="M519,228c.86-.46,1.73-.9,2.58-1.39l40-23.08c.64-.37,1.27-.74,1.93-1.07a2.29,2.29,0,0,1,.7-.14q2.34,5,4.67,10a8.21,8.21,0,0,1,.73,2.33c.4,2.74.85,5.48,1.28,8.22.29,1.86.54,3.72.86,5.57a13.14,13.14,0,0,1,0,4.38q-1,6.18-1.87,12.35a17,17,0,0,1-1.45,4.9c-2,4.19-4,8.42-5.89,12.65a14.23,14.23,0,0,1-1.93,3.1q-5.19,6.36-10.32,12.77a18,18,0,0,1-2.59,2.58q-13.63,11.22-27.25,22.43A23,23,0,0,0,517,307c-2.95,3.7-5.9,7.41-8.94,11a20.33,20.33,0,0,0-3.57,6.09,1.2,1.2,0,0,1-.09,1c-2.25,1.68-5.06,2.12-7.51,3.38-.16.12-.33.23-.49.36s-.4.45-.63.66l-.5.35a6.17,6.17,0,0,1-.83.37,10.79,10.79,0,0,0-2.49,1.86l-.57.31-.54.37c-.78.8-1.21,1.9-2.2,2.51-1.25.77-1.11,2.22-1.67,3.33s-.62,2.34-1.62,3.15c-1.18.66-2.17.15-3.2-.44q-23.94-13.78-47.85-27.62c-9.11-5.25-18.18-10.57-27.35-15.71a26.53,26.53,0,0,1-3.17-2.28c-1.22-1.85.16-2.73,1.44-3.46,5.52-3.15,11-6.37,16.51-9.53,13.5-7.74,27-15.55,40.44-23.32q9.75-5.61,19.47-11.24c2.27-.83,3.95-2.74,6.24-3.37a46.87,46.87,0,0,1-13.2-.7,10.35,10.35,0,0,0-1.91-.17,39.66,39.66,0,0,1-6.38-2.09c-.24,0-.47,0-.71,0a6.53,6.53,0,0,1-1.3-.48,14.85,14.85,0,0,0-2.2-1.48c-.22,0-.44-.09-.66-.11a2.7,2.7,0,0,1-1.24-.59c-1-.95-1.82-2.08-3.26-2.44a23.85,23.85,0,0,0-2.87-3.24,47.57,47.57,0,0,0-2.09-4.87c-.16-2.91-.33-5.83,1-8.58,1.79-2,3.05-4.43,5.4-5.9,1.83-.82,3.22-2.33,5-3.19.33-.16.67-.28,1-.44a2.57,2.57,0,0,1,.72-.2,47.5,47.5,0,0,1,8-2.33c7.79-1.52,15.54-1.66,23.23.53a19,19,0,0,1,7.93,2.88c.23.06.45.13.68.17a2.84,2.84,0,0,1,1.33.44c1.09.8,2.07,1.72,3.2,2.47l.68.14a1.9,1.9,0,0,1,.63.33l.26.23a4.53,4.53,0,0,1,.43.55,23.4,23.4,0,0,0,3,4.07c1.14,1.9,1.11,4,1.19,6.14,0,.75-.57,1.93,1,2A2.53,2.53,0,0,1,519,228Z" transform="translate(-16.29 -72.76)"/><path class="cls-30" d="M504.12,324.69c.07-.24.11-.49.41-.56A11.48,11.48,0,0,0,506,324c1.2-.21,2.39-.47,3.58-.72,1.68-.35,3.38-.45,5.07-.65a45.1,45.1,0,0,1,7.79-.24A51.51,51.51,0,0,1,533.24,324a2.49,2.49,0,0,1,.43.22c.87.8,2.46,1.25,1.36,2.95a2.41,2.41,0,0,1-2.32.28,54.91,54.91,0,0,0-25.43,0,3.38,3.38,0,0,1-1.45.11C504.4,327.07,504.19,325.92,504.12,324.69Z" transform="translate(-16.29 -72.76)"/><path class="cls-31" d="M522.22,363a1.42,1.42,0,0,0-.74,1.17c0,.48,0,1-.05,1.44a1.8,1.8,0,0,1-2.26.17,45.8,45.8,0,0,1-4.84-2.81c-.82-.58-1.72-1.17-1.36-2.32s1.47-1.14,2.44-1.21a44.7,44.7,0,0,1,4.63-.06,64.8,64.8,0,0,0,8.24-.7,23.68,23.68,0,0,1,2.52-.28,2.22,2.22,0,0,1,.85.16c1.94,1.47,2,1.77.09,2.89a28.05,28.05,0,0,1-6.68,1.07A6.7,6.7,0,0,0,522.22,363Z" transform="translate(-16.29 -72.76)"/><path class="cls-32" d="M550.17,332.59c.58.57,1.19,1.1,1.73,1.7a3.6,3.6,0,0,1,.92,1.69,32.85,32.85,0,0,1-.06,13.25,4.84,4.84,0,0,1-1.42,2.06c-.89-.48-.8-1.35-.76-2.13a7.78,7.78,0,0,0-.75-3.74c-.17-2.67.14-5.41-1.29-7.88a5.09,5.09,0,0,1-.32-.76,2.22,2.22,0,0,1,0-.85,11.31,11.31,0,0,0,.29-2.09C548.6,333,548.93,332.08,550.17,332.59Z" transform="translate(-16.29 -72.76)"/><path class="cls-33" d="M552.76,349.23a3.88,3.88,0,0,1-.4-1.14c0-3.58,0-7.16,0-10.74a2.55,2.55,0,0,1,.48-1.37,8.61,8.61,0,0,1,2,5.07,12.25,12.25,0,0,1-1.44,7.45A4.72,4.72,0,0,1,552.76,349.23Z" transform="translate(-16.29 -72.76)"/><path class="cls-34" d="M535.14,326.75a6.46,6.46,0,0,1-1.47-2.58,6.25,6.25,0,0,1,1,.09,40.9,40.9,0,0,1,6.87,2.42,4.57,4.57,0,0,1,.58.43,2.68,2.68,0,0,1-1,2.48C538.46,330,535.85,328.73,535.14,326.75Z" transform="translate(-16.29 -72.76)"/><path class="cls-35" d="M543,357.58a13.61,13.61,0,0,1-4.73,2c-.5.33-1.2,0-1.65.49h0c-1.58.44-1.68-.58-1.67-1.7a2.74,2.74,0,0,1,.25-.83,2.57,2.57,0,0,1,1.27-1.05c1.66-.58,3.1-1.94,5.07-1.39A2.63,2.63,0,0,1,543,357.58Z" transform="translate(-16.29 -72.76)"/><path class="cls-36" d="M541,329.18a2.37,2.37,0,0,1,1.1-2.07,11,11,0,0,1,4.38,2.47c-.15,1.41,1.88,2.46.65,4a1.64,1.64,0,0,1-2.18-.26c-1.14-1-2.51-1.72-3.61-2.78a1.75,1.75,0,0,1-.32-1C541,329.42,541,329.3,541,329.18Z" transform="translate(-16.29 -72.76)"/><path class="cls-37" d="M546.93,333.44l-.69-1.46a2.15,2.15,0,0,1,.23-2.4,9.44,9.44,0,0,1,3.7,3,1.42,1.42,0,0,0-.76,1.18c0,.9,0,1.8,0,2.7C547.16,336.28,546.59,335.57,546.93,333.44Z" transform="translate(-16.29 -72.76)"/><path class="cls-38" d="M543,357.58c-1-.26-1.28-1-1.48-1.9,0-.23,0-.47,0-.71a1.92,1.92,0,0,1,.5-1c1.18-.76,2.24-2,3.84-.89.83.81.35,1.74.26,2.64A7.21,7.21,0,0,1,543,357.58Z" transform="translate(-16.29 -72.76)"/><path class="cls-39" d="M546.11,355.74a3.59,3.59,0,0,1-.71-2.63c0-2.28.44-2.64,2.74-2.44,1.34,1.07.31,2.31.24,3.49A5.31,5.31,0,0,1,546.11,355.74Z" transform="translate(-16.29 -72.76)"/><path class="cls-40" d="M535.62,358.16l0,.47a1.48,1.48,0,0,0,1,1.46,11.65,11.65,0,0,1-4.9,1.34,8.19,8.19,0,0,0,.59-.73.68.68,0,0,0-.36-1,7.17,7.17,0,0,0-.91-.24C532.18,357.43,533.61,357,535.62,358.16Z" transform="translate(-16.29 -72.76)"/><path class="cls-41" d="M551,344.83a4.54,4.54,0,0,1,.37,2.12c0,1.45,0,2.89,0,4.34a1.53,1.53,0,0,1-.94.95c-1,.09-1.24-.59-1.29-1.36a13,13,0,0,0-.31-2.4C549,346.93,549,345.31,551,344.83Z" transform="translate(-16.29 -72.76)"/><path class="cls-32" d="M549.75,348.09l.12,2.61a2.78,2.78,0,0,0,.53,1.54,4,4,0,0,1-1.49,1.44,3.09,3.09,0,0,0-.54.48h0a2.76,2.76,0,0,1-.48-1.55c0-.62,0-1.25,0-1.88a3.38,3.38,0,0,1-.11-.34,1.74,1.74,0,0,1-.12-.71C547.94,348.6,548.49,347.89,549.75,348.09Z" transform="translate(-16.29 -72.76)"/><path class="cls-40" d="M536.6,360.09a2.16,2.16,0,0,1,1.65-.49A2.33,2.33,0,0,1,536.6,360.09Z" transform="translate(-16.29 -72.76)"/><path class="cls-15" d="M784.19,301l-.42.69A.94.94,0,0,1,784.19,301Z" transform="translate(-16.29 -72.76)"/><path class="cls-39" d="M548.37,354.16l.54-.48A.73.73,0,0,1,548.37,354.16Z" transform="translate(-16.29 -72.76)"/><path class="cls-15" d="M783.75,301.7l-.28.41Z" transform="translate(-16.29 -72.76)"/><path class="cls-23" d="M562.85,199.3a6.79,6.79,0,0,1-.88.82c-.46.33-1,.59-1.47.88l-39.32,22.68a7.29,7.29,0,0,1-2.19,1.06c-1.09-.11-1.41-.86-1.55-1.81a3.69,3.69,0,0,0-1.13-2.57c-1.23-1.05-1.3-2.91-2.71-3.83-.86-.4-1.5-1.15-2.37-1.54a2.8,2.8,0,0,1-.49-.36l-.38-.45a4.43,4.43,0,0,0-.69-.54c-.19-.08-.37-.16-.56-.22a14.44,14.44,0,0,0-2.72-1.5,5.59,5.59,0,0,1-.84-.52c-.19-.14-.37-.28-.57-.4a80.1,80.1,0,0,0-8.15-2.69,58.31,58.31,0,0,0-22.68-.61c-1,.19-2,.52-3,.79a36.24,36.24,0,0,0-6.15,1.65l-.57.38c-.39.22-.83.36-1.24.54-1.5.74-3.07,1.33-4.57,2.08a27.28,27.28,0,0,1-4.75,3.76c-1,1.06-1.2,2.66-2.4,3.58-1.81,2.55-1.82,8.2,0,10.94.6.91.91,2.06,2.08,2.51.63.73.63,1.93,1.74,2.3a5,5,0,0,1,1.92,1.21c.24.2.49.41.74.6a5.68,5.68,0,0,0,.55.28c.68.28,1.22.81,1.91,1.07a3.85,3.85,0,0,1,.8.5,3.75,3.75,0,0,0,.51.38,23.15,23.15,0,0,0,2.64,1.07,9.37,9.37,0,0,1,1.22.53,3.64,3.64,0,0,0,.63.3c2.37.61,4.7,1.33,7.07,1.91,2.15.16,4.26.65,6.42.74a2.28,2.28,0,0,1,2.27,1.45c-.14,1.76-1.6,2.36-2.83,3.07Q451.79,265,424.56,280.81c-7,4.05-14.05,8-21,12.11a5.27,5.27,0,0,1-3.26.75c-2.3-.46-4.12-1.93-6.07-3.06-15.15-8.8-30.36-17.5-45.51-26.28-10.72-6.21-21.49-12.33-32.17-18.6a4.87,4.87,0,0,0-2.38-.95c-.2,1.75.16,3.58-.54,5.26-1.28,1.46-1.49,3.48-2.57,5.05a3,3,0,0,1-.41.59,2.08,2.08,0,0,1-.59.43c-2,1.32-3.52,3.38-5.79,4.41a32.59,32.59,0,0,1-10.69,3.78c-7.77,2.14-15.56,1.71-23.35.17a26.94,26.94,0,0,1-8.39-2.88,6.09,6.09,0,0,0-.63-.3c-.42-.16-.89-.18-1.31-.38a31.89,31.89,0,0,1-5-3.76,2.06,2.06,0,0,1-.64-.24,2.82,2.82,0,0,1-.53-.44l-.22-.26a2.85,2.85,0,0,1-.31-.6,3.9,3.9,0,0,0-1.45-2.14,1.66,1.66,0,0,1-.34-.57c-.15-.42-.36-.81-.51-1.23-.23-.67-.83-1.12-1-1.8a14.45,14.45,0,0,1-.38-1.85,25.75,25.75,0,0,1,2.55-8.85,4,4,0,0,1,.37-.68,4.44,4.44,0,0,1,.5-.56c2.4-1.08,3.58-3.67,5.91-4.84a3.28,3.28,0,0,1,1-.47l.72-.15a33.85,33.85,0,0,1,7.56-3.09c3-.59,6-1.45,9.12-1.44,1,0,2.14-.29,2.95.68,1.79.07,3.58.15,5.38.2.89,0,1.79,0,2.68,0,.2,0,.3-.14.29-.34s0-.17-.09-.2c-.54-.36-1.07-.73-1.64-1.06L249,205.46c-2.54-1.47-5.09-2.93-7.63-4.41a5,5,0,0,1-1.75-1.3l.81-1.79a8.77,8.77,0,0,1,1.16-1.86q5.64-6.94,11.26-13.91a10.88,10.88,0,0,1,1.56-1.55q7.65-6.33,15.33-12.63a14.57,14.57,0,0,1,2-1.36q9.33-5.42,18.68-10.78a21.55,21.55,0,0,1,2.65-1.28q10.67-4.34,21.35-8.62a30.88,30.88,0,0,1,3.24-1.1c7.88-2.14,15.77-4.24,23.65-6.38a46.27,46.27,0,0,1,4.81-.9c3.63-.59,7.27-1.12,10.9-1.68l11.13-1.73a60,60,0,0,1,6.82-.72c5.22-.21,10.44-.53,15.67-.8,1.79-.09,3.59-.08,5.39-.23a73.87,73.87,0,0,1,10.52,0c5.79.36,11.59.61,17.38.9,1,0,2,.11,2.94.12a50.25,50.25,0,0,1,8,.82c3.63.61,7.27,1.12,10.9,1.68s7.26,1.17,10.9,1.67a83,83,0,0,1,10,2.37c6,1.57,12,3.21,18,4.82a30.81,30.81,0,0,1,3.48,1.15q10.56,4.29,21.12,8.54a27.25,27.25,0,0,1,3.31,1.6q8.79,5.1,17.61,10.17a24.21,24.21,0,0,1,3.43,2.35q6.88,5.72,13.81,11.38a20.85,20.85,0,0,1,3.1,3.13q4.74,5.94,9.55,11.82A16.49,16.49,0,0,1,562.85,199.3Z" transform="translate(-16.29 -72.76)"/><path class="cls-1" d="M549.75,348.09a5.07,5.07,0,0,0-1.41,2.07,3,3,0,0,1-.44.56h0a9.89,9.89,0,0,0-2.49,2.38,12.48,12.48,0,0,0-2.94,2,1,1,0,0,1-.69.48.26.26,0,0,0-.27.1,29.1,29.1,0,0,0-4.45,2c-.3.2-.7.13-1,.37a.72.72,0,0,0-.45.11,34.44,34.44,0,0,0-4.56,1.32h-.17l-.15.06c-.65.53-1.51.06-2.19.46-1.21.09-2.43.13-3.63.27a34.12,34.12,0,0,1-4.85.25c-1.7-.05-3.4-.05-5.1-.05a9.73,9.73,0,0,0-1.2.11.32.32,0,0,0-.17.14.29.29,0,0,0,0,.43c.06.06.1.14.17.17l7.38,4.21a1.68,1.68,0,0,0,.24.07c.68.44,1.34.91,2,1.32l67.39,38.87c2.26,1.3,4.51,2.61,6.78,3.9.56.32,1.16.58,1.75.87a4.36,4.36,0,0,1,.23.42.49.49,0,0,1-.1.66c-.75.48-1.51,1-2.29,1.41q-10.59,6.13-21.21,12.24L503.68,467l-71.91,41.5c-.7.41-1.38.86-2.07,1.29a13,13,0,0,0-3,1.51.59.59,0,0,0-.39.26l-.51.19a20.93,20.93,0,0,0-3.92,1.52,38.26,38.26,0,0,0-5.53,1.67,5.72,5.72,0,0,0-.72,0c-2.63.47-5.25,1-7.91,1.21a3.07,3.07,0,0,0-.68.24l-.24,0c-4.07.13-8.14.07-12.21,0a5.37,5.37,0,0,0-1.14-.31c-2-.12-3.93-.56-5.89-.83a4.46,4.46,0,0,0-1.91-.27l-.16-.15-.22,0a20,20,0,0,0-4.09-1.19l-.85-.18-.56-.29a9.47,9.47,0,0,0-2.51-1l-5.38-2.54c-.68-.44-1.35-.92-2.05-1.32L253.93,441.52,202.79,412c-.35-.2-.72-.38-1.08-.57a4.8,4.8,0,0,1,1.75-1.31l11.88-6.85q32.44-18.74,64.9-37.44c.7-.41,1.44-.76,2.18-1.1.09-.05.36.08.4.18.26.68.48,1.38.71,2.07a11.54,11.54,0,0,0,2.93,5,6.15,6.15,0,0,0,1.69,1.83.44.44,0,0,0,.34.34l.09.09a5.41,5.41,0,0,0,2.13,1.59,6.49,6.49,0,0,0,3,1.92,10.88,10.88,0,0,0,3.93,1.94c.34.22.79.15,1.11.42a.39.39,0,0,0,.33.09c.51.23,1,.51,1.52.69a31.36,31.36,0,0,0,7,1.65,9.61,9.61,0,0,0,2.76.51,5.56,5.56,0,0,1,2.05.46c4.58,1.71,8.19,5.18,12.69,7.05a2.82,2.82,0,0,1,1.69,1.95c1,2.09.55,4.31.63,6.48s-.07,4.37.1,6.56a3.44,3.44,0,0,0,1.28,2.42c1.41,1.24,3.14,2.3,3.53,4.39.12,1.41-1,2.1-1.72,3.05s-2.34,1.5-2.56,3c.35,1.45,1.82,1.93,2.63,3,.66.87,1.68,1.52,1.65,2.8-.07,1.94-1.73,2.77-2.83,4-.5.56-1.5.77-1.24,1.83.53,1.45,2,2,2.89,3.14.7.88,1.64,1.59,1.56,2.87-.55,1.82-2.13,2.8-3.36,4.05-.45.46-1.07.75-1,1.53.42,1.53,1.88,2.18,2.78,3.3.65.82,1.67,1.37,1.78,2.56a7,7,0,0,1,.27,1.44c0,3.72.09,3.61,3.46,4.94,6.5,2.56,13.18,4.6,19.75,6.95a1.69,1.69,0,0,1,1.06.47c5.93,2.7,11.45,6.2,17.4,8.88a8.64,8.64,0,0,0,3.61.48q23,0,46,0a11.51,11.51,0,0,0,5.15-1.26c4.69-2.28,9-5.28,14-7.06a3.86,3.86,0,0,0,1.53-1.19A65.35,65.35,0,0,1,455,457.8c4.79-1.57,9.62-3,14.31-4.85a11.63,11.63,0,0,0,5.43-5.26c-.17-1.36-1.48-1.81-2.2-2.73s-1.86-1.59-1.85-3c.26-2,1.78-3.22,3-4.6.43-.48,1.1-.74,1.05-1.52-.32-1.35-1.61-1.89-2.37-2.86s-1.7-1.48-1.69-2.75c-.18-2,1.36-2.95,2.45-4.19.56-.63,1.63-.85,1.6-1.95-.35-1.46-1.75-2.05-2.59-3.11-.64-.81-1.6-1.39-1.82-2.52-.08-1.9,1.55-2.68,2.52-3.9.57-.72,1.77-1,1.67-2.18-.5-1.47-2-2-2.87-3.17-.64-.82-1.51-1.48-1.44-2.67.32-2.15,2.11-3.19,3.5-4.46a4.08,4.08,0,0,0,1.53-2.33c.79-2.41,0-5,.85-7.39.61-1.8,2.39-2.12,3.79-2.83,5.33-2.67,10.11-6,13.66-10.9,2.73-3.75,4.36-7.75,3.14-12.59-.89-3.56-1-7.27-1.73-10.88a13.09,13.09,0,0,1,.26-4.14c.51-3.88,1.2-7.74,1.7-11.63s2.5-7.39,4.5-10.77c.18-.35.37-.69.53-1a1.88,1.88,0,0,1,.4-.68,2.13,2.13,0,0,1,2.89-.27l5-1.08a40.69,40.69,0,0,1,6.78-.86,54.54,54.54,0,0,1,11.7.62c1.76.29,3.49.79,5.24,1.18.39.09.8.16,1.2.23a11,11,0,0,0,1.09.53,32.83,32.83,0,0,1,4.06,1.7,4,4,0,0,0,.7.2v0c.29.28.78.17,1,.55l4.94,3.73,2.45,3v0a1.75,1.75,0,0,1,.41.68c.12.29.23.59.34.88a11.05,11.05,0,0,1,.84,5.59,11.75,11.75,0,0,0,0,1.19Z" transform="translate(-16.29 -72.76)"/><path class="cls-42" d="M280.15,228.62a24.19,24.19,0,0,1-2.65.39,46.25,46.25,0,0,0-8.67,1.41c-.31.07-.64.1-1,.14-.72-.51-.68-1.27-.66-2a1.38,1.38,0,0,1,.42-.24c2-.41,4-.86,6-1.18,1.53-.24,3.08-.32,4.62-.47a2.23,2.23,0,0,0,1.37-.43,1.73,1.73,0,0,1,.5,1.25C280.14,227.85,280.14,228.23,280.15,228.62Z" transform="translate(-16.29 -72.76)"/><path class="cls-43" d="M517,219.77a4.66,4.66,0,0,1,1.2,2.25l.78,2.72c0,1.08,0,2.16,0,3.24a5.41,5.41,0,0,1-2,1.11c-1.65-1.28-2-8-.43-9.29C516.63,219.71,516.84,219.78,517,219.77Z" transform="translate(-16.29 -72.76)"/><path class="cls-5" d="M385.24,514.87a.32.32,0,0,1,.38.12Z" transform="translate(-16.29 -72.76)"/><path class="cls-7" d="M379.74,513.21l.56.29Z" transform="translate(-16.29 -72.76)"/><path class="cls-11" d="M426.28,511.57l.39-.26A2.65,2.65,0,0,1,426.28,511.57Z" transform="translate(-16.29 -72.76)"/><path class="cls-2" d="M312.56,249.65c.08-.4.2-.79.25-1.19a9.88,9.88,0,0,0-.25-4.36,8.63,8.63,0,0,1-.29-1.43.21.21,0,0,1,.09-.21c.13-.06.32-.17.42-.13.59.28,1.16.58,1.73.91l34.55,19.93,49,28.26c.77.45,1.5,1,2.26,1.44,1.56.78,1.8,2,1.15,3.5a2.35,2.35,0,0,1-2.67,1.42c-1.9-.71-.84-2.24-.95-3.45-.93-.51-1.87-1-2.78-1.52l-75.46-43.55-1.28-.73c-1.1-.61-1.42-.83-1.81.71a13.91,13.91,0,0,1-3.41,6.39c-1.24-.56-1.15-1.6-.94-2.66A14.34,14.34,0,0,0,312.56,249.65Z" transform="translate(-16.29 -72.76)"/><path class="cls-3" d="M397.81,294.34a2.24,2.24,0,0,1,.49,1.33,2.93,2.93,0,0,0,.47,1.6c.48,1.43-.67,1.82-1.54,2.34-6.91,4.18-14,8.14-21,12.17C362.85,319.51,349.47,327.34,336,335c-4.54,2.57-8.87,5.51-13.68,7.61a2.68,2.68,0,0,0-1.22,1.13c-.48.63-1.23,1-1.73,1.57a4.44,4.44,0,0,1-.49.07,44,44,0,0,0-6.59.36,7.91,7.91,0,0,1-1.46,0c-.06,0-.17-.08-.17-.12s0-.36.12-.43c.54-.36,1.09-.71,1.65-1L369.92,311,395.81,296a13.54,13.54,0,0,0,1.46-.89A3.1,3.1,0,0,0,397.81,294.34Z" transform="translate(-16.29 -72.76)"/><path class="cls-44" d="M269.82,263.42a9.89,9.89,0,0,1,1.45.15,42.74,42.74,0,0,0,7,.95,62.5,62.5,0,0,0,9.77-.21c1.3-.12,2.57-.44,3.86-.64.64-.11,1.29-.15,1.94-.23.71.67.5,1.36,0,2a13.37,13.37,0,0,1-4,.89,52.65,52.65,0,0,1-10.75.47,48.86,48.86,0,0,1-8.25-1,8.19,8.19,0,0,1-1.14-.41C269.63,264.78,269.08,264.07,269.82,263.42Z" transform="translate(-16.29 -72.76)"/><path class="cls-45" d="M345.87,371.4a13.54,13.54,0,0,1,.89-1.46,11.18,11.18,0,0,0,1.83-4,9.83,9.83,0,0,0,.11-4.85,9.94,9.94,0,0,0-1.07-3,5.41,5.41,0,0,1-.38-.89c-.48-1.48-1.3-3,.74-4,2.5.22,3.4,1.23,3.52,3.92a5.55,5.55,0,0,0-.37,2.37,22.53,22.53,0,0,1-.08,8,3.76,3.76,0,0,0,.27,1.9c.59,2.05-.95,3.08-2.08,4.29a8.78,8.78,0,0,1-2.4,2,2.25,2.25,0,0,1-.85.12,1.9,1.9,0,0,1-.81-.31C343.65,373.84,345,372.66,345.87,371.4Z" transform="translate(-16.29 -72.76)"/><path class="cls-46" d="M250.68,248.21a2.44,2.44,0,0,1,.43,1.5c-.3,1.15.36,2.2.32,3.32,0,.92.27,2-.76,2.59A3.92,3.92,0,0,1,250,255a11.83,11.83,0,0,1-1.76-3.09,20.21,20.21,0,0,1,0-10.33,3.65,3.65,0,0,1,.29-.9c.4-.6.86-1.16,1.3-1.74,1.74.36,1.45,1.6,1.23,2.81C250.62,243.89,250.11,246,250.68,248.21Z" transform="translate(-16.29 -72.76)"/><path class="cls-47" d="M319.36,345.3c0-.39,0-.77,0-1.16a1.86,1.86,0,0,1,.55-1.23,21.31,21.31,0,0,1,10,.31,4.76,4.76,0,0,1,2.79,1.27c.72,1.12-.09,1.91-.61,2.75-1.12-.22-2.23-.42-3.34-.67a35.58,35.58,0,0,0-4.8-.79C322.42,345.66,320.89,345.46,319.36,345.3Z" transform="translate(-16.29 -72.76)"/><path class="cls-48" d="M293.89,265.48c0-.68,0-1.36,0-2,.82-.29,1.64-.63,2.49-.87a35.22,35.22,0,0,0,5.59-2.19c.71-.35,1.45-.66,2.18-1,1.11.84.18,1.75.1,2.63a5,5,0,0,1-1.67.94,27.68,27.68,0,0,1-6.18,2c-.6.47-1.44-.08-2,.46A.7.7,0,0,1,293.89,265.48Z" transform="translate(-16.29 -72.76)"/><path class="cls-49" d="M269.82,263.42c.33.7.56,1.39-.1,2.05-.48-.06-1-.07-1.45-.17a46.75,46.75,0,0,1-7.22-2.33,3,3,0,0,1-.59-.43c-.19-1-.16-1.83,1.06-2.08,1.26.48,2.51,1,3.79,1.43C266.8,262.42,268.31,262.91,269.82,263.42Z" transform="translate(-16.29 -72.76)"/><path class="cls-50" d="M267.21,228.54a5.77,5.77,0,0,1,.72.16c.69.25.83.7.41,1.31-.14.19-.31.37-.47.55-1.27.48-2.55.95-3.82,1.44a25.58,25.58,0,0,1-3.55,1.48,2.21,2.21,0,0,1-1.12-2c.63-.35,1.24-.73,1.89-1A25.37,25.37,0,0,1,267.21,228.54Z" transform="translate(-16.29 -72.76)"/><path class="cls-51" d="M250.68,248.21a3.46,3.46,0,0,1-.47-2.09V241a3.83,3.83,0,0,0-.43-2.1,6,6,0,0,1,.71-1.17,8.88,8.88,0,0,1,2.07-1.84,1.3,1.3,0,0,0,.58-.51h0c2.08.8,2.12,1.07.52,3.47v0a2.35,2.35,0,0,0-.43.6,4.93,4.93,0,0,1-.43.86,11.94,11.94,0,0,0-1.76,4,7.6,7.6,0,0,0-.22,1.43C250.72,246.59,250.71,247.4,250.68,248.21Z" transform="translate(-16.29 -72.76)"/><path class="cls-52" d="M253.63,238.88c.1-.38.19-.78.3-1.16a1.93,1.93,0,0,0-.82-2.31,1.59,1.59,0,0,1,.27-.39,21.48,21.48,0,0,1,4.69-3c.24-.32.7-.19,1-.46a.45.45,0,0,1,.34-.13,2.18,2.18,0,0,1,1.12,2l-.11.08h-.14a1.09,1.09,0,0,0-.71.48A55.91,55.91,0,0,0,253.63,238.88Z" transform="translate(-16.29 -72.76)"/><path class="cls-53" d="M327.2,382.63a2.2,2.2,0,0,1,0-2,1.72,1.72,0,0,1,.44-.2,53.22,53.22,0,0,0,7.19-2,5.78,5.78,0,0,1,.7-.14c.71.95.24,1.93.08,2.91C333.22,383.44,329.16,384.14,327.2,382.63Z" transform="translate(-16.29 -72.76)"/><path class="cls-54" d="M304.23,262a1.78,1.78,0,0,1-.38-1.74c.09-.3.19-.59.28-.89a4.79,4.79,0,0,1,.53-.48,22.52,22.52,0,0,0,4.29-3.43,4.07,4.07,0,0,1,.6-.38c1.7.93.56,2.25.47,3.42A18.2,18.2,0,0,1,304.23,262Z" transform="translate(-16.29 -72.76)"/><path class="cls-55" d="M261.52,260.46c-.35.69-.7,1.39-1.06,2.08h0c-.24-.42-.74-.3-1.08-.51a12.09,12.09,0,0,1-4.84-2.89c-.18-1.08-.88-2.25.53-3.05l5.41,3.87c.25.34.71.26,1,.52Z" transform="translate(-16.29 -72.76)"/><path class="cls-56" d="M310,258.52a2.84,2.84,0,0,1-.46-1.55c0-.62,0-1.25,0-1.87h0a4.69,4.69,0,0,0,.46-.54,4.28,4.28,0,0,1,.33-.64,17.14,17.14,0,0,0,2.21-4.27,3.47,3.47,0,0,1,.44,1.87c0,1.37,0,2.75.07,4.12a10.16,10.16,0,0,1-2.52,2.42,5.47,5.47,0,0,0-.51.45Z" transform="translate(-16.29 -72.76)"/><path class="cls-57" d="M343.25,352.78a2.93,2.93,0,0,1-.65-.29c-1.06-.72-2.1-1.47-3.15-2.21-.24-.35-.71-.26-1-.51h0c-.25-.34-.72-.25-1-.51h0a1.67,1.67,0,0,1,.3-2.31,2.1,2.1,0,0,1,.66-.35,2.56,2.56,0,0,1,1.13-.12,3.51,3.51,0,0,1,.72.21,7.71,7.71,0,0,1,1,.45c1.51,1,3.7,1.21,4,3.58A2.74,2.74,0,0,1,343.25,352.78Z" transform="translate(-16.29 -72.76)"/><path class="cls-58" d="M345.87,371.4c-.15.53-.31,1.06-.42,1.6a2.78,2.78,0,0,0,.41,2.27c.09,2.39-2,2.67-3.45,3.57a2.17,2.17,0,0,1-1.21,0,2,2,0,0,1-.7-.41c-1.23-1.51-.2-2.39.91-3.25a36.15,36.15,0,0,0,3.68-3.21A5.1,5.1,0,0,1,345.87,371.4Z" transform="translate(-16.29 -72.76)"/><path class="cls-59" d="M341.41,375.19a4.71,4.71,0,0,1-.35.62,2,2,0,0,0-.24,1.81c.07.23.1.47.15.7-.18,2.46-2.35,2.34-3.89,3a2,2,0,0,1-1.49-.11,1.65,1.65,0,0,1-.52-.53,4.73,4.73,0,0,1,.46-2.46c.56-.3,1.1-.63,1.67-.9a23.82,23.82,0,0,0,3.56-1.9A3.42,3.42,0,0,1,341.41,375.19Z" transform="translate(-16.29 -72.76)"/><path class="cls-60" d="M343.25,352.78c.11-.28.21-.57.32-.85a1.93,1.93,0,0,1,1.26-1.2c2.5-.39,3.58.53,3.45,2.94a3.27,3.27,0,0,0-.93,2.14c0,.47-.07.95-.1,1.43l-3.4-4a1.07,1.07,0,0,0-.56-.55Z" transform="translate(-16.29 -72.76)"/><path class="cls-61" d="M338.53,347.22l-1,2a25.69,25.69,0,0,1-3.91-1.51c-.31-.29-.76-.22-1.11-.42a.43.43,0,0,1-.36-.1,5.48,5.48,0,0,1-.55-.72.62.62,0,0,1,.2-.81c.32-.19.68-.31,1-.47a1.52,1.52,0,0,1,.86-.69,2.27,2.27,0,0,1,1.52,0C336.47,345.21,338.39,345.08,338.53,347.22Z" transform="translate(-16.29 -72.76)"/><path class="cls-62" d="M255.11,256.08c0,.41,0,.81,0,1.22a3.12,3.12,0,0,1-.52,1.83h0c-.14-.43-.69-.26-.89-.6a4.19,4.19,0,0,1-2.06-1.88c.11-1.37-.94-2.93.64-4.07l1.87,2.49a4.69,4.69,0,0,0,.48.52h0c.16.16.31.34.47.5Z" transform="translate(-16.29 -72.76)"/><path class="cls-63" d="M248.19,241.58v10.33a1,1,0,0,1-.17-.18A10.63,10.63,0,0,1,248.19,241.58Z" transform="translate(-16.29 -72.76)"/><path class="cls-64" d="M252.28,252.57c0,.77-.09,1.54-.12,2.32a3.2,3.2,0,0,1-.52,1.75h0a1.14,1.14,0,0,0-.53-.53.61.61,0,0,1-.46-.49l0-4.06a3.69,3.69,0,0,1,.41-1.85l.61,1.87c.25.31.11.84.57,1Z" transform="translate(-16.29 -72.76)"/><path class="cls-44" d="M294.34,265.4a2.79,2.79,0,0,1,2-.46A2.93,2.93,0,0,1,294.34,265.4Z" transform="translate(-16.29 -72.76)"/><path class="cls-47" d="M332.46,347.34l1.11.42A1.51,1.51,0,0,1,332.46,347.34Z" transform="translate(-16.29 -72.76)"/><path class="cls-61" d="M337.48,349.27a1.64,1.64,0,0,1,1,.51A1.3,1.3,0,0,1,337.48,349.27Z" transform="translate(-16.29 -72.76)"/><path class="cls-61" d="M338.45,349.77a1.62,1.62,0,0,1,1,.51A1.3,1.3,0,0,1,338.45,349.77Z" transform="translate(-16.29 -72.76)"/><path class="cls-49" d="M259.42,262a1.58,1.58,0,0,1,1.08.51A1.41,1.41,0,0,1,259.42,262Z" transform="translate(-16.29 -72.76)"/><path class="cls-55" d="M253.7,258.52a1.32,1.32,0,0,1,.89.6A1.17,1.17,0,0,1,253.7,258.52Z" transform="translate(-16.29 -72.76)"/><path class="cls-50" d="M259,231.59l-1,.46A1.25,1.25,0,0,1,259,231.59Z" transform="translate(-16.29 -72.76)"/><path class="cls-54" d="M310,258.51l.51-.45A.56.56,0,0,1,310,258.51Z" transform="translate(-16.29 -72.76)"/><path class="cls-62" d="M251.13,256.11l.53.53A.7.7,0,0,1,251.13,256.11Z" transform="translate(-16.29 -72.76)"/><path class="cls-57" d="M343.29,352.71l.56.55A.75.75,0,0,1,343.29,352.71Z" transform="translate(-16.29 -72.76)"/><path class="cls-52" d="M253.14,235.42l-.58.51A.81.81,0,0,1,253.14,235.42Z" transform="translate(-16.29 -72.76)"/><path class="cls-23" d="M338.53,347.22a11.47,11.47,0,0,0-3.92-1.42c-.29-.26-.7-.18-1-.39l-.84-.17a25.43,25.43,0,0,0-5.9-1.37c-2-.28-4-.41-6-.63a4.59,4.59,0,0,1-.89-.33q38.4-22.16,76.79-44.32c.7-.4,1.36-.88,2-1.32l2-1c1.33-1,2.3.47,3.48.53,13.62,7.88,27.28,15.68,40.88,23.6,13.16,7.68,26.52,15,39.52,23a3.28,3.28,0,0,0,.92.34,7.52,7.52,0,0,1,1.84,1.16c1,.86.41-.22.51-.45.23-3.37.71-6.67,2.49-9.63A16.66,16.66,0,0,0,494,331a3.32,3.32,0,0,1,.74-.71l.58-.35a3.84,3.84,0,0,1,.59-.33,2,2,0,0,1,.66-.17c1.31-.41,2.22-1.53,3.53-2,.91-.29,1.81-.79,2.57.26l-.21.65v0c-1.09,2.37-2.16,4.76-3.27,7.12a10.31,10.31,0,0,0-.91,3c-.69,4.77-1.45,9.53-2.17,14.29a6.48,6.48,0,0,0-.07,1.7c.31,2.26.68,4.52,1,6.78.4,2.58.78,5.17,1.21,7.75a7.89,7.89,0,0,1-.42,4.08,25.41,25.41,0,0,1-5,8.34,39,39,0,0,1-8.26,6.88,52.22,52.22,0,0,1-7.81,4.08,2.82,2.82,0,0,1-2.1,1.09c-.74.05-1.47.1-2.21.1q-71,0-142,0c-1.63,0-3.31.12-4.58-1.24l-1.94-1A48.45,48.45,0,0,1,314,385c-.55-.46-1-1-1.56-1.51a37.81,37.81,0,0,1,4.64,0,80,80,0,0,0,9-.55,5,5,0,0,0,1.15-.37,22.55,22.55,0,0,0,7.87-1.91l.48-.13c.34-.25.77-.22,1.13-.38a12.79,12.79,0,0,0,4.29-1.89l.47-.19a1.25,1.25,0,0,1,.66-.37,14.14,14.14,0,0,0,3.76-2.49h0a1.17,1.17,0,0,1,.57-.46,12.6,12.6,0,0,0,4.31-5,31.19,31.19,0,0,0,.09-12.8,6.71,6.71,0,0,0-2.55-3.38,8.34,8.34,0,0,0-3.45-2.94,10.14,10.14,0,0,0-4.23-2.51,1.72,1.72,0,0,1-.63-.36.48.48,0,0,0-.36-.14c-.36-.19-.84-.11-1.12-.5Z" transform="translate(-16.29 -72.76)"/><path class="cls-29" d="M288.49,374.15l-.34-.34Z" transform="translate(-16.29 -72.76)"/><path class="cls-25" d="M298.77,380.11a1.51,1.51,0,0,1-1.11-.42Z" transform="translate(-16.29 -72.76)"/><path class="cls-3" d="M403.7,297.69l-2.93-1.46a7.14,7.14,0,0,0-.49-3.36,5.18,5.18,0,0,0,1.19-.18,11.53,11.53,0,0,0,1.5-.82q36.4-21,72.8-42c1.42-.81,2.83-1.64,4.25-2.44.49-.28,1-.5,1.54-.74,1.69.45,1.14,1.47.62,2.48-.75.48-1.49,1-2.26,1.44l-60.62,35-13.57,7.83c-.42.24-.84.51-1.25.76s-.34.67-.17,1.06C404.5,296.14,404.8,297.08,403.7,297.69Z" transform="translate(-16.29 -72.76)"/><path class="cls-65" d="M403.7,297.69a3.39,3.39,0,0,1,.61-2.47c.66.32,1.33.61,2,1l59.8,34.5,16.76,9.67a6.17,6.17,0,0,0,2.2,1c1.38,1.08,1.38,2.19,0,3.3-.71-.39-1.44-.76-2.14-1.17L405.76,299C405.05,298.6,404.39,298.13,403.7,297.69Z" transform="translate(-16.29 -72.76)"/><path class="cls-66" d="M470.31,207.49a7,7,0,0,1,2.33-.61,39.56,39.56,0,0,1,6.5-.9,54.49,54.49,0,0,1,5.57-.24,61.62,61.62,0,0,1,11.57,1.34,9.63,9.63,0,0,1,1.13.42c.22.77.28,1.49-.53,2a6.24,6.24,0,0,1-1-.07,51,51,0,0,0-6.5-1.1,48.12,48.12,0,0,0-10.25-.08,36.33,36.33,0,0,0-5.08.72,7,7,0,0,1-1.22.09C472,208.51,470.66,208.83,470.31,207.49Z" transform="translate(-16.29 -72.76)"/><path class="cls-67" d="M482.18,249.16a3.36,3.36,0,0,0-.62-2.48c-.26-.18-.49-.47-.77-.53-.79-.16-1.6-.23-2.4-.33-1.52-.18-3-.34-4.56-.56a5.78,5.78,0,0,1-1.13-.38c.07-.68-.57-1.42.15-2a9.71,9.71,0,0,1,1.21.1,53,53,0,0,0,13.83.81c1.05-.07,2.1-.2,3.15-.29a.24.24,0,0,1,.29.29.39.39,0,0,1-.08.21,1.8,1.8,0,0,1-.36.32c-2.68,1.54-5.35,3.08-8,4.61A4.48,4.48,0,0,1,482.18,249.16Z" transform="translate(-16.29 -72.76)"/><path class="cls-68" d="M485.07,344.7l0-3.31a11.92,11.92,0,0,1,3-6.84c1.73.23,1.45,1.44,1.24,2.58a19.64,19.64,0,0,0-.3,7.71,3.19,3.19,0,0,1,.52,1.85c0,.23-.29.45-.48.34Z" transform="translate(-16.29 -72.76)"/><path class="cls-69" d="M452.63,234.7a5.24,5.24,0,0,1-1.82-2.66,31.81,31.81,0,0,1,0-12.26,8.88,8.88,0,0,1,2.54-3.4c1.55-.49,1.64.58,1.59,1.59a6.42,6.42,0,0,1-.69,2.31c-.27.74-.55,1.49-.81,2.24a9,9,0,0,0-.31,5.63,1.91,1.91,0,0,1,0,.48c-.26,1.21.38,2.3.51,3.46S453.86,234.18,452.63,234.7Z" transform="translate(-16.29 -72.76)"/><path class="cls-70" d="M517,219.77a2.91,2.91,0,0,0-.5,1.61v6.09a3,3,0,0,0,.45,1.62c-.33.23-.65.49-1,.69-.58.32-1,.11-1-.47,0-.82,0-1.64,0-2.45a11.32,11.32,0,0,0-1.27-6.15c-.07-.14-.1-.31-.16-.46a8,8,0,0,1-.7-2.49c-.18-.9-.08-1.78,1.15-1.88A8.25,8.25,0,0,1,517,219.77Z" transform="translate(-16.29 -72.76)"/><path class="cls-71" d="M502.69,327.72a26.26,26.26,0,0,0-5,2.31c-.4.24-.84.43-1.27.64-1-.69-.29-1.75-.59-2.59a23.46,23.46,0,0,1,5-2.42c1.05-.41,2.17-.65,3.26-1a3.93,3.93,0,0,1,.66.22c.61.31.73.6.59,1.31a3.89,3.89,0,0,1-.16.44Z" transform="translate(-16.29 -72.76)"/><path class="cls-72" d="M496.88,209.47a2.85,2.85,0,0,1,.53-2,13.34,13.34,0,0,1,1.91.31q2.65.85,5.29,1.83a7.43,7.43,0,0,1,1.23.74,2,2,0,0,1-1.13,2.07.79.79,0,0,1-.23,0,76.78,76.78,0,0,0-7.38-2.83A1.51,1.51,0,0,1,496.88,209.47Z" transform="translate(-16.29 -72.76)"/><path class="cls-73" d="M454.22,220.28c0-.94,0-1.89-.08-2.83a1.3,1.3,0,0,0-.82-1.07,13.72,13.72,0,0,1,4.89-3.92c1.66.16,1.74.37.92,2.43-.22.23-.43.49-.67.7a19.65,19.65,0,0,0-3.87,4.37A1.67,1.67,0,0,1,454.22,220.28Z" transform="translate(-16.29 -72.76)"/><path class="cls-74" d="M489,344.84a3.48,3.48,0,0,1-.5-2.09c0-1.71,0-3.41,0-5.12,0-.56,0-1.13,0-1.7a2.81,2.81,0,0,0-.44-1.38,5.57,5.57,0,0,1,2.3-2.5,1.14,1.14,0,0,0,.6-.52h0c2.3.85,1,2.26.54,3.54-.31.56-.64,1.11-.95,1.67a16.22,16.22,0,0,0-.76,1.5,10.17,10.17,0,0,0-.87,4.45C489,343.4,489,344.12,489,344.84Z" transform="translate(-16.29 -72.76)"/><path class="cls-75" d="M491.5,335.06c0-.56,0-1.13,0-1.7a3.15,3.15,0,0,0-.52-1.84,4.93,4.93,0,0,1,.6-.75,10.85,10.85,0,0,1,2.69-1.68,1.2,1.2,0,0,0,.67-.44h0c.26-.3.77-.17,1-.56h-.05a1.32,1.32,0,0,1,.87,1.69c-.08.31-.19.6-.28.9l0,0c-.22.1-.35.31-.56.43l-.05,0c-.2.35-.7.22-.89.58Z" transform="translate(-16.29 -72.76)"/><path class="cls-76" d="M472.85,242.83a5.62,5.62,0,0,1,.58.71c.29.43.17.8-.32,1.14a2.6,2.6,0,0,1-.41.2,20.53,20.53,0,0,1-7.28-2c.21-.69-.25-1.58.62-2.07.61.16,1.23.29,1.83.48a32.12,32.12,0,0,0,4.1,1.2A5,5,0,0,1,472.85,242.83Z" transform="translate(-16.29 -72.76)"/><path class="cls-77" d="M470.31,207.49h.23a2.26,2.26,0,0,1,2.32,1.53c-1,.3-2,.6-3,.92l-4.81,1.57c-.73-.49-.74-1.34-1-2a1.14,1.14,0,0,1,.38-.28c1.81-.57,3.62-1.14,5.44-1.69A1.46,1.46,0,0,1,470.31,207.49Z" transform="translate(-16.29 -72.76)"/><path class="cls-78" d="M464,209.48a4.18,4.18,0,0,1,.7.16.81.81,0,0,1,.57.94,7.58,7.58,0,0,1-.23.94v0c-.32.22-.78.15-1,.51-1.67.92-3.2,2.06-4.92,2.89,0-.39,0-.78,0-1.17a1.35,1.35,0,0,0-.88-1.26,8.15,8.15,0,0,1,1.11-.87A15.49,15.49,0,0,1,463,210c.3-.26.77-.15,1-.47Z" transform="translate(-16.29 -72.76)"/><path class="cls-79" d="M514,215.88a2.88,2.88,0,0,0-.44,1.56c0,.93,0,1.87,0,2.81l-3-3.77a1.15,1.15,0,0,0-.53-.6l.06.06a1.1,1.1,0,0,0-.58-.54v.1c-.56-1.09-1-2.15.65-2.7l0,0c.18.39.7.26.93.59l0,0a3.48,3.48,0,0,0,.58.43A4.72,4.72,0,0,1,514,215.88Z" transform="translate(-16.29 -72.76)"/><path class="cls-80" d="M510.17,212.8a5.64,5.64,0,0,0-.65,2.7c-.42-.24-.86-.45-1.25-.72-.87-.59-1.72-1.22-2.57-1.83-.25-.33-.71-.24-1-.5h0a2.33,2.33,0,0,1,1.13-2.07.64.64,0,0,1,.38.15,1.54,1.54,0,0,0,.64.38A7.15,7.15,0,0,1,510.17,212.8Z" transform="translate(-16.29 -72.76)"/><path class="cls-81" d="M452.63,234.7c0-1.34.08-2.68.1-4a4.28,4.28,0,0,1,.41-2.06,14,14,0,0,0,1.43,3.19,11.11,11.11,0,0,1,.61,1.25c.17,1.32,2.09,2.83-.42,3.85A6.85,6.85,0,0,1,452.63,234.7Z" transform="translate(-16.29 -72.76)"/><path class="cls-82" d="M460,240.43A4,4,0,0,1,457.6,239c0-1.07-1.18-2.17.09-3.21a17.3,17.3,0,0,1,3.42,2.53c.21.39.7.3,1,.56h0c.52,1.18.85,2.26-1.14,2.05a.51.51,0,0,1-.38-.16A1.77,1.77,0,0,0,460,240.43Z" transform="translate(-16.29 -72.76)"/><path class="cls-83" d="M460.94,240.94c1-.33,1.12-1.17,1.14-2.05a7.72,7.72,0,0,1,2.93,1.47c.28.31.72.26,1,.47v0a3.66,3.66,0,0,1,.13.44c.23,1,.2,1.06-.75,1.63a.68.68,0,0,1-.44-.11c-.3-.22-.71-.14-1-.39A6.63,6.63,0,0,1,460.94,240.94Z" transform="translate(-16.29 -72.76)"/><path class="cls-84" d="M457.69,235.8c.11.39.23.77.32,1.16a2.39,2.39,0,0,1-.41,2h0c-.16-.41-.7-.24-.9-.59a4.6,4.6,0,0,1-2-1.49,3,3,0,0,0,.43-1.54c0-.77,0-1.54,0-2.31A15.83,15.83,0,0,1,457.69,235.8Z" transform="translate(-16.29 -72.76)"/><path class="cls-76" d="M466.05,240.83a1.69,1.69,0,0,1-1-.47A1.34,1.34,0,0,1,466.05,240.83Z" transform="translate(-16.29 -72.76)"/><path class="cls-83" d="M462.09,238.89a1.51,1.51,0,0,1-1-.56A1.49,1.49,0,0,1,462.09,238.89Z" transform="translate(-16.29 -72.76)"/><path class="cls-77" d="M464.05,212a1.57,1.57,0,0,1,1-.51A1.34,1.34,0,0,1,464.05,212Z" transform="translate(-16.29 -72.76)"/><path class="cls-72" d="M504.71,212.45a1.66,1.66,0,0,1,1,.5A1.35,1.35,0,0,1,504.71,212.45Z" transform="translate(-16.29 -72.76)"/><path class="cls-71" d="M495.89,328.09a1.63,1.63,0,0,1-1,.56A1.23,1.23,0,0,1,495.89,328.09Z" transform="translate(-16.29 -72.76)"/><path class="cls-75" d="M491,331.53l-.6.52A.87.87,0,0,1,491,331.53Z" transform="translate(-16.29 -72.76)"/><path class="cls-71" d="M494.92,328.65l-.67.44A.94.94,0,0,1,494.92,328.65Z" transform="translate(-16.29 -72.76)"/><path class="cls-80" d="M509.53,215.4l.58.54A.73.73,0,0,1,509.53,215.4Z" transform="translate(-16.29 -72.76)"/><path class="cls-80" d="M510.05,215.88l.53.6A.86.86,0,0,1,510.05,215.88Z" transform="translate(-16.29 -72.76)"/><path class="cls-40" d="M528.55,360a3.56,3.56,0,0,1,2.19-.46A3,3,0,0,1,528.55,360Z" transform="translate(-16.29 -72.76)"/><path class="cls-37" d="M549.8,337.17a.91.91,0,0,1-.41-.68Z" transform="translate(-16.29 -72.76)"/><path class="cls-40" d="M536.07,358.05a1.41,1.41,0,0,1,1-.37Z" transform="translate(-16.29 -72.76)"/><path class="cls-34" d="M542,329.71a1.39,1.39,0,0,1-1-.55A1.72,1.72,0,0,1,542,329.71Z" transform="translate(-16.29 -72.76)"/><path class="cls-35" d="M541.77,355.58l.69-.48Z" transform="translate(-16.29 -72.76)"/><path class="cls-39" d="M547.9,350.72l.44-.56Z" transform="translate(-16.29 -72.76)"/><path class="cls-85" d="M450.78,219.78a2.82,2.82,0,0,1,.48,1.61v9a3,3,0,0,1-.45,1.62,5.87,5.87,0,0,1-.7-1,11.43,11.43,0,0,1-.47-8.92A5.64,5.64,0,0,1,450.78,219.78Z" transform="translate(-16.29 -72.76)"/><path class="cls-49" d="M261.52,260.47a1.56,1.56,0,0,1-1-.52A1.26,1.26,0,0,1,261.52,260.47Z" transform="translate(-16.29 -72.76)"/><path class="cls-62" d="M252.29,252.61a1.49,1.49,0,0,1-.57-1A1.31,1.31,0,0,1,252.29,252.61Z" transform="translate(-16.29 -72.76)"/><path class="cls-76" d="M464,242.37l1,.39A1.33,1.33,0,0,1,464,242.37Z" transform="translate(-16.29 -72.76)"/><path class="cls-82" d="M456.73,238.41a1.48,1.48,0,0,1,.9.59A1.2,1.2,0,0,1,456.73,238.41Z" transform="translate(-16.29 -72.76)"/><path class="cls-77" d="M464,209.48l-1,.47A1.46,1.46,0,0,1,464,209.48Z" transform="translate(-16.29 -72.76)"/><path class="cls-80" d="M511.07,213.42a1.65,1.65,0,0,1-.93-.59A1.25,1.25,0,0,1,511.07,213.42Z" transform="translate(-16.29 -72.76)"/><path class="cls-54" d="M310,254.56l-.46.54A.72.72,0,0,1,310,254.56Z" transform="translate(-16.29 -72.76)"/><path class="cls-55" d="M255.1,256.08l-.47-.5A.62.62,0,0,1,255.1,256.08Z" transform="translate(-16.29 -72.76)"/><path class="cls-83" d="M460,240.43l.61.35Z" transform="translate(-16.29 -72.76)"/><path class="cls-52" d="M253.19,239.51l.43-.6Z" transform="translate(-16.29 -72.76)"/><path class="cls-72" d="M506.86,210.91c-.22-.12-.43-.25-.64-.38Z" transform="translate(-16.29 -72.76)"/><path class="cls-50" d="M259.54,234l.71-.48Z" transform="translate(-16.29 -72.76)"/><path class="cls-80" d="M511.68,213.87l-.58-.43Z" transform="translate(-16.29 -72.76)"/><path class="cls-55" d="M254.63,255.58l-.48-.52A.72.72,0,0,1,254.63,255.58Z" transform="translate(-16.29 -72.76)"/><path class="cls-86" d="M325.91,392.34c1.31,0,2.61,0,3.92,0H473.58c1.06,0,2.12.05,3.18.08,0,2.28,0,4.56-.06,6.84a2.35,2.35,0,0,1-.36,1.63,16.09,16.09,0,0,1-6.9,1.46c-5.31,0-10.61.39-15.91.58-11.42.4-22.83.75-34.24,1.39-4.56.26-9.14.33-13.7.44-6.62.17-13.23.43-19.83.74-9.94.45-19.89.7-29.84,1.21-5.94.3-11.9.68-17.86.64a37.68,37.68,0,0,0-6.36.34,8,8,0,0,1-5.44-1,6.09,6.09,0,0,1-.24-2.4c0-3,0-6,0-9C326,394.29,326,393.32,325.91,392.34Z" transform="translate(-16.29 -72.76)"/><path class="cls-86" d="M470.17,453.61a11.24,11.24,0,0,1-1.31.63q-6.35,2.14-12.69,4.25a6.22,6.22,0,0,1-1,.17c-1.3-1.5-.59-2.56.81-3.34a7.27,7.27,0,0,1,3.9-.67c-38.67.26-77.36.24-114.49.24a70,70,0,0,1,9.58,3.27c1.5.61,2.36,1.79,1.11,3.46-1-.31-2-.59-3-.92l-19-6.38c-2.77-.93-2.58-.75-2.31-3.6.1-1.05.3-2.1.46-3.15.46-1.45,1.73-1.34,2.83-1.36,3.43-.08,6.86-.4,10.27-.47,10-.18,20.06-.79,30.08-1.16,12-.43,24-1,35.94-1.47,11.41-.46,22.82-1,34.23-1.45,7.33-.29,14.66-.77,22-.88,1.26,0,2.67-.26,3.62,1,1.48,1.49,3,3,4.43,4.47a9,9,0,0,1,.93,1.11c.08.1,0,.3,0,.45a12.55,12.55,0,0,1-5.44,1.23c-10.76.41-21.53.72-32.28,1.38-4.32.26-8.66.31-13,.42-6.37.18-12.74.45-19.09.72-16.89.73-33.78.87-50.67,1.22-2.66.06-5.32.18-8,.26,38.46-1.29,76.94-1,115.41-1,1.47,0,2.94,0,4.41.09C468.94,452.22,469.92,452.37,470.17,453.61Z" transform="translate(-16.29 -72.76)"/><path class="cls-20" d="M331.87,424.17c-1.53-1.55-3.07-3.09-4.6-4.65a2.32,2.32,0,0,1-.83-1.16,11.29,11.29,0,0,1,6.07-1.62c10.94,0,21.86-.74,32.79-1.1,12.8-.41,25.6-1,38.4-1.46,12.48-.48,25-.9,37.42-1.49,9.7-.45,19.42-.5,29.1-1.3a9.32,9.32,0,0,1,6.15,1.13,1.9,1.9,0,0,1-.65,1c-1,1-2.05,2.05-3.07,3.09-.57.57-1.11,1.16-1.66,1.75-.43,1-1.36,1.13-2.25,1.14-3.11,0-6.18.53-9.28.61-10.76.31-21.51.71-32.25,1.36-4.15.25-8.32.35-12.47.45-10,.26-20,.86-30.06,1.19-12.06.4-24.12.95-36.17,1.53-4.64.23-9.3,0-13.93.64C333.55,425.41,332.41,425.43,331.87,424.17Z" transform="translate(-16.29 -72.76)"/><path class="cls-20" d="M471.18,441.77l-.49,0c-6.2.24-12.4.46-18.6.72-5.46.22-10.92.5-16.39.75l-.49,0-16.15.63c-6.11.26-12.23.55-18.34.82l-.49,0c-5.71.22-11.42.42-17.13.66s-11.42.52-17.13.78l-.73,0c-5.71.22-11.42.43-17.13.66l-15.9.69c-1.72-1.69-3.45-3.37-5.15-5.08a2.88,2.88,0,0,1-.42-.84,6.47,6.47,0,0,1,4.56-1.38c10.2-.14,20.39-.73,30.59-1.08q19.2-.68,38.41-1.47c12.56-.49,25.12-.94,37.68-1.48,11.17-.47,22.34-.85,33.51-1.37a8.43,8.43,0,0,1,5.19,1.1c-.41.48-.79,1-1.23,1.46C474,438.88,472.57,440.32,471.18,441.77Z" transform="translate(-16.29 -72.76)"/><path class="cls-86" d="M331.87,424.17c.57,0,1.14,0,1.71,0,3.35-.14,6.7-.27,10-.43l15.92-.74.49,0c5.8-.22,11.6-.42,17.39-.66s11.43-.52,17.15-.78l.49,0c5.06-.2,10.12-.39,15.18-.61q9.67-.4,19.35-.84l.49,0c5.55-.21,11.11-.41,16.66-.64,6-.25,12.08-.55,18.12-.81,2-.09,4.08-.14,6.13-.2l4.9,4.91c.28.27.62.52.57,1-3.55,2-7.53,1.5-11.27,1.59-11.09.27-22.17.85-33.25,1.2-12.63.4-25.26,1-37.89,1.45q-12.58.45-25.18,1c-12.87.52-25.74,1.21-38.62,1.45a6.4,6.4,0,0,1-3.75-.81c0-.47.33-.72.61-1,1.25-1.28,2.52-2.55,3.77-3.84C331.22,424.91,331.54,424.54,331.87,424.17Z" transform="translate(-16.29 -72.76)"/><path class="cls-20" d="M326.26,406.69l12.49-.56,19.58-.79.74,0c6-.21,12.08-.41,18.12-.65,6.36-.24,12.73-.52,19.09-.78l.74,0c6.28-.23,12.57-.43,18.85-.67,6.12-.24,12.24-.51,18.36-.77l.49,0,16.65-.61q8.94-.32,17.88-.65c1.47-.06,2.93-.19,4.4-.24.9,0,1.8,0,2.69,0a9.57,9.57,0,0,1-1.72,2l-3.69,3.78a2.26,2.26,0,0,1-2.07,1.09c-2.36.08-4.69.54-7.06.6q-16.64.42-33.23,1.38c-4,.23-8,.35-12,.45-10.18.26-20.36.84-30.54,1.19q-17.83.6-35.66,1.53c-5,.27-10.12,0-15.15.71-1.22.18-2.67.33-3.49-1.11l-3.9-4A7.86,7.86,0,0,1,326.26,406.69Z" transform="translate(-16.29 -72.76)"/><path class="cls-86" d="M476.58,436c-4,.08-8,.08-12,.41l-1,.05c-6.36.22-12.72.42-19.08.67-6,.23-11.9.5-17.85.75l-.74,0c-6.11.22-12.23.42-18.35.65s-12.39.52-18.58.78l-.74,0c-6.11.22-12.23.42-18.34.66-6.28.24-12.56.52-18.84.79l-1,0-19.33.67-4.16.14a4.18,4.18,0,0,1,1.18-1.49q2.1-2.15,4.21-4.27c.72-1.42,2.05-1.45,3.37-1.48,3.75-.07,7.5-.33,11.24-.42,10.19-.23,20.36-.82,30.55-1.18,11.89-.41,23.78-1,35.67-1.47,7.65-.3,15.32-.53,23-1,9-.53,18.09-.52,27.11-1.31a39.66,39.66,0,0,1,5.87,0c.89.05,1.82.08,2.35,1L476,435C476.26,435.27,476.59,435.51,476.58,436Z" transform="translate(-16.29 -72.76)"/><path class="cls-20" d="M471.15,430.06c-6,.23-12.06.44-18.1.69-5.21.22-10.43.49-15.64.74l-.49,0c-5.62.22-11.25.42-16.87.66-5.95.24-11.9.53-17.85.79l-.49,0c-5.38.21-10.76.4-16.14.63l-18.33.81-.49,0q-8.56.32-17.12.65-8.81.38-17.6.78c-1.32-1.32-2.65-2.63-3.95-3.95a6,6,0,0,1-1.58-1.83c2.28-.13,4.56-.3,6.85-.38,6.19-.24,12.4-.38,18.59-.69,3.91-.19,7.83-.25,11.74-.45,4.49-.23,9-.3,13.46-.52,3.91-.2,7.83-.31,11.74-.45,4.49-.15,9-.27,13.46-.53,4-.23,8-.3,12-.46,5.55-.22,11.09-.48,16.63-.73l.49,0c6.36-.22,12.73-.43,19.09-.67,6-.23,12.06-.52,18.1-.76,2.61-.1,5.22-.13,7.83-.2a2.72,2.72,0,0,1-.84,1.14c-.9.91-1.82,1.8-2.71,2.72C472.31,428.74,471.74,429.41,471.15,430.06Z" transform="translate(-16.29 -72.76)"/><path class="cls-86" d="M331.76,412.47l5.38-.24,1.22-.08c5.87-.22,11.74-.42,17.61-.67,5.55-.23,11.09-.5,16.63-.75.25,0,.49,0,.74,0,5.7-.22,11.41-.43,17.12-.67s11.58-.51,17.36-.78l.49,0c5.55-.22,11.09-.41,16.64-.65,5.95-.25,11.9-.53,17.85-.8l.49,0c5.54-.22,11.09-.42,16.63-.65,3.67-.14,7.34-.31,11-.47l4.81,4.88a1.83,1.83,0,0,1,.63,1l-7.83.29c-.41,0-.81.05-1.22.06q-8.69.31-17.37.63-9.9.39-19.81.82l-.73,0c-6.2.22-12.4.42-18.59.66s-12.23.51-18.34.77l-.74,0c-6,.22-12.07.42-18.1.66-6.36.24-12.72.52-19.07.79l-.74,0c-6.19.22-12.39.42-18.59.66-2.93.11-5.87.27-8.8.41a1.77,1.77,0,0,1,.63-1c1.08-1.1,2.16-2.19,3.22-3.29C330.8,413.56,331.27,413,331.76,412.47Z" transform="translate(-16.29 -72.76)"/><path class="cls-86" d="M356.12,461.62c-.05-.32-.06-.65-.14-1a1.88,1.88,0,0,0-1.06-1.28,21.27,21.27,0,0,0-2.06-.78l-11.15-3.74a10.47,10.47,0,0,1-1.32-.6c-.05,0-.07-.13-.07-.2s.05-.17.1-.19a1.33,1.33,0,0,1,.46-.13c.82,0,1.64,0,2.45,0H459.26c.9,0,1.79,0,2.69.07a.26.26,0,0,1,.25.35.33.33,0,0,1-.13.19c-.45.2-.89.4-1.35.56-1.31.46-2.63.91-4,1.33a2,2,0,0,0-1.55,2.2c0,.08,0,.16,0,.25-.44.19-.86.43-1.31.58-1.67.59-3.36,1.14-5,1.71l-3,1c-4.91,1.16-9.9.74-14.86.75q-31.23,0-62.47,0c-4,0-8,.15-11.93-.82A.5.5,0,0,1,356.12,461.62Z" transform="translate(-16.29 -72.76)"/><path class="cls-87" d="M356.65,461.93a10,10,0,0,1,1.42-.31c.73-.05,1.47,0,2.2,0h82c.74,0,1.47,0,2.2,0a2.67,2.67,0,0,1,1.41.36c-.49.3-1,.62-1.47.88l-14.88,7.95c-2.17,1.15-1.55,1-3.94,1h-48c-.49,0-1,0-1.47,0a4.22,4.22,0,0,1-2.33-.59l-9.27-5-6.9-3.7C357.33,462.38,357,462.14,356.65,461.93Z" transform="translate(-16.29 -72.76)"/><path class="cls-88" d="M470.17,453.61c-.57-.06-1.14-.15-1.7-.17-.82,0-1.64,0-2.45,0H355.52c-3,0-6,0-9.07-.05-.89,0-1.79-.07-2.69-.13-.11,0-.21-.14-.31-.22a1,1,0,0,1,.21-.1,2.63,2.63,0,0,1,.49-.06l15.66-.6,17.63-.65,10.77-.44,16.39-.73.49,0c5.88-.22,11.75-.42,17.63-.66,6.12-.24,12.23-.52,18.35-.78l.73,0,17.87-.66c4.82-.18,9.63-.37,14.45-.54.81,0,1.62,0,2.44.07a62,62,0,0,1-4.87,5.12A2.57,2.57,0,0,1,470.17,453.61Z" transform="translate(-16.29 -72.76)"/><path class="cls-71" d="M502.47,328.35v0Z" transform="translate(-16.29 -72.76)"/><path class="cls-56" d="M350.83,357.05a3.93,3.93,0,0,1,1,1.63,13.36,13.36,0,0,1,.8,6.74c-.53,1.52-.74,3.19-1.93,4.43a3.9,3.9,0,0,1-.49-2.32v-7.47c0-.56,0-1.13.05-1.69A2.51,2.51,0,0,1,350.83,357.05Z" transform="translate(-16.29 -72.76)"/><path class="cls-58" d="M346.43,374.81a.71.71,0,0,1-.57.46Z" transform="translate(-16.29 -72.76)"/><path class="cls-61" d="M338.49,347.22a1.42,1.42,0,0,1,1.12.5A1.7,1.7,0,0,1,338.49,347.22Z" transform="translate(-16.29 -72.76)"/><path class="cls-61" d="M340,347.86l.63.36Z" transform="translate(-16.29 -72.76)"/><path class="cls-59" d="M342.1,377.76a.81.81,0,0,1-.66.37Z" transform="translate(-16.29 -72.76)"/><path class="cls-53" d="M336.68,380.21a1.45,1.45,0,0,1-1.13.38A1.94,1.94,0,0,1,336.68,380.21Z" transform="translate(-16.29 -72.76)"/><path class="cls-47" d="M333.61,345.41a1.39,1.39,0,0,1,1,.39Z" transform="translate(-16.29 -72.76)"/><path class="cls-71" d="M495,331.66a1.57,1.57,0,0,1,.89-.58A1.27,1.27,0,0,1,495,331.66Z" transform="translate(-16.29 -72.76)"/><path class="cls-71" d="M495.89,331.06l.56-.43A.68.68,0,0,1,495.89,331.06Z" transform="translate(-16.29 -72.76)"/></svg>