<?xml version="1.0" encoding="utf-8"?>
<!-- Generator: Adobe Illustrator 22.0.0, SVG Export Plug-In . SVG Version: 6.00 Build 0)  -->
<svg version="1.1" id="Layer_1" xmlns="http://www.w3.org/2000/svg" xmlns:xlink="http://www.w3.org/1999/xlink" x="0px" y="0px"
	 viewBox="0 0 593.5 582.5" style="enable-background:new 0 0 593.5 582.5;" xml:space="preserve">
<style type="text/css">
	.st0{fill:#33CCCC;}
	.st1{fill:#FFFF00;}
	.st2{fill:#626262;}
	.st3{fill:#929292;}
	.st4{fill:#B1B1B1;}
	.st5{fill:#777777;}
	.st6{fill:#787877;}
	.st7{fill:#838484;}
	.st8{fill:#ABABAB;}
	.st9{fill:#737373;}
	.st10{fill:#9FA09F;}
	.st11{fill:#757474;}
	.st12{fill:#ACACAC;}
	.st13{fill:#A7A8A7;}
	.st14{fill:#70706F;}
	.st15{fill:#696969;}
	.st16{fill:#5C5C5C;}
	.st17{fill:#999999;}
	.st18{fill:#A3A4A4;}
	.st19{fill:#6D6D6D;}
	.st20{fill:#6F6F6F;}
	.st21{fill:#646464;}
	.st22{fill:#4C4C49;}
	.st23{fill:#5C5B5B;}
	.st24{fill:#555656;}
	.st25{fill:#6A6A6A;}
	.st26{fill:#686868;}
	.st27{fill:#616161;}
	.st28{fill:#9E9E9E;}
	.st29{fill:#484946;}
	.st30{fill:#4D4E4E;}
	.st31{fill:#4E4E4E;}
	.st32{fill:#5C5C5B;}
	.st33{fill:#464747;}
	.st34{fill:#545353;}
	.st35{fill:#4D4D4C;}
	.st36{fill:#565656;}
	.st37{fill:#555555;}
	.st38{fill:#434342;}
	.st39{fill:#434343;}
	.st40{fill:#3F3F3F;}
	.st41{fill:#4F4E4E;}
	.st42{fill:#939393;}
	.st43{fill:#4A4A4A;}
	.st44{fill:#C3C3C3;}
	.st45{fill:#6D6C6C;}
	.st46{fill:#777672;}
	.st47{fill:#686867;}
	.st48{fill:#6D6D6B;}
	.st49{fill:#636361;}
	.st50{fill:#656564;}
	.st51{fill:#5E5E5D;}
	.st52{fill:#51504E;}
	.st53{fill:#545351;}
	.st54{fill:#585856;}
	.st55{fill:#4D4E41;}
	.st56{fill:#D3D228;}
	.st57{fill:#6E6D6D;}
	.st58{fill:#5E5D5C;}
	.st59{fill:#555553;}
	.st60{fill:#4D4C41;}
	.st61{fill:#868080;}
	.st62{fill:none;stroke:#000000;stroke-width:0.5;stroke-miterlimit:10;}
	.st63{fill:none;stroke:#000000;stroke-width:0.5;stroke-miterlimit:10;stroke-dasharray:9.16,7.13;}
</style>
<title>yourproblem v2</title>
<g id="Layer_2_1_">
	<g id="Layer_1-2">
		<path class="st0" d="M0.6,384.1c-0.8-4.2,0.5-7.8,3.2-10.9c1.6-1.9,3.5-3.4,5.6-4.7c2.6-1.5,5.2-3,7.8-4.6l89.9-51.9l31.7-18.3
			c0.6-0.3,1.2-0.7,1.8-1c0.6-0.4,1.4-0.4,2,0c0.3,0.2,0.6,0.3,0.9,0.5l23.5,13.6c0.9,0.4,1.6,1,2.1,1.8c1.1,1.4,0.6,2.9-0.1,4.3
			c-8.2,18.1-4.1,34.2,7.5,49.4c6.3,8.3,14.7,14.2,22.6,20.6c10.2,8.4,18.2,18.4,22.4,30.9c2.4,7.6,2.9,15.7,1.2,23.4
			c-0.9,4.5,0.9,7.9,3.7,11c2.3,2.5,5,4.6,8,6.1c1.5,0.8,3.1,1.5,3.9,3.3c1.3,3.4,0.3,7.1,1,10.6c0.1,2.2,3.2,2.7,3.1,5.1
			c0.4,2.2-2.1,2.9-2.4,4.8c0.4,1.8,2.6,2.6,2.4,4.7c0.2,2-2.1,2.6-2.3,4.4c0.3,1.8,2.6,2.6,2.4,4.7c0.5,2-1.7,2.8-2,4.5
			c0.1,2,2.5,2.7,2.7,4.6c0.2,0.8,0.6,1.5,0.7,2.4c0.6,3.2,3.4,3,5.6,3.5c4.6,1.3,9.3,2.2,13.5,4.9c6.6,3.4,13,7,21.1,6.5
			c9.7-0.7,19.4-0.2,29.2-0.1c2.4,0.2,4.9-0.5,6.9-1.9c3-2.2,7.1-2.3,9.8-5c3.9-1.8,8-3.1,12.1-4c2.3-0.5,4.5-1.2,6.5-2.2
			c0.5-0.5,1-0.9,1.5-1.3c1-0.8,2.5-1,2.4-2.8c-0.7-1.7-2.9-2.7-2.3-5c0.1-1.7,2.2-2.3,2.3-4c-0.4-2-3.1-2.7-2.8-5.1
			c0-1.9,2.4-2.4,2.5-4.3c-0.4-1.8-2.9-2.6-2.5-4.8c-0.1-2,2.4-2.4,2.5-4.3c-0.5-1.8-2.9-2.6-2.5-4.9c0.2-2.4,3.4-2.8,3.4-5.3
			c0.8-2,0.3-4.2,1.3-6.1c1.2-1.7,3-2.5,4.7-3.5c2.7-1.6,5.2-3.6,7.3-5.9c2.7-3.1,4.5-6.4,3.4-10.8c-1.6-6.7-1.5-13.7,0.3-20.3
			c2.1-8.6,6.4-16,12-22.9c5.9-7.2,13.2-12.7,20.4-18.4c6.3-4.8,11.8-10.5,16.3-17c8.1-12,10.9-25.2,7.2-39.5
			c-0.6-2.1-1.9-4-2.6-6.1c-0.4-1.4-0.9-2.6,0-4c0.8-0.8,1.8-1.5,2.9-2c7.8-4.5,15.7-9.1,23.5-13.6c0.4-0.2,0.8-0.5,1.2-0.6
			c0.5-0.3,1.2-0.2,1.7,0.1c0.6,0.3,1.2,0.6,1.8,1l28.1,16.2l56.4,32.6c14,8.1,28,16.1,41.9,24.2c1.6,0.9,3.2,1.9,4.7,2.9
			c1.5,1,2.8,2.1,3.9,3.5c2.4,2.6,3.7,6,3.6,9.5c0,0.4,0,0.7,0,1c-0.7,2.4-0.2,5.1-2.4,7c-2,2.3-4,4.6-6.9,5.8
			c-10.6,6.7-21.6,12.7-32.5,19c-15.9,9.2-31.8,18.4-47.7,27.5c-18.7,10.8-37.4,21.6-56.1,32.5c-20,11.6-40,23.2-60,34.7
			c-19,11-38,22-57,32.9c-3.8,2.2-7.5,4.7-11.6,6.3c-1.1,0.4-2.1,1-3.1,1.6c-1.3,1-3,0.6-4.4,1.5c-2.1-0.1-3.7,1.6-5.8,1.2
			c-0.6,0-1.2-0.1-1.8-0.1c-6.4-0.1-12.7,0.2-19-0.3c-1.7-0.1-3-1.5-4.7-1.7c-0.8-0.2-1.7-0.5-2.5-0.8c-1.7-0.3-2.9-1.8-4.6-2
			c-15.6-8.8-31-17.9-46.5-26.8c-19.1-11-38.3-22-57.3-33.1c-18.3-10.6-36.6-21.1-54.9-31.7c-17.6-10.2-35.2-20.3-52.8-30.5
			l-49.1-28.3c-1.1-0.6-1.9-1.7-3.1-2.2c-1.2-0.2-1.7-1.5-2.7-1.9c-0.7-0.6-1.4-1.2-2-1.9c-0.2-0.2-0.5-0.4-0.7-0.6
			c-0.2-0.2-0.4-0.4-0.6-0.6c-0.5-0.6-1-1.1-1.5-1.7c-0.6-0.8-0.9-1.6-1.1-2.6C0.8,386,0.3,385.1,0.6,384.1z"/>
		<path class="st1" d="M423.3,308.8c1.1,2.3,2.1,4.7,3.2,7c0.7,1.5,1.2,3,1.4,4.6c0.3,2.3,0.6,4.6,1,6.9c0.5,2.6,0.5,5.4,0,8
			c-0.5,2.4-0.8,4.8-1.1,7.2c-0.1,1.3-0.5,2.5-1,3.7c-1.6,3.4-3.1,6.8-4.7,10.1c-0.5,0.9-1,1.8-1.7,2.6c-2.5,3.1-5,6.1-7.4,9.2
			c-1,1.2-2,2.2-3.2,3.2c-6.6,5.5-13.3,10.9-19.9,16.4c-1.4,1.1-2.6,2.3-3.7,3.7c-2.4,3-4.8,6-7.2,9c-0.7,0.8-1.2,1.7-1.6,2.6
			c-1.5,3.3-3,6.5-4.5,9.8c-0.5,0.9-0.8,2-0.9,3c-0.5,3.7-1.1,7.4-1.7,11c-0.1,0.6-0.1,1.2,0,1.7c0.5,3.3,1,6.7,1.6,10
			c0.3,1.8,0.1,3.7-0.7,5.4c-1.5,3.2-3.7,5.9-6.4,8.1c-2.8,2.3-5.9,4.1-9.2,5.6c-1.9,1.8-4.3,1.5-6.6,1.5c-22.4,0-44.8,0-67.2,0
			c-12.8,0-25.5,0-38.3,0c-2.2,0-4.4,0.2-6.2-1.5c-1.8-1-3.7-1.9-5.5-3c-2.4-1.4-4.6-3.2-6.4-5.3c-1.7-1.9-3.1-4.1-4-6.5
			c-0.5-1.2-0.6-2.5-0.4-3.8c0.4-2.4,0.6-4.8,1-7.2c0.5-2.8,0.4-5.6-0.1-8.3c-0.5-2.4-0.8-4.8-1.1-7.2c-0.1-1.2-0.5-2.3-0.9-3.3
			c-1.6-3.4-3.1-6.7-4.7-10.1c-0.4-0.9-1-1.8-1.7-2.6c-2.6-3.2-5.1-6.3-7.7-9.5c-0.7-0.9-1.5-1.7-2.4-2.5
			c-6.9-5.7-13.8-11.3-20.7-17c-1.2-0.9-2.2-2-3.2-3.2c-2.3-2.9-4.6-5.8-7-8.7c-1-1.2-1.8-2.4-2.4-3.8c-1.4-3.1-2.8-6.1-4.2-9.1
			c-0.5-1.1-0.8-2.2-1-3.3c-0.5-3.7-1.1-7.3-1.7-11c-0.1-0.6-0.1-1.2,0-1.7c0.6-3.8,1.2-7.6,1.7-11.4c0.2-1,0.5-2,1-3
			c1.2-2.5,2.3-5,3.5-7.6c0.5,0,0.9,0,1.4,0.1c0.5,0.2,1,0.5,1.5,0.8c10.7,6.1,21.3,12.3,31.9,18.4c1.1,0.5,2,1.1,2.8,2
			c-1.3,2.1-3.6,1.6-5.5,2c-1.2,0.3-2.5,0-3.7,0.6c-1.7,0.3-3.5,0-4.9,1.3c-0.8,0.2-1.5,0.4-2.3,0.5c-1,0.2-1.9,0.7-2.6,1.3
			c-0.6,0.5-1.5,0.8-2.1,1.4c-0.5,0.5-1,1-1.6,1.4c-1,0.5-1.1,1.8-1.8,2.5c-2,2.8-1.6,5.5,0.6,8c0.4,1,1.1,1.8,2,2.3
			c0.4,0.6,0.9,1.1,1.4,1.5c0.5,0.4,1.1,0.8,1.6,1.2c0.5,0.2,1,0.3,1.5,0.6c0.3,0.2,0.7,0.4,1.1,0.6c0.3,0,0.6,0.1,0.8,0.1
			c0.7,0.2,1.4,0.5,2.1,0.8c1.9,0.3,3.6,0.8,5.5,1.3c3,0.7,6.3-0.9,8.9,1.7c2.1,0.2,4.2-0.1,6.2-0.6c4-0.8,7.8-2.4,11.1-4.7
			c1.6-1.2,3-2.6,4-4.3c0.6-1,1-2.1,1.2-3.3c0.1-0.6,0.2-1.1,0.4-1.7c0.1-0.3,0.6-0.5,0.9-0.4c0.8,0.4,1.7,0.8,2.5,1.3l21.7,12.5
			l38.6,22.3c0.4,0.2,0.8,0.4,1.2,0.7c0.6,0.4,1.4,0.3,2-0.1l0.9-0.5c11.5-6.6,23-13.2,34.4-19.9c0.7-0.4,1.4-0.9,2-1.3
			c0.5-0.7,0.7-1.6,1.5-2.1c0.5-0.2,1-0.5,1.5-0.8c0.5-0.3,1-0.6,1.5-0.8c0.8-0.3,1.4-1,2.2-1.3c1.1-0.2,1.6-1.4,2.7-1.6
			c1.8-0.7,3-2.2,4.9-2.7c2.2-2,5-3.2,8.2-5.1c-3.8,0.6-6.5-1-9.4-1.4c-1.5-0.1-2.7-1.4-4.2-1.5c-0.9-0.7-1.9-1.2-3-1.7
			c-0.6-0.5-1.1-1.1-1.7-1.6c-0.6-0.7-1.3-1.4-2-2c-0.4-0.3-0.7-0.6-1-1c-0.5-1.3-0.6-2.8-1.1-4.1c0-0.5,0-0.9,0-1.4
			c-0.3-3.4,1.1-6.1,3.4-8.4c1.3-1.3,2.9-2.4,4.5-3.2c3.6-1.9,7.5-3.1,11.6-3.5c3.9-0.5,7.9-0.5,11.8,0c4.1,0.5,8,1.6,11.6,3.5
			c1.3,0.7,2.5,1.6,3.7,2.6c2.1,1.7,3.5,4.1,4,6.8c0.1,0.5,0.2,0.9,0.3,1.4c0.1,0.2,0.3,0.3,0.5,0.3c0.4,0,0.7-0.1,1-0.3
			c1.3-0.7,2.6-1.5,3.9-2.3l28.7-16.5C421.1,309.5,422.2,309,423.3,308.8z"/>
		<path class="st1" d="M413.1,137.1l0.2-3.3c1.6-2.6,0.2-4.7-1.5-6.5c-4.5-5.2-10.6-7.2-17.2-8.2c-1.1-0.2-2.3-0.1-3.4-0.4
			c10-6,20.3-11.6,30.4-17.7c1.4-0.9,2.7-1.8,2.8-3.7c0-1.5-0.5-3-1.5-4.2c-5.5-6.7-11-13.3-18-18.7c-15-11.5-32-18.6-49.9-23.9
			c-11.5-3.3-23.3-5.5-35.2-6.5c-11.4-1.1-22.9-1.3-34.4-0.7c-10.4,0.6-20.8,1.8-31.1,3.7c-13.8,2.5-27.3,6.6-40.1,12.4
			c-11.5,5.1-22.1,11.9-31.4,20.3c-4.3,4.2-8.3,8.8-11.7,13.7c-1,1.3-1.6,2.9-1.7,4.5c0.1,1.7,1.3,2.6,2.6,3.4
			c10.6,6.3,21.3,12.4,32,18.5c1,0.7,2.2,0.8,3.3,0.4c1.7-1,1.2-3,1.9-4.4c0.4-0.8,0.8-1.5,1.4-2.2c0.4-0.5,0.9-1,1.4-1.5
			c0.4-0.5,1-1,1.6-1.3c0.7-0.2,1.1-0.9,1.8-1.2c1-0.3,1.9-0.8,2.8-1.4c1.2-0.7,2.7-0.6,4-1.3c0.9-0.3,1.9-0.5,2.9-0.5
			c4.8-1.1,9.6-0.7,14.4-0.4l0.9,0.4c0.9,0.3,1.8,0.4,2.8,0.5c0.8,0.3,1.7,0.6,2.5,1c1,0.3,1.9,0.6,2.9,1s1.7,1.2,2.7,1.5
			c0.9,0.5,1.7,1.1,2.5,1.8c1,0.8,1,2.2,2,3c1.7,2.4,2,4.8-0.3,7.2c-1,0.8-0.9,2.3-2.2,2.9c-0.9,0.5-1.2,1.7-2.3,2.1
			s-1.7,1.2-2.7,1.4c-1.9,0.3-3.4,1.6-5.3,1.9c-1.2,0.1-2.4,0.4-3.6,0.7c-2.7,0.5-5.6-0.4-8.3,1c-1.3,2.5,0.5,3.6,2.2,4.6
			c8.7,5.1,17.4,10.1,26.2,15.2c10.3,6,20.7,11.9,31,17.9c1.8,1,3.5,2.3,5.7,2.6c4.5-0.4,7.7-3.5,11.4-5.6
			c16.9-9.7,33.8-19.3,50.5-29.2c2.1-1.2,3.2-0.6,3.9,1.4c0.4,0.5,0.8,1,1.2,1.5c0.5,0.7,1,1.6,1.6,2.3c0.5,0.5,1.1,1.1,1.7,1.6
			c0.8,0.4,1.5,0.9,2.2,1.5c1.1,0.2,1.7,1.3,2.8,1.5c0.6,0.2,1.1,0.6,1.7,0.8c0.8,0.2,1.6,0.5,2.4,0.8c1.1,0.1,2.1,0.4,3.1,0.9
			c5.9,1.3,11.9,0.9,17.9,0.3c1.2-0.1,1.9-1.1,3.1-1.3c1.6-0.1,2.7-1.3,4.3-1.5c0.6-0.2,1.2-0.4,1.8-0.7c0.7-0.6,1.4-1.1,2.3-1.5
			c0.6-0.6,1.4-1.2,2.1-1.6c0.5-0.7,1-1.5,1.6-2.1c0.3-0.4,0.5-0.8,0.6-1.2C412.5,139.2,412.8,138.1,413.1,137.1z"/>
		<path class="st0" d="M170.3,98.3c0.9-2.2,2.1-4.2,3.6-5.9c2.1-2.5,4.1-5,6.1-7.6c1-1.3,2.2-2.4,3.4-3.5c3.4-2.8,6.8-5.6,10.2-8.4
			c0.9-0.7,1.9-1.4,2.9-2c4.3-2.5,8.6-5,13-7.5c1.3-0.7,2.7-1.4,4.1-2c4.1-1.7,8.2-3.3,12.3-5c3.4-1.4,7-2.5,10.6-3.4
			c3.1-0.8,6.3-1.6,9.4-2.5c4.1-1.2,8.3-2,12.6-2.6c3.7-0.5,7.4-1.2,11-1.7c2.4-0.4,4.8-0.7,7.3-0.9c5.6-0.2,11.1-0.5,16.7-0.8
			c4.2-0.1,8.4-0.1,12.5,0.2c2.9,0.1,5.8,0.4,8.7,0.5c2.9,0.1,5.8,0.3,8.7,0.8c6.1,0.9,12.2,1.9,18.3,2.8c1.1,0.2,2.3,0.5,3.4,0.8
			c5.6,1.5,11.2,3,16.8,4.6c1.2,0.3,2.4,0.7,3.6,1.2c5.3,2.1,10.6,4.2,15.8,6.4c1.1,0.4,2.1,1,3.1,1.5c4.4,2.5,8.9,5.1,13.3,7.7
			c1,0.6,2,1.3,2.9,2c3.5,2.9,7,5.8,10.5,8.7c1,0.8,1.9,1.7,2.7,2.7c2.5,3.1,4.9,6.2,7.5,9.2c1,1.3,1.8,2.7,2.5,4.2
			c1.8,1.4,3.4,0.3,4.8-0.5c6.7-4,13.7-7.7,20.3-11.9c1.2-0.6,2.1-1.8,2.3-3.2c-0.8-0.5-1.5-1.1-2.3-1.6l-64.6-37.4L324.4,8.6
			c-1.8-1-3.7-2-5.5-3c-4-2.1-8.4-3.6-12.9-4.3c-3.7-0.7-7.4-1-11.1-0.8c-5.8,0.2-11.6,1.3-17,3.4c-2.2,0.9-4.3,1.9-6.3,3.1
			c-7.1,4.1-14.3,8.2-21.5,12.3l-57.1,33c-16,9.2-32,18.5-48,27.7c-1.1,0.6-2.3,1.1-3.1,2.2c0.5,1.6,1.5,2.9,3,3.7
			c7.1,3.9,14,8.2,21.2,12.1C167.6,98.8,168.9,99.6,170.3,98.3z"/>
		<path class="st2" d="M9.9,395c1.1,0.6,2.3,1.2,3.4,1.8c26.6,15.3,53.1,30.7,79.7,46c26.9,15.6,53.9,31.2,80.8,46.8l96.6,55.8
			c1.3,0.6,2.4,1.4,3.5,2.3c1.1,1.4,1.6,3.1,1.5,4.8c0,6.6,0.1,13.1,0,19.7c0,1.7,0.2,3.5-1.7,4.6c-2.5-1.4-5.1-2.8-7.6-4.2
			c-6.9-4-13.9-8-20.8-12c-13-7.5-25.9-15-38.9-22.5c-11.3-6.6-22.7-13.1-34.1-19.7c-11.3-6.5-22.5-13-33.8-19.5
			c-9.4-5.5-18.9-10.9-28.4-16.4c-11.2-6.4-22.3-12.9-33.5-19.3c-7.2-4.2-14.4-8.5-21.7-12.6c-6.7-3.9-13.5-7.8-20.2-11.7
			c-8-4.6-15.9-9.2-23.9-13.8c-0.5-0.3-0.9-0.7-1.4-1.1c-0.6-1.6-1-3.3-1-5c0-6.5-0.1-12.9,0.1-19.4C8.4,397.9,8,396,9.9,395z"/>
		<path class="st3" d="M318.3,548.3c0.3-0.2,0.5-0.4,0.8-0.6l44.7-25.7c19-11,38-21.9,57-32.9c17.5-10.1,35-20.2,52.5-30.3
			c29.3-16.9,58.5-33.8,87.8-50.8c6.2-3.6,12.5-7.2,18.7-10.8c1-0.7,2.2-1.3,3.4-1.7c1.8-0.2,2.3,1.1,2.3,2.4
			c0.1,8.6,1.1,17.1-0.7,25.7c-0.5,0.7-1.1,1.2-1.8,1.5c-5.9,3.3-11.7,6.6-17.5,10.1c-4,2.4-8.1,4.6-12.1,6.9
			c-1.4,0.8-2.8,1.6-4.2,2.5l-15.3,9l-13,7.5c-4.5,2.6-9,5.3-13.6,7.8c-4.3,2.5-8.7,5-13,7.5c-4,2.4-8.1,4.6-12.1,6.9
			c-1.3,0.8-2.6,1.5-3.9,2.3c-4.8,2.8-9.7,5.5-14.5,8.3c-3.4,2-6.8,4-10.2,6c-3.7,2.2-7.5,4.3-11.2,6.4l-15.1,8.8
			c-2,1.2-4,2.3-6,3.5c-5.2,3-10.5,6-15.7,9s-10.2,6-15.3,9s-10.5,6-15.7,9s-10.2,6-15.3,9c-2.3,1.3-4.7,2.6-7,3.9
			c-3.3,1.9-6.6,3.8-10,5.8l-6.8,4l-7.2,4.2c-2,1.2-4,2.3-6,3.5c-0.5,0.2-1.1,0.4-1.6,0.6c-2.4-0.2-2.1-2.1-2.1-3.7
			C318.3,564.5,318.3,556.4,318.3,548.3z"/>
		<path class="st3" d="M363.5,138.6c-0.3-1.2-0.5-2.5-0.8-3.7c-0.2-0.8-0.8-1.1-1.5-0.7c-3.6,2.1-7.3,4.1-10.9,6.2
			c-16.4,9.4-32.7,18.9-49.1,28.3c-1.5,0.9-3,1.8-4.5,2.6s-1.6,2.2-1.6,3.6c-0.2,7.2-0.1,14.4,0,21.6c0,1.5,0.5,3,1.5,4.1
			c0.8-0.1,1.6-0.4,2.3-0.8c6.3-3.6,12.6-7.3,19-11l21.4-12.3c5.1-2.9,10.2-5.9,15.3-8.9c2-1.2,4-2.3,6-3.4c1-0.5,1.4-0.4,1.9,0.6
			l0.5,0.9c0.8-0.5,1.2-1.5,1.1-2.4C363.8,155.2,364.5,146.9,363.5,138.6z"/>
		<path class="st2" d="M296.6,200.8c0-8.3,0-16.6,0-24.9c0-1.5,0-3,0.1-4.5L234,135.2c-1.1-0.5-2-1.2-2.9-2
			c-0.7-0.5-0.9-0.2-0.9,0.5c0,8.4,0,16.7,0,25.1c0,1,0.1,2.1,0.1,3.1c0.1,0.6,0.4,1.1,0.9,1.5c0.3,0.2,0.6,0.4,0.9,0.6
			c4.2,2.4,8.4,4.9,12.6,7.3c5.3,3.1,10.7,6.1,16,9.1c3.4,2,6.8,4,10.2,6c2.3,1.3,4.7,2.6,7,3.9c3.5,2,7,4.1,10.5,6.1
			c2.1,1.2,4.2,2.5,6.3,3.6C295.5,200.4,296,200.6,296.6,200.8z"/>
		<path class="st2" d="M170.3,98.3c-0.8-0.3-1.5-0.6-2.2-1c-8.7-5-17.3-10-26-15.1c-0.2,0.8-0.3,1.6-0.3,2.4c0,8.1,0,16.3,0,24.4
			c0,0.2,0,0.5,0,0.7c-0.1,1.2,0.5,2.3,1.6,2.9c2.6,1.5,5.2,3.1,7.8,4.6c5.1,3,10.3,5.8,15.4,8.8c3.4,2,6.8,4,10.2,6
			c3.7,2.1,7.4,4.3,11.2,6.4c5,2.9,10,5.8,15,8.7c1,0.6,2.1,1.1,3.1,1.6c0.5,0.1,0.9-0.1,1.2-0.5c0.4-0.8,0.7-1.7,0.8-2.6
			c1.2-7.3,0.6-14.7,0.7-22.1c0-1.4,0.1-2.8-1.4-3.6c-6.9-4-13.9-8-20.8-12c-4.1-2.4-8.2-4.7-12.4-7.1
			C172.9,99.9,171.6,99.1,170.3,98.3z"/>
		<path class="st3" d="M451.1,82.1c-2.7,1.6-5.4,3.2-8.1,4.8c-5.5,3.2-11,6.4-16.5,9.6c-0.9,0.6-1.8,1-2.8,1.3
			c-0.8,0.8-1.8,1.5-2.8,2l-18.1,10.4l-14.2,8.2c-0.5,0.3-1.1,0.5-1.3,1.1c-0.1,0.1-0.1,0.2,0,0.3c0.1,0.1,0.2,0.1,0.3,0.2l5.5,0.6
			c4.2,0.4,8.2,1.6,12,3.6c1.3,0.7,2.6,1.5,3.8,2.5c2.3,1.8,3.9,4.4,4.4,7.3c2.3-1.3,4.7-2.6,7-3.9c9.1-5.2,18.1-10.5,27.2-15.7
			c1.1-0.6,2.2-1.3,3.3-2c0.3-0.3,0.6-0.7,0.7-1.1c0.1-0.5,0.2-0.9,0.1-1.4c0-8.4,0-16.8,0-25.1C451.7,83.7,451.5,82.8,451.1,82.1z"
			/>
		<path class="st4" d="M305.1,581.7c-0.5,0-0.9,0-1.4,0.1c-3.4,0.9-6.9,0.6-10.3,0.6c-0.8-0.1-1.6-0.2-2.4-0.3l-2.7-0.3
			c-1.5-0.7-2.4-2.3-2.2-4c-0.1-6.9-0.2-13.9,0-20.8c0.1-3.5,0.9-4.1,4.5-4.2c4.6,0,9.2-0.1,13.9,0c1.3,0.3,2.2,1.5,2.1,2.9
			c0.3,7.8,0.3,15.6,0,23.4C306.4,580.1,305.9,581.1,305.1,581.7z"/>
		<path class="st5" d="M397.1,148.5c-0.6,0-1.1,0-1.7,0.1c-3.4,0.6-6.8,0.8-10.3,0.6c-1.4,0-2.7-0.3-4.1-0.5
			c-0.9-0.1-1.8-0.2-2.7-0.3c2,9.8,1.3,19.6,0.6,29.4c1.8,0.8,3.7,1.2,5.7,1.2c3.9,0.3,7.9,0,11.7-0.8c0.3-0.1,0.6-0.3,0.9-0.4
			c-1.8-4.1-1.2-8.4-1.2-12.6C395.9,159.6,395.5,153.9,397.1,148.5z"/>
		<path class="st5" d="M230.4,133.8l0.9-0.5c2.4-0.1,4.7-0.1,7.1-0.3c0.7,0,1.4-0.2,1.9-0.5c0.7-2,0.9-4.1,0.8-6.2
			c0-7.1,0.1-14.2-0.2-21.3c-0.1-0.1-0.2-0.1-0.3-0.2c-2.3-0.6-4.7-0.9-7.1-0.9c-2.3,0-4.6,0.3-6.9,0.5c-0.7,0-1.4,0.2-1.9,0.6
			c1.1,8.6,0.4,17.3,0.5,25.9c0,1.1-0.4,2.3,0.3,3.4c0.9-0.1,1.7-0.1,2.6-0.2S229.6,133.9,230.4,133.8z"/>
		<path class="st6" d="M208,359c-2.9,0.4-5.9,0.3-8.8-0.2c-0.3-0.1-0.7-0.2-1-0.4c-0.9-2-0.8-4.1-0.9-6.1
			c-0.2-7.1,0.6-14.2-0.6-21.2c0.6-0.4,1.3-0.6,1.9-0.6c2.7-0.4,5.4-0.6,8.2-0.7c0.7,0.5,1.1,1.3,1.1,2.1c0,0.7,0.1,1.4,0.1,2.1
			C208,342.4,208,350.7,208,359z"/>
		<path class="st7" d="M584.9,423.4c-0.4-0.6-0.7-1.2-0.7-1.9c0-0.9,0-1.9,0-2.8V400c0-0.9,0-1.9-0.1-2.8c0-0.7-0.3-1.4-0.8-1.9
			c0.1-0.2,0.3-0.3,0.5-0.5c2.1-1.5,4.1-3.1,6-4.9c2.5,0.2,2,2.1,2,3.6c0,7.8,0.4,15.7-0.7,23.5c-0.1,0.5-0.4,1-0.7,1.5
			C589,420.6,587.1,422.2,584.9,423.4z"/>
		<path class="st8" d="M304.4,553.1c-4.1,0-8.1,0-12.2,0c-0.9,0-1.9,0.1-2.8,0.2c-0.8,0.2-1.5,0.8-1.6,1.6c-0.1,0.7-0.2,1.4-0.2,2.1
			c0,7,0,14,0,20.9c-0.1,1.3,0.2,2.6,0.7,3.7c-2.1-0.3-4.2-0.8-6.3-1.4c-1-1-1.5-2.4-1.4-3.8c0-7.2,0-14.4,0-21.6
			c0-2.5,0.8-4.1,3.8-3.3c0.7,0,1.4,0.1,2,0.2c4.8,1,9.6,0.9,14.4,0.8l3.4-0.1c0.3,0.2,0.3,0.3,0.3,0.5S304.5,553.1,304.4,553.1z"/>
		<path class="st9" d="M397.1,148.5c-0.1,0.1-0.2,0.1-0.3,0.2c-2,1.1-2.5,1-2.5,4.1c0,7.1,0,14.2,0,21.2c0,0.5,0,0.9,0,1.4
			c0.1,1.4,0.6,1.9,2.1,2.3c0.2,0.1,0.5,0.1,0.7,0.1c1,0.1,1.9-0.1,2.7-0.7c1-1.1,1.5-2.6,1.4-4.1c0-7.2,0-14.3,0-21.5
			c0-1.4,0-2.8-1.4-3.7C398.9,147.7,398,148,397.1,148.5z"/>
		<path class="st10" d="M311.3,551c1.3-0.7,2.7-1.2,4.1-1.4c2.2-0.7,2.8,0.7,2.9,2.3c0.1,7.7,0.1,15.5,0,23.2c0,1.2-0.8,2.1-1.4,3.1
			c-1.3,0.8-2.7,1.3-4.2,1.4c-1.8-1-1.6-2.7-1.6-4.3C311.1,567.3,310.9,559.1,311.3,551z"/>
		<path class="st9" d="M378.9,177.8l0.6-0.2c0.8-0.3,1.4-1,1.4-1.8c0.1-1,0.1-2.1,0.1-3.1c0-5.6,0-11.1,0-16.6
			c0-1.9,0.1-3.7,0.1-5.5c0-0.5-0.3-0.9-0.7-1.1c-0.7-0.3-1.6-0.4-2.2-1c-0.8-0.5-1.8-0.8-2.8-0.8c-0.1,9.1,0,18.1,0,27.2
			c0.1,0.8,0.3,1.6,0.6,2.3C376.9,177.7,377.9,177.9,378.9,177.8z"/>
		<path class="st11" d="M225.5,134.4c0.9-0.8,1.4-1.9,1.4-3.1c0-1.2,0-2.3,0-3.5c0-5.9,0-11.8,0-17.8c0-0.9,0-1.9,0-2.8
			c-0.1-1.4-0.4-1.7-2.2-2.2c-1-0.1-2,0.1-2.9,0.7c-1.4,9-0.5,18.1-0.6,27.1c0,0.8,0.3,1.6,0.8,2.3
			C223.2,135.1,224.4,134.8,225.5,134.4z"/>
		<path class="st12" d="M304.4,553.1v-0.7l1.1-0.1c4.2-0.5,5.2,0.2,5.3,4.2c0.2,6.7,0.1,13.4,0,20.2c0,1.8-0.4,3.5-2.3,4.3
			c-1.1,0.4-2.3,0.6-3.5,0.7v-23.9c0-0.9,0-1.8,0-2.8C305,554.4,304.8,553.7,304.4,553.1z"/>
		<path class="st13" d="M308.5,581c0.4-0.9,0.7-2,0.7-3c0-7.4,0-14.9,0-22.3c0-2-0.5-3.2-3-3.3c-0.2,0-0.5,0-0.7,0
			c1.9-0.7,3.8-1.2,5.8-1.3c0.8,0.2,1.4,1,1.4,1.8c0,1,0.1,2.1,0.1,3.1c0,7.9,0,15.8,0,23.7C311.5,580.6,310.1,581,308.5,581z"/>
		<path class="st14" d="M222,135.1c0.6-1.3,0.8-2.7,0.7-4.1V113c-0.1-1.8,0-3.7,0.4-5.5c0.2-1-0.5-1.4-1.3-1.8
			c-1.5,0.1-2.9,0.6-4.1,1.5c-0.3,8.2-0.2,16.3-0.1,24.5c0,1.6-0.2,3.3,1.6,4.3C220.2,135.9,221.2,135.6,222,135.1z"/>
		<path class="st15" d="M219.2,136c0-8,0-15.9,0-23.8c0-1,0-2.1-0.1-3.1c0-0.8-0.6-1.5-1.4-1.8c-1.1,0.1-2,0.6-2.8,1.4
			c-0.5,9.8-0.5,19.6,0.1,29.3C216.5,137.5,217.9,136.8,219.2,136z"/>
		<path class="st16" d="M9.9,395v24.3c0,0.9,0,1.9,0,2.8c0,0.7-0.2,1.4-0.6,2c-1.5-0.5-2.7-1.5-3.6-2.7c-0.7-8.5-0.2-17.1-0.3-25.7
			c0-1.2,0.2-2.4,1.8-2.3C8.3,393.7,9.2,394.2,9.9,395z"/>
		<path class="st17" d="M273.5,576.7c0-1.4,0.1-2.8,0.1-4.2c0-6.9,0-13.9,0-20.8c0-1.4,0.1-2.8,0.2-4.2c1.5,0.5,2.9,1.1,4.1,2
			c0.5,8.9,0.1,17.7,0.2,26.6c0.1,0.8-0.3,1.6-1,2.1C275.9,578,274.6,577.5,273.5,576.7z"/>
		<path class="st18" d="M284.4,551.7c-0.3,0.1-0.7,0.1-1,0.2c-0.7,0.2-1.2,0.8-1.3,1.5c-0.1,1-0.1,2.1-0.1,3.1c0,8,0,15.9,0,23.9
			c-1.3-0.2-2.5-0.6-3.5-1.4c-0.8-8.8-0.2-17.7-0.3-26.5c0-1.1,0.3-2.1,1.7-2.1C281.5,550.5,283.1,550.9,284.4,551.7z"/>
		<path class="st19" d="M399.9,147.8v29.3l0.7-0.1c0.4-0.4,1-0.2,1.4-0.6c0.5,0,1.1-0.2,1.5-0.6c0.5-6.8,0.2-13.6,0.2-20.4
			c0-3.1,0.3-6.1,0.3-9.2C402.6,146.4,401.2,147,399.9,147.8z"/>
		<path class="st17" d="M316.9,578.2v-23.7c0-1,0-2.1-0.1-3.1c0-0.8-0.6-1.6-1.4-1.8c0.8-0.7,1.8-1.2,2.9-1.3c0.8,0.2,1.4,1,1.4,1.8
			c0,1,0.1,2.1,0.1,3.1c0,6.2,0,12.5,0,18.7c0,0.8,0,1.6,0,2.4c0,0.7,0.3,1.4,0.7,1.9C319.3,577.1,318.2,577.7,316.9,578.2z"/>
		<path class="st20" d="M376.1,177.1c0.4-0.5,0.7-1.2,0.7-1.9c0-0.9,0-1.9,0-2.8c0-6.1,0-12.2,0-18.3c0-1.4,0.1-2.8,0.3-4.1
			c0.1-0.6-0.1-1.2-0.6-1.5c-0.4-0.3-0.7-0.6-1-0.9c-0.6-0.5-1.3-0.7-2.1-0.7c-0.8,3.1-0.3,6.2-0.4,9.3c-0.1,5.4,0,10.9,0,16.4
			c0,1.4,0,2.8,1,3.9C374.7,176.9,375.4,177.1,376.1,177.1z"/>
		<path class="st21" d="M372,146.2c-0.8-0.7-1.8-1.2-2.8-1.5c-0.7,0.4-1.1,1.2-1.1,2c0.1,8.9-0.4,17.9,0.3,26.8
			c0.6,0.6,1.3,1.1,2.1,1.4c1.6,0.6,2.3-0.4,2.3-1.6c0-8.5,0.4-17-0.2-25.6C372.7,147.2,372.4,146.7,372,146.2z"/>
		<path class="st16" d="M591.2,417.1c-0.4-0.6-0.7-1.2-0.7-1.9c0-0.9,0-1.9,0-2.8c0-6,0-12,0-18.1c0-0.9,0-1.8-0.1-2.8
			c-0.1-0.6-0.3-1.1-0.6-1.6c1.3-2,2.5-4.1,3.3-6.4c0,1.4,0.1,2.8,0.1,4.2c0,5.9,0,11.9,0,17.8c0.1,3.1-0.2,6.3-0.8,9.4
			c-0.1,0.3-0.3,0.5-0.5,0.8c-0.1,0.2-0.1,0.4-0.2,0.6C591.6,416.6,591.4,416.8,591.2,417.1L591.2,417.1z"/>
		<path class="st22" d="M207.3,119.8c0,1.7,0.1,3.4,0.1,5.2c0,5.9,0,11.7,0,17.6c-0.2,1,0,2.1,0.6,3l1.5-3.1c0.1-0.4,0.3-0.8,0.7-1
			v0.1c0.5-1.2,0.8-2.4,0.9-3.7c0-6.9,0.1-13.9-0.1-20.8c0-1.1,0.7-4-2.4-2.2c-0.8,0.7-0.8,1.6-1,2.5S207.4,119,207.3,119.8z"/>
		<path class="st23" d="M409.6,142.6c-0.8,0.3-1.5,0.9-2,1.6c-1.4,1.1-1.7,2.6-1.7,4.3c0,7.3,0,14.5,0,21.8c0,1.3-0.4,2.9,1.6,3.2
			c1-0.4,1.8-1.1,2.3-2c0.6-9.4,0.1-18.7,0.3-28.1C410.1,143.1,409.8,142.8,409.6,142.6z"/>
		<path class="st16" d="M368.5,173.6c0.4-0.5,0.7-1.2,0.7-1.9c0-0.9,0-1.8,0-2.8c0-6.6,0-13.1,0-19.7c0-1.5,0-3,0.1-4.5
			c-0.5-0.6-1.3-1.1-2.1-1.4c-1.5,1.1-1.1,2.7-1.1,4.1c-0.1,8,0.2,15.9-0.2,23.9C366.5,172.4,367.4,173.1,368.5,173.6z"/>
		<path class="st24" d="M7.2,393.3c-0.5,0.5-0.7,1.2-0.8,1.9c0,0.9,0,1.8,0,2.8v18.7c0,0.9,0,1.8,0,2.8c0,0.7-0.3,1.4-0.7,1.9
			c-0.9-0.5-1.6-1.2-2-2.1c-0.8-8.4-0.2-16.7-0.3-25.1c0-1.2,0.3-2.3,1.7-2.7C6,391.8,6.7,392.5,7.2,393.3z"/>
		<path class="st25" d="M372,146.2c0,8,0,16-0.1,24.1c0,1.1,0,2.1-0.1,3.1c-0.1,0.7-0.6,1.3-1.3,1.5c1,0.8,2.2,1.3,3.4,1.5
			c0-8.5,0-17,0-25.5c0.1-1.4-0.2-2.8-0.7-4.1C373,146.5,372.6,146.2,372,146.2z"/>
		<path class="st26" d="M404,146.2c-0.9,1.1-1.4,2.4-1.4,3.8c0,7.6,0,15.3,0,22.9c-0.1,1,0.2,2.1,0.8,2.9c1-0.2,2-0.7,2.8-1.4
			c-0.9-2.6-0.3-5.3-0.4-7.9c-0.3-7,0.5-14-0.4-21C404.9,145.5,404.4,145.7,404,146.2z"/>
		<path class="st27" d="M215,138c0.6-1.4,0.8-2.9,0.7-4.4c0-6.3,0-12.5,0-18.8c0-1.3,0-2.6,0-3.8c0-0.8-0.2-1.6-0.8-2.3
			c-0.8,0.2-1.5,0.7-2,1.4c-0.7,8.8-0.2,17.5-0.3,26.3c-0.1,0.9,0.2,1.9,1,2.4L215,138z"/>
		<path class="st28" d="M280,550.3c-0.4,0.6-0.7,1.2-0.7,1.9c0,0.9,0,1.9,0,2.8v19.5c0,0.8,0,1.6,0,2.4c0,0.7-0.2,1.4-0.7,2
			l-1.4-0.7c0-7.9,0-15.8,0-23.7c0-1,0-2.1,0-3.1c0-0.7,0.3-1.4,0.8-1.9C278.8,549.6,279.5,549.9,280,550.3z"/>
		<path class="st2" d="M405.4,145.4c-0.4,1.2-0.7,2.5-0.6,3.8c0,7.3,0,14.6,0,21.9c0,0.5,0,0.9,0.1,1.4c-0.2,0.8,0.2,1.5,1,1.8
			c0.7,0.2,1.4-0.1,1.7-0.8c-0.2-0.5-0.4-1.1-0.6-1.6c-0.1-0.7-0.1-1.4-0.1-2.1c0-7.1,0-14.1,0-21.2c-0.1-1.5,0.1-3,0.6-4.4
			C406.7,144.4,406,144.8,405.4,145.4z"/>
		<path class="st29" d="M337.2,357.8c-0.5,0.6-1.3,1.1-2.1,1.2c0-2.5-0.1-5.1-0.1-7.6c0-5.3,0-10.6,0-15.9c0-1.5,0.1-3,0.1-4.5
			c0.7,1.3,1.3,2.5,2,3.8c0.7,1.1,1.1,2.3,1,3.6c0,5.4,0,10.8,0,16.2C338.2,355.8,337.9,356.9,337.2,357.8z"/>
		<path class="st30" d="M5,391.4c-0.5,1-0.7,2.2-0.7,3.4c0,1.9,0,3.7,0,5.5c0,5.2,0,10.4,0,15.6c0.2,1.2-0.1,2.3-0.7,3.3
			c-0.7-0.5-1.2-1.3-1.4-2.1c-0.7-8.3-0.2-16.5-0.3-24.8c0-1.1-0.1-2.4,1.1-3.1c0.6,0.4,1.1,0.9,1.4,1.6c0.2,0.1,0.4,0.3,0.5,0.5
			L5,391.4z"/>
		<path class="st31" d="M365.8,142c-0.3-0.7-0.8-1.3-1.5-1.8c-1,1.2-0.6,2.6-0.6,4c0,7.9,0,15.9,0,23.8c0,0.9,0.5,1.7,1.3,2.2
			c1.1,0.1,1.4-0.7,1.4-1.6c0-8.5,0.4-17.1-0.2-25.6C366.1,142.6,366,142.3,365.8,142z"/>
		<path class="st32" d="M213.6,138.8c0-7.9,0-15.8,0-23.7c0-1,0-2.1,0-3.1c0-0.7-0.3-1.4-0.7-1.9c-0.7,0.2-1.3,0.7-1.6,1.3
			c-0.3,8.5-0.1,16.9-0.1,25.4c0,1.1-0.1,2.4,1,3.2C212.8,139.7,213.3,139.3,213.6,138.8z"/>
		<path class="st33" d="M3,389.1c0,7.6,0,15.2,0,22.9c0,1,0,2.1,0,3.1c0,0.7-0.2,1.4-0.7,1.9c-0.8-1-1.3-2.2-1.4-3.5
			c0-7.6,0-15.1,0-22.7c0-1.3-0.4-2.8,0.7-3.9C2.3,387.6,2.8,388.3,3,389.1z"/>
		<path class="st34" d="M409.6,142.6c-0.4,1.4-0.6,2.9-0.6,4.4c0,7,0,13.9,0,20.9c0,0.7,0,1.4,0.1,2.1c0.2,0.5,0.4,1.1,0.7,1.6
			c0.6-0.3,1.1-0.8,1.3-1.5c0.8-9.4,0-18.9,0.5-28.3c0-0.4-0.3-0.6-0.5-0.9C410.4,141.2,409.8,141.8,409.6,142.6z"/>
		<path class="st35" d="M411.1,140.9c-0.5,1.7-0.8,3.4-0.7,5.1c0,6.7,0,13.4,0,20.1c0,0.8,0,1.6,0.1,2.4c0.1,0.6,0.3,1.1,0.6,1.6
			c0.8-0.7,1.3-1.7,1.4-2.8c-0.1-7.8,0-15.5,0-23.3c0-1.3,0.4-2.8-0.7-4L411.1,140.9z"/>
		<path class="st36" d="M212.2,139.9c0-8.1,0-16.2,0-24.3c0-0.8,0-1.6-0.1-2.4c-0.1-0.7-0.3-1.4-0.8-1.9c-0.6,0.3-1.1,0.8-1.3,1.5
			c0.9,8,0.2,16.1,0.4,24.1c0.1,1.3-0.4,2.8,0.4,4L212.2,139.9z"/>
		<path class="st37" d="M365.8,142c0,6.9,0,13.8-0.1,20.7c0,1.7,0,3.4,0,5.2c0,0.8-0.3,1.6-0.8,2.2c0.2,0.5,0.5,1,1,1.3
			c0.7-0.3,1.1-0.9,1.2-1.6c0-1,0.1-2.1,0.1-3.1v-18.8c0-1.5,0-3,0.1-4.5C366.9,142.7,366.4,142.2,365.8,142z"/>
		<path class="st38" d="M411.7,140v22.2c0,1,0,2.1,0,3.1c0,0.7,0.2,1.4,0.7,1.9c0.5-0.9,0.8-2,0.8-3c0-0.8,0-1.6,0-2.4
			c0-6.7,0-13.5,0-20.2c0-1.5-0.1-3-0.1-4.5L411.7,140z"/>
		<path class="st39" d="M363.6,168c0.2-0.5,0.4-1.1,0.6-1.6c0.1-0.7,0.1-1.4,0.1-2.1v-24.1c-0.3-0.5-0.6-1-0.8-1.6
			c-0.4,0.7-0.6,1.5-0.6,2.3c0,1.2,0,2.3,0,3.5l0.1,20.1c0,0.5-0.1,0.9-0.1,1.4C363,166.7,363.2,167.4,363.6,168z"/>
		<path class="st40" d="M1.6,387c0,7.2,0,14.4-0.1,21.5c0,1,0,2.1,0,3.1c0,0.7-0.2,1.4-0.6,1.9c-0.4-1.7-0.6-3.4-0.6-5.2
			c0-7.1,0-14.1,0-21.2c-0.1-1,0-2.1,0.3-3.1L1.6,387z"/>
		<path class="st41" d="M210.9,141c0-2.3-0.1-4.6-0.1-6.9c0-6,0-12,0-18c0.2-1.2-0.1-2.3-0.8-3.3c-0.7,0.5-1.2,1.2-1.4,2.1
			c1.1,0.1,1.4,0.3,1.4,1s0,1.8,0,2.8c0,6.2,0,12.5,0,18.7c0,1.4,0.1,2.8,0.1,4.1L210.9,141z"/>
		<path class="st9" d="M191.3,176.4c0.5,0,1,0.2,1.4,0.6C192.2,176.9,191.7,176.7,191.3,176.4z"/>
		<path class="st41" d="M210.2,141.5l-0.7,1C209.8,142.2,210.1,141.9,210.2,141.5z"/>
		<path class="st7" d="M591.9,415.7l0.5-0.8L591.9,415.7z"/>
		<path class="st7" d="M591.2,417.1l0.6-0.7L591.2,417.1z"/>
		<path class="st42" d="M237.1,457.6c1.1,0,2.1,0,3.1,0c37.6,0,75.2,0,112.8,0c0.8,0,1.6,0,2.4,0.1c-0.6,1.5-0.3,3.1-0.4,4.7
			c0.1,0.8-0.1,1.6-0.5,2.2c-1.4,0.9-2.9,1.4-4.6,1.5c-5.2-0.2-10.4,0.7-15.6,0.8c-16.6,0.5-33.1,1-49.7,2
			c-5.9,0.4-11.8,0.2-17.7,0.6c-7.1,0.5-14.4,0.3-21.5,0.9c-2.5,0.2-5.1-0.1-7.5-1c-0.4-0.6-0.6-1.3-0.5-2c0-2.1,0-4.1,0-6.2
			C237.4,459.9,237.2,458.8,237.1,457.6z"/>
		<path class="st42" d="M261.7,512.4l-13.5-4.6c-1.8-0.6-3.5-1.2-5.3-1.8c-1.1-0.4-1.3-0.8-1-2.2c0-0.1,0.1-0.2,0.2-0.3
			c1.2-0.8,2.4-0.1,3.6,0.1s2.6,0.6,3.9,0.7c1.8,0.3,3.7,0.4,5.6,0.4c29.8,0,59.6,0,89.4,0c1.7,0,3.5-0.5,4.9,1
			c-0.4,0.3-0.8,0.5-1.2,0.7c-5.5,1.9-11,3.7-16.6,5.5c-0.2,0.1-0.5,0.1-0.7,0.1c-2.8,1.1-5.8,1.6-8.9,1.6c-17.3,0-34.6,0-52,0
			C267.4,513.6,264.6,512.8,261.7,512.4z"/>
		<path class="st43" d="M242.3,500.9c-1.3-1.3-2.6-2.5-3.9-3.8c-0.3-0.3-0.3-0.9,0-1.2c0,0,0,0,0,0c2.4-1.1,5.1-1.6,7.8-1.6
			c16-0.6,32-1,48-2c6-0.4,12.1-0.4,18.1-0.6c9.4-0.3,18.8-1.2,28.2-0.9c2,0,4-0.1,5.9-0.4c2.9-0.6,5.9-0.1,8.4,1.4
			c-0.1,0.4-0.3,0.8-0.6,1.1c-1.1,1.1-2.2,2.2-3.3,3.3c-0.7,1.7-2.2,2-3.7,1.9c-6.3-0.2-12.5,0.6-18.8,0.8
			c-14.7,0.5-29.4,1-44.1,1.9c-5.5,0.4-11.1,0.1-16.7,0.6c-6.7,0.5-13.4,0.4-20.1,0.9C245.6,502.5,243.7,502.6,242.3,500.9z"/>
		<path class="st43" d="M242,491.7l-3.5-3.6c-0.3-0.3-0.5-0.8-0.4-1.2c1.4-1.1,3.2-1.6,4.9-1.6c5.8,0.2,11.6-0.6,17.4-0.8
			c16.6-0.5,33.1-1.1,49.7-1.9c7.2-0.3,14.4-0.5,21.6-0.8c4.6-0.2,9.3,0.1,13.9-0.6c3.1-0.6,6.3-0.1,9.1,1.4
			c-0.1,0.3-0.2,0.6-0.4,0.9c-1.2,1.2-2.4,2.4-3.7,3.6c-0.8,1.8-2.5,2-4.1,2c-7.7-0.2-15.3,0.6-22.9,0.9
			c-13.8,0.6-27.6,0.9-41.4,1.8c-6.4,0.5-12.8,0.1-19.1,0.8c-4.7,0.5-9.5,0.1-14.3,0.6C246.5,493.5,243.9,494.1,242,491.7z"/>
		<path class="st43" d="M354.6,473.6c-0.3,0.5-0.6,0.9-1,1.3c-1,1-2.1,2-3.1,3.1c-1,1.7-2.8,2.1-4.5,2c-8-0.3-16,0.5-24,0.9
			c-13.7,0.6-27.3,1-41,1.8c-7.2,0.4-14.4,0.5-21.5,0.9c-3.9,0.2-7.9,0-11.8,0.5c-1.9,0.3-4.3,0.8-5.7-1.4c-1.2-1.3-2.4-2.6-3.6-3.9
			c-0.3-0.2-0.4-0.6-0.3-0.9c1.4-1,3.1-1.6,4.9-1.6c5.4,0.2,10.7-0.7,16-0.8c16.4-0.5,32.7-1,49-1.9c6.7-0.4,13.5-0.3,20.2-0.6
			s13.2-0.6,19.8-0.9C350.3,471.8,352.6,472.4,354.6,473.6z"/>
		<path class="st43" d="M237.9,469.3c0.5-0.3,1.1-0.5,1.6-0.5l4.2-0.1c2.7-0.1,5.3-0.1,8-0.4s5.6-0.2,8.3-0.3
			c3.4-0.1,6.7-0.1,10.1-0.5c2.9-0.3,5.8-0.2,8.7-0.3s5.8-0.1,8.7-0.4c3.1-0.3,6.3-0.2,9.4-0.3c2.9-0.1,5.8-0.1,8.7-0.4
			c3.1-0.3,6.3-0.2,9.4-0.3c2.9-0.1,5.8-0.1,8.7-0.4s5.8-0.2,8.7-0.3s6-0.2,9-0.4c4.4-0.3,8.8-0.2,13.2-0.2c-1.3,1.5-2.6,3-4.1,4.3
			c-1.8,1.9-4.1,2-6.4,2c-14.1,0-28.2,1-42.4,1.6c-18.5,0.8-37,1.4-55.5,2.4c-1.6,0.1-3.3,0.4-4.3-1.5L237.9,469.3z"/>
		<path class="st42" d="M241.8,473.5c1.9-0.1,3.7-0.2,5.6-0.3c3-0.3,6-0.2,9-0.3c2.6,0,5.1-0.1,7.6-0.4c1.5-0.2,3-0.1,4.5-0.2
			c4.3-0.1,8.6-0.1,12.9-0.5c2.9-0.3,5.8-0.2,8.7-0.3c2.4-0.1,4.9-0.1,7.3-0.4c2.6-0.3,5.3-0.2,8-0.3c3-0.1,6-0.1,9-0.4
			c2.6-0.3,5.3-0.2,8-0.3s5.3-0.2,8-0.4c2.9-0.3,5.8-0.2,8.7-0.3c2.7,0,5.3-0.1,8-0.4c1-0.1,2.1-0.1,3.1-0.1
			c1.2,1.2,2.4,2.4,3.6,3.6c0.3,0.4,0.5,0.7,0.6,1.2c-4.5,0-9,0-13.6,0.4c-3.2,0.3-6.5,0.2-9.8,0.3c-2.5,0.1-5.1,0.1-7.6,0.4
			c-2,0.2-3.9,0.2-5.9,0.2c-2.9,0.1-5.8,0.1-8.7,0.2c-2,0.1-3.9,0.3-5.9,0.4c-2.7,0.1-5.3,0.1-8,0.2s-5.1,0.2-7.6,0.4
			c-3.4,0.3-6.7,0.2-10.1,0.3c-2.7,0.1-5.3,0.1-8,0.4c-3,0.3-6,0.2-9.1,0.3s-5.8,0.2-8.7,0.4c-3.1,0.3-6.3,0.2-9.4,0.3
			c-1.4,0-2.8,0-4.2,0c0.5-0.6,1-1.2,1.5-1.8C240.3,475.2,241.1,474.4,241.8,473.5z"/>
		<path class="st42" d="M241.9,482.6c2.6,0,5.1-0.1,7.6-0.4c2.9-0.3,5.8-0.2,8.7-0.3c2.7-0.1,5.3-0.1,8-0.4s5.6-0.2,8.4-0.3
			c2.8,0,5.6-0.1,8.4-0.4c1.4-0.1,2.8-0.2,4.2-0.2c4.2-0.1,8.4-0.1,12.5-0.5c2.9-0.3,5.8-0.2,8.7-0.3c2.4-0.1,4.9-0.2,7.3-0.4
			c2.8-0.3,5.6-0.2,8.4-0.3c2.9,0,5.8-0.1,8.7-0.5c0.8-0.1,1.6-0.1,2.4-0.1c5.1-0.1,10.2-0.1,15.3-0.6c0.9,0.9,1.8,1.8,2.7,2.7
			c0.5,0.6,1.3,1,1.5,1.9l-3.5,0.1c-2.7,0.1-5.3,0.2-8,0.4c-3.2,0.3-6.5,0.2-9.8,0.3c-2.8,0.1-5.6,0.2-8.3,0.4
			c-3.1,0.3-6.3,0.2-9.4,0.3c-2.8,0.1-5.6,0.2-8.4,0.4c-3.1,0.3-6.3,0.2-9.4,0.3c-2.9,0.1-5.8,0.2-8.7,0.4c-3.1,0.3-6.3,0.2-9.4,0.3
			c-2.9,0.1-5.8,0.1-8.7,0.4s-5.6,0.2-8.4,0.3c-3.1,0.1-6.3,0.2-9.4,0.5s-6.5,0.2-9.7,0.3c-1.9,0-3.7,0-5.6,0c0.6-0.7,1.2-1.4,1.8-2
			S241.2,483.4,241.9,482.6z"/>
		<path class="st42" d="M242,491.7c3.3,0,6.5-0.1,9.7-0.4c2.6-0.3,5.3-0.2,8-0.3s5.3-0.1,8-0.4c2.9-0.3,5.8-0.2,8.7-0.3
			c2.7-0.1,5.3-0.2,8-0.4c2.9-0.3,5.8-0.2,8.7-0.3c2.7-0.1,5.3-0.1,8-0.4c2.9-0.3,5.8-0.2,8.7-0.3c2.7-0.1,5.3-0.1,8-0.4
			c2.9-0.3,5.8-0.2,8.7-0.3c2.7-0.1,5.3-0.2,8-0.4c3-0.3,6-0.2,9-0.3c2.3,0,4.6-0.1,7-0.4l3,3.1c0.5,0.4,0.9,1,1.1,1.6
			c-3.3,0-6.5,0.1-9.7,0.4s-6.7,0.2-10.1,0.3c-2.6,0.1-5.1,0.2-7.7,0.4c-3.4,0.3-6.7,0.2-10.1,0.3c-2.7,0.1-5.3,0.1-8,0.4
			c-3.1,0.3-6.3,0.2-9.4,0.3c-2.8,0.1-5.6,0.2-8.4,0.4c-3,0.3-6,0.2-9.1,0.3s-6,0.2-9,0.4s-6,0.2-9.1,0.3c-3,0-6,0.1-9,0.5
			c-1.6,0.2-3.3,0.1-4.9,0.2c-2.6,0.1-5.1,0.1-7.7,0.1c-1.4,0-2.8-0.1-4.2-0.1l1.6-1.8C240.7,493.3,241.4,492.5,242,491.7z"/>
		<path class="st42" d="M242.3,500.9l2.8-0.1c2.7-0.1,5.3-0.1,8-0.4s5.6-0.2,8.4-0.3s5.6-0.1,8.3-0.4c2.5-0.3,5.1-0.2,7.6-0.3
			c3.1-0.1,6.3-0.1,9.4-0.5c2.8-0.3,5.6-0.2,8.4-0.3s5.3-0.1,8-0.4s5.3-0.2,8-0.3s5.6-0.1,8.4-0.4s5.6-0.2,8.4-0.3s5.6-0.2,8.3-0.4
			c3.1-0.3,6.3-0.2,9.4-0.3c1.7-0.1,3.5-0.2,5.2-0.4c0.8,1.1,1.7,2.2,2.7,3c0.5,0.4,1,0.9,1.3,1.5c-2.8,2-6.1,2.2-9.3,2.2
			c-15.2,0.2-30.4,0.5-45.5,1c-11.2,0.3-22.4,0.9-33.6,0.9c-5.7-0.2-11.4,0.6-17.1,0.4c-1.6,0.2-3.2-0.4-4.7,0.3
			c-0.8-0.7-1.3-1.7-2.3-2.2C242.2,502.6,242.2,501.8,242.3,500.9z"/>
		<path class="st44" d="M261.7,512.4c0.7-0.2,1.3-0.3,2-0.4c1-0.1,2.1,0,3.1,0h59.4c1.6,0,3.3,0,4.9,0c-0.5,0.5-1.1,0.9-1.7,1.2
			c-3.6,1.9-7.1,3.8-10.7,5.7c-1.1,0.6-2.4,0.9-3.7,0.9c-1.4,0-2.8,0-4.2,0h-30.6c-0.8,0-1.6,0-2.4,0c-1.6,0.1-3.2-0.3-4.6-1.1
			C269.4,516.6,265.5,514.5,261.7,512.4z"/>
		<path class="st30" d="M266.1,504.4l6.3-0.1c2.7-0.1,5.3-0.2,8-0.4c3-0.3,6-0.2,9-0.3c2.5-0.1,5.1-0.2,7.6-0.4
			c2.9-0.3,5.8-0.2,8.7-0.3s6-0.1,9-0.4c2.8-0.3,5.6-0.2,8.3-0.3c3-0.1,6-0.1,9-0.4c2.8-0.3,5.6-0.2,8.4-0.3c3,0,6-0.1,9-0.5
			c1.7-0.2,3.5-0.1,5.2-0.2c0,0.2,0,0.5-0.1,0.6c-1.2,1.2-2.4,2.4-3.7,3.5c-1,0.6-2,0.3-3.1,0.3c-26.2,0-52.4,0-78.6,0
			C268.3,505.3,266.8,506.2,266.1,504.4z"/>
		<path class="st45" d="M266.1,504.4c0.5,0.2,1.1,0.4,1.6,0.5c1.3,0.1,2.5,0.1,3.8,0.1h77h2.4c-0.3,0.5-0.9,0.8-1.4,0.7h-97.8
			c-1,0-2.1,0-3.1,0c-0.5-0.2-0.5-0.4,0-0.6l5.9-0.1c0.8,0,1.6,0,2.4-0.2C259.9,504.3,263,504.2,266.1,504.4z"/>
		<path class="st24" d="M4.9,391.2l-0.5-0.5L4.9,391.2z"/>
		<path class="st9" d="M196.7,331.1c0.3,0.1,0.7,0.1,1,0.3c0.6,0.2,1,0.6,1.1,1.2c0.1,0.7,0.2,1.4,0.2,2.1c0,6.8,0,13.7,0,20.5
			c0.2,1.2-0.1,2.3-0.8,3.3c-1.9,0-3.8-0.5-5.5-1.4c-0.4-5.8-0.1-11.6-0.2-17.4c0-2.4-0.2-4.9-0.7-7.2
			C193.3,331.6,195,331.2,196.7,331.1z"/>
		<path class="st19" d="M191.8,332.5c0.3,0.1,0.7,0.1,1,0.3c0.7,0.2,1.2,0.8,1.2,1.5c0.1,0.7,0.1,1.4,0.1,2.1v17.2
			c0,0.6,0,1.1-0.1,1.7c0,0.8-0.6,1.6-1.4,1.8c-0.8,0.1-1.5-0.2-2.1-0.7c-0.6-0.6-0.9-1.4-1-2.2c0.1-7-0.4-13.9,0.3-20.9
			C190.4,332.8,191.1,332.5,191.8,332.5z"/>
		<path class="st46" d="M348.3,341.8c0.3,0,0.7,0,1,0.1c3.7,1,7.5,1.5,11.4,1.4c0.2,0,0.4,0.1,0.5,0.3c0.1,0.2,0,0.4-0.1,0.6
			c-3.8,2.2-7.5,4.6-11.5,6.5C347.1,348.8,346.7,345.9,348.3,341.8z"/>
		<path class="st47" d="M189.9,333.3c0.3,0.5,0.5,1,0.6,1.6c0.1,0.8,0.1,1.6,0.1,2.4c0,6.4,0,12.7,0,19l-0.8-0.3
			c-0.2-0.1-0.4-0.2-0.6-0.4c-0.6,0-1.1-0.3-1.4-0.7c-0.7-4.6-0.2-9.2-0.3-13.7c0.1-2.2,0-4.4-0.3-6.5
			C187.9,333.9,188.9,333.4,189.9,333.3z"/>
		<path class="st48" d="M348.3,341.8c0.5,1,0.7,2.1,0.7,3.3c0,0.9,0,1.8,0,2.7c0,1,0.2,2,0.7,2.9c-1.5,1.2-3.1,2.1-4.9,2.8
			c-0.4-0.2-0.9-0.5-1-0.9c-0.5-4.1-1.1-8.3,0.3-12.4C345.6,340.5,347,341,348.3,341.8z"/>
		<path class="st49" d="M187.2,334.7c0.7,0.2,1.2,0.8,1.3,1.5c0.1,0.5,0.1,0.9,0.1,1.4c0,4.8,0,9.6,0,14.5c0.1,1-0.1,2.1-0.7,2.9
			c-0.9-0.1-1.6-0.7-2.1-1.4c-0.7-4.5-0.2-8.9-0.3-13.4c0-1.4-0.1-2.7-0.3-4.1C185.6,335.5,186.3,335,187.2,334.7z"/>
		<path class="st50" d="M344.2,340.1c0.5,1.3,0.7,2.7,0.7,4c0,3.1,0,6.2,0,9.3c-0.8,0.8-1.7,1.3-2.8,1.5c-0.4-0.3-0.8-0.6-0.9-1
			c-0.2-5.1-0.7-10.3,0.2-15.4C342.4,339,343.3,339.5,344.2,340.1z"/>
		<path class="st51" d="M341.4,338.6c0.5,1.5,0.7,3.1,0.6,4.7c0,3.9,0,7.8,0,11.7c-0.6,0.6-1.3,1.1-2.1,1.3c-0.6-0.4-0.9-1.1-1-1.8
			c-0.2-5.1-0.2-10.1,0-15.2c0-0.7,0.4-1.4,1-1.8C340.5,337.7,341.1,338.1,341.4,338.6z"/>
		<path class="st23" d="M185.1,336.1c0.7,0.2,1.1,0.8,1.3,1.5c0.1,0.5,0.1,0.9,0.1,1.4c0,3.9,0,7.8,0,11.7c0.1,1-0.1,2.1-0.7,2.9
			c-0.6-0.1-1.2-0.6-1.5-1.1c-1.7-4.9-1-9.9-0.7-15C183.9,336.8,184.4,336.3,185.1,336.1z"/>
		<path class="st52" d="M337.2,357.8c0-4.1,0-8.1-0.1-12.2c0-3.6,0-7.2,0-10.8l0.7,0.7c0.8,0.7,1.2,1.7,1.4,2.8
			c0,5.8,0.2,11.6-0.1,17.4c-0.1,0.5-0.2,0.9-0.5,1.3C338.3,357.5,337.8,357.8,337.2,357.8z"/>
		<path class="st53" d="M183.6,337.5c0.3,0.5,0.5,1,0.6,1.6c0.1,0.4,0.1,0.9,0.1,1.4c0,4,0,8-0.1,12c-0.9-0.5-1.6-1.3-2.1-2.2
			c-1.4-3.2-1-6.6-0.8-10C181.8,339.1,182.6,338.1,183.6,337.5z"/>
		<path class="st54" d="M338.6,357c0-5.5,0-10.9,0-16.3c0-1.7-0.2-3.5-0.7-5.1c0.8,0.5,1.6,1.2,2.1,2c0,6.2,0,12.5,0,18.7
			C339.6,356.7,339.1,357,338.6,357z"/>
		<path class="st55" d="M181.4,340.3c0.6,0.7,0.9,1.6,0.8,2.5c0,2.5,0,5-0.1,7.5c-1.3-1.3-2.1-3-2.1-4.9
			C179.8,343.6,180.3,341.7,181.4,340.3z"/>
		<path class="st56" d="M232.4,449.1c0,0-0.4-0.1-0.9-0.2c-0.2-0.1-0.1-0.1,0-0.2c0.6-0.2,1.3-0.3,2-0.1c0.2,0,0.4,0.2,0.5,0.3
			c-0.2,0.1-0.4,0.2-0.6,0.3C233.2,449.2,232.8,449.2,232.4,449.1z"/>
		<path class="st19" d="M189.2,355.7l0.6,0.4L189.2,355.7z"/>
		<path class="st57" d="M249.4,107.8c-0.8-0.8-1.9-1.2-3-1.3c-3.4-0.4-4.1,0-4.3,3.1c-0.3,6.3-0.2,12.6,0,18.8
			c0,1.3,0.2,2.6,1.5,3.3c2-0.2,4-0.9,5.6-2.1c1.2-2.7,0.7-5.5,0.6-8.3C249.8,116.9,250.4,112.3,249.4,107.8z"/>
		<path class="st9" d="M243.6,131.8c0-7.1,0-14.1,0-21.2c0-0.8,0-1.6,0.1-2.4c0.1-0.7,0.6-1.3,1.3-1.4c0.4-0.1,0.9-0.1,1.4-0.2
			c-0.7-0.6-1.6-0.9-2.5-0.8c-0.9-0.6-2.2,0.2-3.1-0.7h0.1c-0.8,0.3-1.3,1-1.4,1.8c0,0.6-0.1,1.2-0.1,1.7v20.2c0,0.6,0,1.2,0.1,1.8
			c0.1,0.7,0.3,1.4,0.8,1.9C241.4,132.6,242.6,132.3,243.6,131.8z"/>
		<path class="st50" d="M249.4,107.8c-0.5,0.5-0.8,1.2-0.8,1.9c0,0.6-0.1,1.2-0.1,1.7c0,5,0,9.9,0,14.9c-0.2,1.2,0.1,2.3,0.7,3.3
			c1-0.1,2-0.7,2.7-1.5c0.7-6.3,0.7-12.6,0.1-18.8C251.4,108.5,250.4,108,249.4,107.8z"/>
		<path class="st58" d="M252,109.3c-0.2,0.5-0.5,1-0.7,1.6c0,0.2,0,0.5,0,0.7c0,4.9,0,9.7,0,14.6c0,0.7,0.2,1.4,0.6,2
			c1-0.3,1.8-1,2.4-1.9c0.8-4.9,0.4-9.9,0.4-14.8C254.1,110.5,253.1,109.7,252,109.3z"/>
		<path class="st59" d="M254.7,111.5c-0.7,0.2-1.1,0.8-1.2,1.5c0,0.3-0.1,0.7-0.1,1c0,3.1,0,6.2,0,9.3c-0.1,1,0.2,2.1,0.9,2.9
			c1.2-0.7,2.1-1.7,2.5-3c0.5-3,0.5-6.1,0.1-9.1C256.5,113,255.7,112.1,254.7,111.5z"/>
		<path class="st60" d="M256.9,114.2c-0.3,0.4-0.4,0.8-0.5,1.2c-0.1,2.2-0.1,4.4,0,6.6c0.1,0.4,0.3,0.9,0.5,1.3
			c1.6-2.1,1.9-4.8,1-7.2C257.7,115.4,257.3,114.7,256.9,114.2z"/>
		<path class="st5" d="M240.8,105.1c0.9,0.8,2,0.7,3.1,0.7C243,105.2,241.9,104.9,240.8,105.1z"/>
		<path class="st61" d="M248.6,505.1c0,0.2,0,0.4,0,0.6h-4.2c0.5-0.4,1.2-0.7,1.9-0.6C247,505,247.8,505,248.6,505.1z"/>
		<line class="st62" x1="370.6" y1="407.7" x2="374" y2="406.1"/>
		<line class="st62" x1="370.6" y1="407.7" x2="367.6" y2="409.6"/>
		<line class="st62" x1="365.3" y1="411.8" x2="367.6" y2="409.6"/>
		<line class="st62" x1="363.7" y1="414.2" x2="365.3" y2="411.8"/>
		<line class="st62" x1="362.9" y1="416.7" x2="363.7" y2="414.2"/>
		<line class="st62" x1="362.7" y1="419.2" x2="362.9" y2="416.7"/>
		<line class="st62" x1="362.7" y1="419.2" x2="362.9" y2="419.7"/>
		<line class="st62" x1="235.9" y1="419.7" x2="240.2" y2="420.2"/>
		<line class="st62" x1="240.2" y1="420.2" x2="244.3" y2="421.1"/>
		<line class="st62" x1="244.3" y1="421.1" x2="248.1" y2="422.4"/>
		<line class="st62" x1="248.1" y1="422.4" x2="251.4" y2="424.1"/>
		<line class="st62" x1="251.4" y1="424.1" x2="254.2" y2="426.1"/>
		<line class="st62" x1="254.2" y1="426.1" x2="256.3" y2="428.4"/>
		<line class="st62" x1="256.3" y1="428.4" x2="257.7" y2="430.8"/>
		<line class="st62" x1="257.7" y1="430.8" x2="258.4" y2="433.3"/>
		<line class="st62" x1="258.3" y1="435.9" x2="258.4" y2="433.3"/>
		<line class="st62" x1="257.4" y1="438.4" x2="258.3" y2="435.9"/>
		<line class="st62" x1="255.8" y1="440.8" x2="257.4" y2="438.4"/>
		<line class="st62" x1="253.5" y1="443" x2="255.8" y2="440.8"/>
		<line class="st62" x1="250.6" y1="444.9" x2="253.5" y2="443"/>
		<line class="st62" x1="247.1" y1="446.5" x2="250.6" y2="444.9"/>
		<line class="st62" x1="243.2" y1="447.7" x2="247.1" y2="446.5"/>
		<line class="st62" x1="239" y1="448.5" x2="243.2" y2="447.7"/>
		<line class="st62" x1="234.6" y1="448.9" x2="239" y2="448.5"/>
		<line class="st62" x1="230.2" y1="448.8" x2="234.6" y2="448.9"/>
		<line class="st62" x1="225.9" y1="448.3" x2="230.2" y2="448.8"/>
		<line class="st62" x1="376.4" y1="405.3" x2="374" y2="406.1"/>
		<line class="st62" x1="224" y1="447.9" x2="225.9" y2="448.3"/>
		<line class="st62" x1="221.8" y1="447.4" x2="224" y2="447.9"/>
		<line class="st62" x1="218" y1="446.1" x2="221.8" y2="447.4"/>
		<line class="st62" x1="214.6" y1="444.4" x2="218" y2="446.1"/>
		<line class="st62" x1="211.9" y1="442.4" x2="214.6" y2="444.4"/>
		<line class="st62" x1="209.8" y1="440.1" x2="211.9" y2="442.4"/>
		<line class="st62" x1="208.4" y1="437.7" x2="209.8" y2="440.1"/>
		<line class="st62" x1="207.7" y1="435.2" x2="208.4" y2="437.7"/>
		<line class="st62" x1="273.5" y1="547.1" x2="276.7" y2="548.8"/>
		<line class="st62" x1="276.7" y1="548.8" x2="280.3" y2="550.2"/>
		<line class="st62" x1="280.3" y1="550.2" x2="284.1" y2="551.3"/>
		<line class="st62" x1="284.1" y1="551.3" x2="288.2" y2="552"/>
		<line class="st62" x1="288.2" y1="552" x2="292.5" y2="552.5"/>
		<line class="st62" x1="292.5" y1="552.5" x2="296.7" y2="552.7"/>
		<line class="st62" x1="296.7" y1="552.7" x2="301" y2="552.5"/>
		<line class="st62" x1="301" y1="552.5" x2="305.3" y2="552"/>
		<line class="st62" x1="305.3" y1="552" x2="309.3" y2="551.3"/>
		<line class="st62" x1="309.3" y1="551.3" x2="313.2" y2="550.2"/>
		<line class="st62" x1="313.2" y1="550.2" x2="316.8" y2="548.8"/>
		<line class="st62" x1="316.8" y1="548.8" x2="320" y2="547.1"/>
		<line class="st62" x1="320" y1="547.1" x2="451.8" y2="471"/>
		<line class="st62" x1="451.8" y1="471" x2="385.7" y2="432.9"/>
		<line class="st62" x1="385.7" y1="432.9" x2="389.7" y2="432.9"/>
		<line class="st62" x1="389.7" y1="432.9" x2="394.1" y2="432.5"/>
		<line class="st62" x1="398.3" y1="431.7" x2="394.1" y2="432.5"/>
		<line class="st62" x1="402.2" y1="430.5" x2="398.3" y2="431.7"/>
		<line class="st62" x1="405.6" y1="428.9" x2="402.2" y2="430.5"/>
		<line class="st62" x1="408.5" y1="427" x2="405.6" y2="428.9"/>
		<line class="st62" x1="410.9" y1="424.8" x2="408.5" y2="427"/>
		<line class="st62" x1="412.5" y1="422.4" x2="410.9" y2="424.8"/>
		<line class="st62" x1="413.3" y1="419.9" x2="412.5" y2="422.4"/>
		<line class="st62" x1="413.4" y1="417.4" x2="413.3" y2="419.9"/>
		<line class="st62" x1="412.8" y1="414.8" x2="413.4" y2="417.4"/>
		<line class="st62" x1="411.4" y1="412.4" x2="412.8" y2="414.8"/>
		<line class="st62" x1="409.2" y1="410.2" x2="411.4" y2="412.4"/>
		<line class="st62" x1="406.5" y1="408.2" x2="409.2" y2="410.2"/>
		<line class="st62" x1="403.1" y1="406.5" x2="406.5" y2="408.2"/>
		<line class="st62" x1="399.4" y1="405.1" x2="403.1" y2="406.5"/>
		<line class="st62" x1="395.3" y1="404.2" x2="399.4" y2="405.1"/>
		<line class="st62" x1="390.9" y1="403.7" x2="395.3" y2="404.2"/>
		<line class="st62" x1="386.5" y1="403.7" x2="390.9" y2="403.7"/>
		<line class="st62" x1="386.5" y1="403.7" x2="382.1" y2="404"/>
		<line class="st62" x1="377.9" y1="404.9" x2="382.1" y2="404"/>
		<line class="st62" x1="377.9" y1="404.9" x2="376.4" y2="405.3"/>
		<line class="st62" x1="231.4" y1="419.6" x2="235.9" y2="419.7"/>
		<line class="st62" x1="296.7" y1="381.5" x2="362.9" y2="419.7"/>
		<line class="st62" x1="230.6" y1="419.7" x2="296.7" y2="381.5"/>
		<line class="st62" x1="231.4" y1="419.6" x2="230.6" y2="419.7"/>
		<line class="st62" x1="141.7" y1="471" x2="273.5" y2="547.1"/>
		<line class="st62" x1="207.8" y1="432.9" x2="207.7" y2="435.2"/>
		<line class="st62" x1="207.8" y1="432.9" x2="141.7" y2="471"/>
		<line class="st62" x1="583.6" y1="368.1" x2="451.8" y2="292"/>
		<line class="st62" x1="451.8" y1="292" x2="423.2" y2="308.5"/>
		<line class="st62" x1="385.7" y1="330.1" x2="385.8" y2="327.8"/>
		<line class="st62" x1="385.8" y1="327.8" x2="385.1" y2="325.3"/>
		<line class="st62" x1="383.7" y1="322.9" x2="385.1" y2="325.3"/>
		<line class="st62" x1="381.6" y1="320.6" x2="383.7" y2="322.9"/>
		<line class="st62" x1="378.8" y1="318.6" x2="381.6" y2="320.6"/>
		<line class="st62" x1="375.5" y1="317" x2="378.8" y2="318.6"/>
		<line class="st62" x1="371.7" y1="315.6" x2="375.5" y2="317"/>
		<line class="st62" x1="367.6" y1="314.7" x2="371.7" y2="315.6"/>
		<line class="st62" x1="363.3" y1="314.2" x2="367.6" y2="314.7"/>
		<line class="st62" x1="358.8" y1="314.1" x2="363.3" y2="314.2"/>
		<line class="st62" x1="354.5" y1="314.5" x2="358.8" y2="314.1"/>
		<line class="st62" x1="350.3" y1="315.3" x2="354.5" y2="314.5"/>
		<line class="st62" x1="346.4" y1="316.6" x2="350.3" y2="315.3"/>
		<line class="st62" x1="342.9" y1="318.2" x2="346.4" y2="316.6"/>
		<line class="st62" x1="340" y1="320.1" x2="342.9" y2="318.2"/>
		<line class="st62" x1="337.7" y1="322.3" x2="340" y2="320.1"/>
		<line class="st62" x1="336.1" y1="324.6" x2="337.7" y2="322.3"/>
		<line class="st62" x1="335.2" y1="327.1" x2="336.1" y2="324.6"/>
		<line class="st62" x1="335.1" y1="329.7" x2="335.2" y2="327.1"/>
		<line class="st62" x1="335.1" y1="329.7" x2="335.8" y2="332.2"/>
		<line class="st62" x1="337.2" y1="334.6" x2="335.8" y2="332.2"/>
		<line class="st62" x1="337.2" y1="334.6" x2="339.3" y2="336.9"/>
		<line class="st62" x1="342.1" y1="338.9" x2="339.3" y2="336.9"/>
		<line class="st62" x1="342.1" y1="338.9" x2="345.4" y2="340.6"/>
		<line class="st62" x1="349.2" y1="341.9" x2="345.4" y2="340.6"/>
		<line class="st62" x1="353.3" y1="342.8" x2="349.2" y2="341.9"/>
		<line class="st62" x1="357.6" y1="343.4" x2="353.3" y2="342.8"/>
		<line class="st62" x1="362.1" y1="343.4" x2="357.6" y2="343.4"/>
		<line class="st62" x1="362.1" y1="343.4" x2="362.9" y2="343.3"/>
		<line class="st62" x1="583.6" y1="394.9" x2="586.4" y2="393.1"/>
		<line class="st62" x1="586.4" y1="393.1" x2="588.8" y2="391"/>
		<line class="st62" x1="588.8" y1="391" x2="590.7" y2="388.8"/>
		<line class="st62" x1="590.7" y1="388.8" x2="592.1" y2="386.4"/>
		<line class="st62" x1="592.1" y1="386.4" x2="593" y2="384"/>
		<line class="st62" x1="593" y1="384" x2="593.2" y2="381.5"/>
		<line class="st62" x1="593.2" y1="381.5" x2="593" y2="379"/>
		<line class="st62" x1="593" y1="379" x2="592.1" y2="376.6"/>
		<line class="st62" x1="592.1" y1="376.6" x2="590.7" y2="374.3"/>
		<line class="st62" x1="590.7" y1="374.3" x2="588.8" y2="372"/>
		<line class="st62" x1="588.8" y1="372" x2="586.4" y2="370"/>
		<line class="st62" x1="586.4" y1="370" x2="583.6" y2="368.1"/>
		<line class="st62" x1="385.8" y1="330.1" x2="385.8" y2="327.8"/>
		<line class="st62" x1="451.8" y1="471" x2="583.6" y2="394.9"/>
		<line class="st62" x1="230.2" y1="134" x2="230.6" y2="133.9"/>
		<line class="st62" x1="320" y1="5.8" x2="451.8" y2="81.9"/>
		<line class="st62" x1="451.8" y1="81.9" x2="424" y2="98"/>
		<line class="st62" x1="385.7" y1="120.1" x2="389.7" y2="120"/>
		<line class="st62" x1="389.7" y1="120" x2="394.1" y2="120.4"/>
		<line class="st62" x1="398.3" y1="121.2" x2="394.1" y2="120.4"/>
		<line class="st62" x1="402.2" y1="122.4" x2="398.3" y2="121.2"/>
		<line class="st62" x1="405.6" y1="124" x2="402.2" y2="122.4"/>
		<line class="st62" x1="408.5" y1="125.9" x2="405.6" y2="124"/>
		<line class="st62" x1="410.9" y1="128.1" x2="408.5" y2="125.9"/>
		<line class="st62" x1="412.5" y1="130.5" x2="410.9" y2="128.1"/>
		<line class="st62" x1="413.3" y1="133" x2="412.5" y2="130.5"/>
		<line class="st62" x1="412.8" y1="138.1" x2="413.4" y2="135.6"/>
		<line class="st62" x1="411.4" y1="140.5" x2="412.8" y2="138.1"/>
		<line class="st62" x1="409.2" y1="142.8" x2="411.4" y2="140.5"/>
		<line class="st62" x1="406.5" y1="144.8" x2="409.2" y2="142.8"/>
		<line class="st62" x1="403.1" y1="146.5" x2="406.5" y2="144.8"/>
		<line class="st62" x1="399.4" y1="147.8" x2="403.1" y2="146.5"/>
		<line class="st62" x1="395.3" y1="148.7" x2="399.4" y2="147.8"/>
		<line class="st62" x1="390.9" y1="149.2" x2="395.3" y2="148.7"/>
		<line class="st62" x1="386.5" y1="149.3" x2="390.9" y2="149.2"/>
		<line class="st62" x1="386.5" y1="149.3" x2="382.1" y2="148.9"/>
		<line class="st62" x1="377.9" y1="148.1" x2="382.1" y2="148.9"/>
		<line class="st62" x1="377.9" y1="148.1" x2="374" y2="146.9"/>
		<line class="st62" x1="370.6" y1="145.3" x2="374" y2="146.9"/>
		<line class="st62" x1="370.6" y1="145.3" x2="367.6" y2="143.3"/>
		<line class="st62" x1="365.3" y1="141.2" x2="367.6" y2="143.3"/>
		<line class="st62" x1="363.7" y1="138.8" x2="365.3" y2="141.2"/>
		<line class="st62" x1="362.9" y1="136.3" x2="363.7" y2="138.8"/>
		<line class="st62" x1="362.7" y1="133.7" x2="362.9" y2="136.3"/>
		<line class="st62" x1="362.7" y1="133.7" x2="362.9" y2="133.3"/>
		<line class="st62" x1="296.7" y1="171.4" x2="362.9" y2="133.3"/>
		<line class="st62" x1="230.6" y1="133.3" x2="296.7" y2="171.4"/>
		<line class="st62" x1="231.4" y1="133.3" x2="230.6" y2="133.3"/>
		<line class="st62" x1="231.4" y1="133.3" x2="235.9" y2="133.3"/>
		<line class="st62" x1="235.9" y1="133.3" x2="240.2" y2="132.8"/>
		<line class="st62" x1="240.2" y1="132.8" x2="244.3" y2="131.8"/>
		<line class="st62" x1="244.3" y1="131.8" x2="248.1" y2="130.5"/>
		<line class="st62" x1="248.1" y1="130.5" x2="251.4" y2="128.8"/>
		<line class="st62" x1="251.4" y1="128.8" x2="254.2" y2="126.8"/>
		<line class="st62" x1="254.2" y1="126.8" x2="256.3" y2="124.6"/>
		<line class="st62" x1="256.3" y1="124.6" x2="257.7" y2="122.2"/>
		<line class="st62" x1="257.7" y1="122.2" x2="258.4" y2="119.6"/>
		<line class="st62" x1="258.3" y1="117.1" x2="258.4" y2="119.6"/>
		<line class="st62" x1="257.4" y1="114.6" x2="258.3" y2="117.1"/>
		<line class="st62" x1="255.8" y1="112.2" x2="257.4" y2="114.6"/>
		<line class="st62" x1="253.5" y1="110" x2="255.8" y2="112.2"/>
		<line class="st62" x1="250.6" y1="108.1" x2="253.5" y2="110"/>
		<line class="st62" x1="247.1" y1="106.5" x2="250.6" y2="108.1"/>
		<line class="st62" x1="243.2" y1="105.3" x2="247.1" y2="106.5"/>
		<line class="st62" x1="239" y1="104.4" x2="243.2" y2="105.3"/>
		<line class="st62" x1="234.6" y1="104.1" x2="239" y2="104.4"/>
		<line class="st62" x1="230.2" y1="104.1" x2="234.6" y2="104.1"/>
		<line class="st62" x1="225.9" y1="104.6" x2="230.2" y2="104.1"/>
		<line class="st62" x1="221.8" y1="105.6" x2="225.9" y2="104.6"/>
		<line class="st62" x1="218" y1="106.9" x2="221.8" y2="105.6"/>
		<line class="st62" x1="214.6" y1="108.6" x2="218" y2="106.9"/>
		<line class="st62" x1="211.9" y1="110.6" x2="214.6" y2="108.6"/>
		<line class="st62" x1="209.8" y1="112.8" x2="211.9" y2="110.6"/>
		<line class="st62" x1="208.4" y1="115.2" x2="209.8" y2="112.8"/>
		<line class="st62" x1="207.7" y1="117.8" x2="208.4" y2="115.2"/>
		<line class="st62" x1="207.8" y1="120.1" x2="207.7" y2="117.8"/>
		<line class="st62" x1="207.8" y1="120.1" x2="170.3" y2="98.4"/>
		<line class="st62" x1="141.7" y1="81.9" x2="273.5" y2="5.8"/>
		<line class="st62" x1="273.5" y1="5.8" x2="276.7" y2="4.2"/>
		<line class="st62" x1="276.7" y1="4.2" x2="280.3" y2="2.8"/>
		<line class="st62" x1="280.3" y1="2.8" x2="284.1" y2="1.7"/>
		<line class="st62" x1="284.1" y1="1.7" x2="288.2" y2="0.9"/>
		<line class="st62" x1="288.2" y1="0.9" x2="292.5" y2="0.4"/>
		<line class="st62" x1="292.5" y1="0.4" x2="296.7" y2="0.3"/>
		<line class="st62" x1="296.7" y1="0.3" x2="301" y2="0.4"/>
		<line class="st62" x1="301" y1="0.4" x2="305.3" y2="0.9"/>
		<line class="st62" x1="305.3" y1="0.9" x2="309.3" y2="1.7"/>
		<line class="st62" x1="309.3" y1="1.7" x2="313.2" y2="2.8"/>
		<line class="st62" x1="313.2" y1="2.8" x2="316.8" y2="4.2"/>
		<line class="st62" x1="316.8" y1="4.2" x2="320" y2="5.8"/>
		<line class="st62" x1="170.3" y1="98.4" x2="141.7" y2="81.9"/>
		<line class="st62" x1="424" y1="98" x2="385.7" y2="120.1"/>
		<line class="st62" x1="229.8" y1="348.9" x2="228.1" y2="351.2"/>
		<line class="st62" x1="228.1" y1="351.2" x2="225.9" y2="353.4"/>
		<line class="st62" x1="225.9" y1="353.4" x2="222.9" y2="355.3"/>
		<line class="st62" x1="222.9" y1="355.3" x2="219.5" y2="356.9"/>
		<line class="st62" x1="219.5" y1="356.9" x2="215.6" y2="358.2"/>
		<line class="st62" x1="215.6" y1="358.2" x2="211.4" y2="359"/>
		<line class="st62" x1="202.6" y1="359.3" x2="207" y2="359.4"/>
		<line class="st62" x1="198.2" y1="358.8" x2="202.6" y2="359.3"/>
		<line class="st62" x1="194.1" y1="357.9" x2="198.2" y2="358.8"/>
		<line class="st62" x1="190.3" y1="356.5" x2="194.1" y2="357.9"/>
		<line class="st62" x1="187" y1="354.9" x2="190.3" y2="356.5"/>
		<line class="st62" x1="184.2" y1="352.9" x2="187" y2="354.9"/>
		<line class="st62" x1="182.1" y1="350.6" x2="184.2" y2="352.9"/>
		<line class="st62" x1="180.7" y1="348.2" x2="182.1" y2="350.6"/>
		<line class="st62" x1="180" y1="345.7" x2="180.7" y2="348.2"/>
		<line class="st62" x1="180.1" y1="343.1" x2="180" y2="345.7"/>
		<line class="st62" x1="181" y1="340.6" x2="180.1" y2="343.1"/>
		<line class="st62" x1="182.6" y1="338.2" x2="181" y2="340.6"/>
		<line class="st62" x1="184.9" y1="336" x2="182.6" y2="338.2"/>
		<line class="st62" x1="187.9" y1="334.1" x2="184.9" y2="336"/>
		<line class="st62" x1="191.3" y1="332.5" x2="187.9" y2="334.1"/>
		<line class="st62" x1="195.2" y1="331.3" x2="191.3" y2="332.5"/>
		<line class="st62" x1="199.4" y1="330.5" x2="195.2" y2="331.3"/>
		<line class="st62" x1="203.8" y1="330.1" x2="199.4" y2="330.5"/>
		<line class="st62" x1="230.7" y1="343.8" x2="230.6" y2="346.4"/>
		<line class="st62" x1="230.6" y1="343.3" x2="296.7" y2="381.5"/>
		<line class="st62" x1="230.7" y1="343.8" x2="230.6" y2="343.3"/>
		<line class="st62" x1="230.6" y1="346.4" x2="230.6" y2="343.3"/>
		<line class="st62" x1="207.8" y1="330.1" x2="169.5" y2="308"/>
		<line class="st62" x1="207.8" y1="330.1" x2="203.8" y2="330.1"/>
		<line class="st62" x1="9.9" y1="394.9" x2="141.7" y2="471"/>
		<line class="st62" x1="169.5" y1="308" x2="141.7" y2="292"/>
		<line class="st62" x1="141.7" y1="292" x2="9.9" y2="368.1"/>
		<line class="st62" x1="9.9" y1="368.1" x2="7.1" y2="370"/>
		<line class="st62" x1="7.1" y1="370" x2="4.7" y2="372"/>
		<line class="st62" x1="4.7" y1="372" x2="2.8" y2="374.3"/>
		<line class="st62" x1="2.8" y1="374.3" x2="1.4" y2="376.6"/>
		<line class="st62" x1="1.4" y1="376.6" x2="0.5" y2="379"/>
		<line class="st62" x1="0.5" y1="379" x2="0.3" y2="381.5"/>
		<line class="st62" x1="0.3" y1="381.5" x2="0.5" y2="384"/>
		<line class="st62" x1="0.5" y1="384" x2="1.4" y2="386.4"/>
		<line class="st62" x1="1.4" y1="386.4" x2="2.8" y2="388.8"/>
		<line class="st62" x1="2.8" y1="388.8" x2="4.7" y2="391"/>
		<line class="st62" x1="4.7" y1="391" x2="7.1" y2="393.1"/>
		<line class="st62" x1="7.1" y1="393.1" x2="9.9" y2="394.9"/>
		<line class="st62" x1="423.2" y1="308.5" x2="385.8" y2="330.1"/>
		<line class="st62" x1="385.8" y1="330.1" x2="385.7" y2="330.1"/>
		<line class="st62" x1="296.7" y1="381.5" x2="335.1" y2="359.4"/>
		<line class="st62" x1="335.1" y1="359.4" x2="362.9" y2="343.3"/>
		<line class="st62" x1="413.4" y1="135.6" x2="413.4" y2="133.9"/>
		<line class="st62" x1="413.4" y1="133.9" x2="413.3" y2="133"/>
		<line class="st62" x1="230.6" y1="133.9" x2="230.6" y2="133.3"/>
		<line class="st62" x1="230.6" y1="346.4" x2="230.6" y2="346.4"/>
		<line class="st62" x1="230.6" y1="346.4" x2="229.8" y2="348.9"/>
		<line class="st62" x1="211.4" y1="359" x2="207.8" y2="359.3"/>
		<line class="st62" x1="207.8" y1="359.3" x2="207" y2="359.4"/>
		<line class="st62" x1="296.7" y1="200.8" x2="296.7" y2="205.3"/>
		<line class="st63" x1="296.7" y1="212.5" x2="296.7" y2="371.8"/>
		<line class="st62" x1="296.7" y1="375.3" x2="296.7" y2="379.8"/>
		<line class="st62" x1="141.7" y1="111.7" x2="141.7" y2="116.2"/>
		<line class="st63" x1="141.7" y1="123.3" x2="141.7" y2="282.6"/>
		<line class="st62" x1="141.7" y1="286.2" x2="141.7" y2="290.7"/>
		<line class="st62" x1="451.8" y1="111.7" x2="451.8" y2="116.2"/>
		<line class="st63" x1="451.8" y1="123.3" x2="451.8" y2="282.6"/>
		<line class="st62" x1="451.8" y1="286.2" x2="451.8" y2="290.7"/>
	</g>
</g>
</svg>
