<svg xmlns="http://www.w3.org/2000/svg" viewBox="0 0 95.18 95.18"><title>Asset 4</title><g id="Layer_2" data-name="Layer 2"><g id="Layer_1-2" data-name="Layer 1"><path fill="#fff" d="M53.31,95.18a3.09,3.09,0,0,1-2.19-.84,3,3,0,0,1-.74-1.22L42.8,69.43l-14.64.68A3.08,3.08,0,0,1,26,69.2a3.14,3.14,0,0,1-.9-2.33l.68-14.49L2.07,44.81a3.19,3.19,0,0,1-1.23-.75A3.1,3.1,0,0,1,0,41.87a3,3,0,0,1,.84-2.14,3.14,3.14,0,0,1,.93-.65L90.07.59A5.6,5.6,0,0,1,92.28,0a2.76,2.76,0,0,1,2,.88c1.49,1.48.71,3.27.29,4.24L56.1,93.42a2.94,2.94,0,0,1-.64.92A3,3,0,0,1,53.31,95.18ZM44.59,54.93l9.16,28.58,27.9-64-1-.66ZM31.37,63.82l9.5-.45-2.2-6.85-6.86-2.21ZM11.67,41.43,40.25,50.6l36.1-36.09-.67-1Z"/></g></g></svg>