<svg xmlns="http://www.w3.org/2000/svg" viewBox="0 0 88.98 88.99"><title>Asset 5</title><g id="Layer_2" data-name="Layer 2"><g id="Layer_1-2" data-name="Layer 1"><path fill="#fff" d="M15.77,89a6.09,6.09,0,0,1-4.32-1.78L1.79,77.54a6.1,6.1,0,0,1,0-8.63L27.36,43.34a6,6,0,0,1,2.57-1.53l-5.41-5.42A18.6,18.6,0,0,1,1.37,12.84l0-.06.06-.14A2.44,2.44,0,0,1,1.83,12v0l.22-.23,0,0a2.07,2.07,0,0,1,.6-.37l.1-.05a2.76,2.76,0,0,1,.8-.15h.13a2.54,2.54,0,0,1,.67.11l.06,0,.15.07a2.36,2.36,0,0,1,.59.37h0l7,7a2.49,2.49,0,0,0,3.52,0l3.44-3.44a2.49,2.49,0,0,0,0-3.51l-7-7,0,0a2.31,2.31,0,0,1-.37-.6L11.73,4a2.78,2.78,0,0,1-.12-.71V3.17a2.37,2.37,0,0,1,.16-.79l.05-.14a2.71,2.71,0,0,1,.36-.57l0,0,.23-.23,0,0A2.55,2.55,0,0,1,13.05,1L13.21,1h0A18.6,18.6,0,0,1,36.83,24.09l10.3,10.29L67.7,13.81l-.29-4.18a2.41,2.41,0,0,1,1.23-2.28l12.69-7A2.41,2.41,0,0,1,84.2.72l4.08,4.07a2.42,2.42,0,0,1,.4,2.88l-7,12.68a2.39,2.39,0,0,1-2.1,1.24h-.16l-4.19-.3L54.61,41.87,85.49,72.75l.94,1A8.7,8.7,0,0,1,74.12,86L47.19,59.07a6.1,6.1,0,0,1-1.54,2.56L20.08,87.21A6.05,6.05,0,0,1,15.77,89Zm-.91-5.19a1.32,1.32,0,0,0,.91.35,1.28,1.28,0,0,0,.9-.35L42.25,58.22a1.26,1.26,0,0,0,.37-.9,1.3,1.3,0,0,0-.37-.91l-9.67-9.66a1.27,1.27,0,0,0-1.81,0L5.2,72.32a1.3,1.3,0,0,0-.38.91,1.27,1.27,0,0,0,.38.9l.51.52,21.4-21.39a6.1,6.1,0,0,1,8.63,8.63L14.35,83.28Zm62.67-1.2A3.88,3.88,0,0,0,83,77.11L51.2,45.28,49.48,47a5.16,5.16,0,0,1-.66,6.43l-.22.22ZM10.94,79.87,32.33,58.48a1.28,1.28,0,0,0-1.82-1.81L9.12,78.06ZM44,51.39,45.41,50a.33.33,0,0,0,0-.45l-6-6a.31.31,0,0,0-.22-.08.28.28,0,0,0-.22.09L37.61,45Zm2.12-7.89L72.66,17l0,0a2.64,2.64,0,0,1,.59-.37l.13-.05a2.4,2.4,0,0,1,.78-.15h.23l3.74.26,5.41-9.75-1.5-1.51-9.76,5.41.27,3.81v.11a.51.51,0,0,1,0,.09,2.35,2.35,0,0,1-.15.78l-.05.1a2.43,2.43,0,0,1-.37.59v0L45.49,42.84Zm-21-12.29A2.4,2.4,0,0,1,26.9,32l8.44,8.44.23-.23A5.12,5.12,0,0,1,42,39.51l1.71-1.72-9.65-9.65,0,0a2.41,2.41,0,0,1-3.42-3.4L32,23.4A13.79,13.79,0,0,0,28.8,8.87a13.65,13.65,0,0,0-9.71-4H19l3.55,3.55a7.3,7.3,0,0,1,0,10.33l-3.43,3.44a7.32,7.32,0,0,1-10.34,0L5.27,18.6a13.56,13.56,0,0,0,4,9.76,13.7,13.7,0,0,0,9.75,4,13.93,13.93,0,0,0,5.21-1A2.3,2.3,0,0,1,25.16,31.21Z"/></g></g></svg>