<svg xmlns="http://www.w3.org/2000/svg" viewBox="0 0 77.07 99.09"><title>Asset 2</title><g id="Layer_2" data-name="Layer 2"><g id="Layer_1-2" data-name="Layer 1"><path fill="#fff" d="M2.75,99.09H74.32a2.75,2.75,0,0,0,2.75-2.75V8.26a2.75,2.75,0,0,0-2.75-2.75H60.09a8.45,8.45,0,0,0-8-5.51H25a8.53,8.53,0,0,0-8,5.51H2.75A2.75,2.75,0,0,0,0,8.26V96.34A2.75,2.75,0,0,0,2.75,99.09Zm20-89A2.76,2.76,0,0,1,22,8a2.91,2.91,0,0,1,3-2.47H52.09A2.89,2.89,0,0,1,55,7.66,2.76,2.76,0,0,1,52.3,11H24.77A2.71,2.71,0,0,1,22.74,10.11ZM5.51,11H17a8.22,8.22,0,0,0,7.77,5.51H52.3a8.26,8.26,0,0,0,6.39-3A8.44,8.44,0,0,0,60.08,11H71.57V93.59H5.51Z"/><path fill="#fff" d="M28.33,25.58l-9.06,9.06-3.56-3.55A2.75,2.75,0,1,0,11.82,35l5.5,5.5a2.74,2.74,0,0,0,3.89,0l11-11a2.75,2.75,0,0,0-3.89-3.89Z"/><path fill="#fff" d="M28.33,47.6l-9.06,9.06-3.56-3.55A2.75,2.75,0,0,0,11.82,57l5.5,5.5a2.74,2.74,0,0,0,3.89,0l11-11a2.75,2.75,0,0,0-3.89-3.89Z"/><path fill="#fff" d="M28.33,69.62l-9.06,9.07-3.56-3.56A2.75,2.75,0,1,0,11.82,79l5.5,5.5a2.74,2.74,0,0,0,3.89,0l11-11a2.75,2.75,0,1,0-3.89-3.89Z"/><path fill="#fff" d="M63.31,24.77h-22a2.76,2.76,0,0,0,0,5.51h22a2.76,2.76,0,0,0,0-5.51Z"/><path fill="#fff" d="M41.29,41.29h11a2.76,2.76,0,0,0,0-5.51h-11a2.76,2.76,0,0,0,0,5.51Z"/><path fill="#fff" d="M63.31,46.79h-22a2.76,2.76,0,0,0,0,5.51h22a2.76,2.76,0,0,0,0-5.51Z"/><path fill="#fff" d="M41.29,63.31h11a2.76,2.76,0,0,0,0-5.51h-11a2.76,2.76,0,0,0,0,5.51Z"/><path fill="#fff" d="M63.31,68.81h-22a2.76,2.76,0,0,0,0,5.51h22a2.76,2.76,0,0,0,0-5.51Z"/><path fill="#fff" d="M52.3,79.82h-11a2.76,2.76,0,0,0,0,5.51h11a2.76,2.76,0,0,0,0-5.51Z"/></g></g></svg>