<svg xmlns="http://www.w3.org/2000/svg" width="30" height="29.998" viewBox="0 0 30 29.998"><path d="M561.015,418.114v9.071a5.61,5.61,0,0,1-5.856,5.885c-1,0-2-.012-3,0-.32,0-.432-.077-.43-.41q.017-5.388,0-10.776c0-.4.167-.43.482-.425.978.017,1.957,0,2.933.013.333,0,.5-.085.533-.43q.2-1.833.458-3.65c.052-.373-.065-.462-.422-.455-1.158.018-2.318,0-3.476.015-.373,0-.522-.085-.5-.487.03-.907,0-1.818.022-2.728a1.621,1.621,0,0,1,1.735-1.833c.792-.058,1.59-.067,2.385-.057.385,0,.508-.112.5-.5-.027-1.022-.023-2.047,0-3.07,0-.333-.087-.513-.433-.527a17.9,17.9,0,0,0-4.686.068,5.091,5.091,0,0,0-4.128,4.785c-.082,1.245-.072,2.5-.057,3.748,0,.475-.125.627-.608.607-.93-.037-1.863,0-2.795-.018-.352,0-.528.038-.517.463.03,1.2.023,2.408,0,3.613,0,.358.1.468.46.458.977-.023,1.955.015,2.931-.018.435-.015.525.137.523.545q-.025,5.286,0,10.569c0,.367-.085.5-.5.5-3.365-.018-6.728.025-10.094-.023a5.526,5.526,0,0,1-5.416-5.481q-.073-9.478,0-18.959a5.5,5.5,0,0,1,5.536-5.5q9.444-.062,18.891,0a5.548,5.548,0,0,1,5.523,5.656C561.023,411.879,561.015,414.993,561.015,418.114Z" transform="translate(-531.022 -403.078)" fill="#fff"/></svg>