<svg xmlns="http://www.w3.org/2000/svg" width="30" height="30" viewBox="0 0 30 30"><path d="M0,27.539V2.461c.079-.018.06-.09.074-.141A3,3,0,0,1,3.181,0H26.93A2.989,2.989,0,0,1,30,3.068V26.934a3,3,0,0,1-2.261,2.977c-.1.028-.236-.023-.317.088H2.461c-.019-.078-.09-.059-.141-.073A3,3,0,0,1,.072,27.68C.059,27.629.078,27.558,0,27.539Zm15.028-.469H25.221a1.7,1.7,0,0,0,1.826-1.827V4.886a1.7,1.7,0,0,0-1.834-1.824H4.915A1.711,1.711,0,0,0,3.048,4.937V25.21a1.7,1.7,0,0,0,1.875,1.862Z" fill="#fff"/><path d="M188.606,177.31a3.662,3.662,0,0,1,2.163-1.671c1.647-.427,3.575-.208,4.6,1.164a4.688,4.688,0,0,1,.9,2.85c.025,2.45.019,4.9.032,7.352,0,.179-.067.2-.22.2-1.035-.006-2.071-.009-3.105,0-.208,0-.257-.06-.256-.261.013-1.992.017-3.984.023-5.976a3.342,3.342,0,0,0-.138-1.071,1.687,1.687,0,0,0-1.389-1.264,1.9,1.9,0,0,0-2.009.766,2.593,2.593,0,0,0-.447,1.547c0,1.992-.017,3.984-.013,5.976,0,.237-.067.284-.291.281-1-.012-2.009-.009-3.017,0-.183,0-.246-.037-.246-.236q.019-5.491.02-10.982c0-.168.023-.235.217-.233q1.465.016,2.929,0c.22,0,.254.077.248.268C188.6,176.418,188.606,176.82,188.606,177.31Z" transform="translate(-172.798 -163.695)" fill="#fff"/><path d="M98.677,186.418c0-1.8.007-3.594-.007-5.391,0-.271.08-.313.323-.309,1,.014,1.992.011,2.988,0,.2,0,.261.055.261.26q-.009,5.45,0,10.9c0,.187-.041.249-.24.247q-1.54-.016-3.076,0c-.21,0-.253-.058-.252-.258C98.681,190.05,98.677,188.236,98.677,186.418Z" transform="translate(-92.063 -168.616)" fill="#fff"/><path d="M96.392,98.891a2.083,2.083,0,0,1,.086-4.165,2.083,2.083,0,1,1-.086,4.165Z" transform="translate(-88.041 -88.382)" fill="#fff"/></svg>